<svg xmlns="http://www.w3.org/2000/svg" width="128" height="128" viewBox="54 10 108 108" xmlns:c2pa="http://c2pa.org/manifest"><metadata><c2pa:manifest>AAAWgmp1bWIAAAAeanVtZGMycGEAEQAQgAAAqgA4m3EDYzJwYQAAABZcanVtYgAAAEdqdW1kYzJtYQARABCAAACqADibcQN1cm46YzJwYTo4YzMyZjAwYS0wMzllLTRjYzEtODBkYy01MGU2MDcyMzRkOTIAAAADl2p1bWIAAAApanVtZGMyYXMAEQAQgAAAqgA4m3EDYzJwYS5hc3NlcnRpb25zAAAAALxqdW1iAAAARGp1bWRjYm9yABEAEIAAAKoAOJtxE2MycGEuaW5ncmVkaWVudC52MwAAAAAYYzJzaL9JAv2/qetLPyojgcGCR+AAAABwY2JvcqNpZGM6Zm9ybWF0bWltYWdlL3N2Zyt4bWxqaW5zdGFuY2VJRHgseG1wOmlpZDphYjQ5ZTE3OS01ZDlmLTQxNDUtODAyZS1lNWFjMWEzZjI4ZjRscmVsYXRpb25zaGlwaHBhcmVudE9mAAAB4mp1bWIAAABBanVtZGNib3IAEQAQgAAAqgA4m3ETYzJwYS5hY3Rpb25zLnYyAAAAABhjMnNoixUq5zZjPqurxnhcu562sgAAAZljYm9yomdhY3Rpb25zgqJmYWN0aW9ua2MycGEub3BlbmVkanBhcmFtZXRlcnOha2luZ3JlZGllbnRzgaJjdXJseC1zZWxmI2p1bWJmPWMycGEuYXNzZXJ0aW9ucy9jMnBhLmluZ3JlZGllbnQudjNkaGFzaFggoIa3xcdmSROG+9eTh0OzzdWZnDtOBcT0tbTwng7fHtqkZmFjdGlvbngdY29tLmFudGhyb3BpYy5jbGF1ZGUucHJvdmlkZWRqcGFyYW1ldGVyc6F4H2NvbS5hbnRocm9waWMub3JpZ2luLWNvbmZpZGVuY2VndW5rbm93bmtkZXNjcmlwdGlvbnhmQ2xhdWRlIHByb3ZpZGVkIHRoaXMgZmlsZSBhdCB0aGUgcmVxdWVzdCBvZiBhIHVzZXIgYW5kIG1heSBoYXZlIGNyZWF0ZWQgb3IgbW9kaWZpZWQgdGhlIGZpbGUgY29udGVudHMubXNvZnR3YXJlQWdlbnShZG5hbWVmQ2xhdWRlcmFsbEFjdGlvbnNJbmNsdWRlZPUAAADIanVtYgAAAEBqdW1kY2JvcgARABCAAACqADibcRNjMnBhLmhhc2guZGF0YQAAAAAYYzJzaBScjmDXQy6U7N+a/kBRk4YAAACAY2JvcqVjYWxnZnNoYTI1NmNwYWRNAAAAAAAAAAAAAAAAAGRoYXNoWCCZvRu9cbp7ULbPCNz4Wfr+/VqjbsBDyMhR+JA+RETRvmRuYW1lbmp1bWJmIG1hbmlmZXN0amV4Y2x1c2lvbnOBomVzdGFydBiYZmxlbmd0aBkeBAAAAj5qdW1iAAAAJ2p1bWRjMmNsABEAEIAAAKoAOJtxA2MycGEuY2xhaW0udjIAAAACD2Nib3KlY2FsZ2ZzaGEyNTZpc2lnbmF0dXJleE1zZWxmI2p1bWJmPS9jMnBhL3VybjpjMnBhOjhjMzJmMDBhLTAzOWUtNGNjMS04MGRjLTUwZTYwNzIzNGQ5Mi9jMnBhLnNpZ25hdHVyZWppbnN0YW5jZUlEeCx4bXA6aWlkOjRjOTIyMTU0LTY0ODQtNDFmZi1hODFiLTAyNjNmNGY5NzVmOXJjcmVhdGVkX2Fzc2VydGlvbnODomN1cmx4LXNlbGYjanVtYmY9YzJwYS5hc3NlcnRpb25zL2MycGEuaW5ncmVkaWVudC52M2RoYXNoWCCghrfFx2ZJE4b715OHQ7PN1ZmcO04FxPS1tPCeDt8e2qJjdXJseCpzZWxmI2p1bWJmPWMycGEuYXNzZXJ0aW9ucy9jMnBhLmFjdGlvbnMudjJkaGFzaFggxzjc0zv7xemUnOGNE5WFex16uFPxiwrZE13IcwKEcXKiY3VybHgpc2VsZiNqdW1iZj1jMnBhLmFzc2VydGlvbnMvYzJwYS5oYXNoLmRhdGFkaGFzaFggKF25f3kgGNWj9UgChlT4EyjYfHMTOfiiNoT6mJU2eZx0Y2xhaW1fZ2VuZXJhdG9yX2luZm+jZG5hbWVvQW50aHJvcGljIEZpbGVzZ3ZlcnNpb25lMS4wLjBrc3BlY1ZlcnNpb25lMi40LjAAABA4anVtYgAAAChqdW1kYzJjcwARABCAAACqADibcQNjMnBhLnNpZ25hdHVyZQAAABAIY2JvctKEWQISogEmGCFZAgowggIGMIIBjaADAgECAhRA5aAK7sI50L64g/oGQgU9Z1UTADAKBggqhkjOPQQDAzBJMRcwFQYDVQQKEw5BbnRocm9waWMsIFBCQzEuMCwGA1UEAxMlQW50aHJvcGljIENvbnRlbnQgQ3JlZGVudGlhbHMgUm9vdCBDQTAeFw0yNjA4MDcxODQzNTZaFw0yODA4MDYxOTQzNTZaMEQxFzAVBgNVBAoTDkFudGhyb3BpYywgUEJDMSkwJwYDVQQDEyBBbnRocm9waWMgQ2xhdWRlIENvbnRlbnQgU2lnbmluZzBZMBMGByqGSM49AgEGCCqGSM49AwEHA0IABJh6CmvLUBgFFNU0vUKlOVtE6djd17L5SuwX0LemFisBM3dkd/3cyjxFA3Qo5S46fX0/ihY0VZ7mfb9KF703t5OjWDBWMA4GA1UdDwEB/wQEAwIHgDAVBgNVHSUEDjAMBgorBgEEAYPoXgIBMAwGA1UdEwEB/wQCMAAwHwYDVR0jBBgwFoAUzlHiBIFOZFsj+OPEz5o+nMHXXMIwCgYIKoZIzj0EAwMDZwAwZAIwMXMdFJ4BetLLVY7ORuE9noqbbAZOZn/aArXyTwFAZfKrPzxF2vPoJNf1+UCdg1XGAjBwX1zd9WGqYkqmL5SFqw1QySjr1zJfpJM9+1rdDwSPLMOPOjKuiXjoU/pUUeG9RwmhY3BhZFkNngAAAAAAAAAAAAAAAAAAAAAAAAAAAAAAAAAAAAAAAAAAAAAAAAAAAAAAAAAAAAAAAAAAAAAAAAAAAAAAAAAAAAAAAAAAAAAAAAAAAAAAAAAAAAAAAAAAAAAAAAAAAAAAAAAAAAAAAAAAAAAAAAAAAAAAAAAAAAAAAAAAAAAAAAAAAAAAAAAAAAAAAAAAAAAAAAAAAAAAAAAAAAAAAAAAAAAAAAAAAAAAAAAAAAAAAAAAAAAAAAAAAAAAAAAAAAAAAAAAAAAAAAAAAAAAAAAAAAAAAAAAAAAAAAAAAAAAAAAAAAAAAAAAAAAAAAAAAAAAAAAAAAAAAAAAAAAAAAAAAAAAAAAAAAAAAAAAAAAAAAAAAAAAAAAAAAAAAAAAAAAAAAAAAAAAAAAAAAAAAAAAAAAAAAAAAAAAAAAAAAAAAAAAAAAAAAAAAAAAAAAAAAAAAAAAAAAAAAAAAAAAAAAAAAAAAAAAAAAAAAAAAAAAAAAAAAAAAAAAAAAAAAAAAAAAAAAAAAAAAAAAAAAAAAAAAAAAAAAAAAAAAAAAAAAAAAAAAAAAAAAAAAAAAAAAAAAAAAAAAAAAAAAAAAAAAAAAAAAAAAAAAAAAAAAAAAAAAAAAAAAAAAAAAAAAAAAAAAAAAAAAAAAAAAAAAAAAAAAAAAAAAAAAAAAAAAAAAAAAAAAAAAAAAAAAAAAAAAAAAAAAAAAAAAAAAAAAAAAAAAAAAAAAAAAAAAAAAAAAAAAAAAAAAAAAAAAAAAAAAAAAAAAAAAAAAAAAAAAAAAAAAAAAAAAAAAAAAAAAAAAAAAAAAAAAAAAAAAAAAAAAAAAAAAAAAAAAAAAAAAAAAAAAAAAAAAAAAAAAAAAAAAAAAAAAAAAAAAAAAAAAAAAAAAAAAAAAAAAAAAAAAAAAAAAAAAAAAAAAAAAAAAAAAAAAAAAAAAAAAAAAAAAAAAAAAAAAAAAAAAAAAAAAAAAAAAAAAAAAAAAAAAAAAAAAAAAAAAAAAAAAAAAAAAAAAAAAAAAAAAAAAAAAAAAAAAAAAAAAAAAAAAAAAAAAAAAAAAAAAAAAAAAAAAAAAAAAAAAAAAAAAAAAAAAAAAAAAAAAAAAAAAAAAAAAAAAAAAAAAAAAAAAAAAAAAAAAAAAAAAAAAAAAAAAAAAAAAAAAAAAAAAAAAAAAAAAAAAAAAAAAAAAAAAAAAAAAAAAAAAAAAAAAAAAAAAAAAAAAAAAAAAAAAAAAAAAAAAAAAAAAAAAAAAAAAAAAAAAAAAAAAAAAAAAAAAAAAAAAAAAAAAAAAAAAAAAAAAAAAAAAAAAAAAAAAAAAAAAAAAAAAAAAAAAAAAAAAAAAAAAAAAAAAAAAAAAAAAAAAAAAAAAAAAAAAAAAAAAAAAAAAAAAAAAAAAAAAAAAAAAAAAAAAAAAAAAAAAAAAAAAAAAAAAAAAAAAAAAAAAAAAAAAAAAAAAAAAAAAAAAAAAAAAAAAAAAAAAAAAAAAAAAAAAAAAAAAAAAAAAAAAAAAAAAAAAAAAAAAAAAAAAAAAAAAAAAAAAAAAAAAAAAAAAAAAAAAAAAAAAAAAAAAAAAAAAAAAAAAAAAAAAAAAAAAAAAAAAAAAAAAAAAAAAAAAAAAAAAAAAAAAAAAAAAAAAAAAAAAAAAAAAAAAAAAAAAAAAAAAAAAAAAAAAAAAAAAAAAAAAAAAAAAAAAAAAAAAAAAAAAAAAAAAAAAAAAAAAAAAAAAAAAAAAAAAAAAAAAAAAAAAAAAAAAAAAAAAAAAAAAAAAAAAAAAAAAAAAAAAAAAAAAAAAAAAAAAAAAAAAAAAAAAAAAAAAAAAAAAAAAAAAAAAAAAAAAAAAAAAAAAAAAAAAAAAAAAAAAAAAAAAAAAAAAAAAAAAAAAAAAAAAAAAAAAAAAAAAAAAAAAAAAAAAAAAAAAAAAAAAAAAAAAAAAAAAAAAAAAAAAAAAAAAAAAAAAAAAAAAAAAAAAAAAAAAAAAAAAAAAAAAAAAAAAAAAAAAAAAAAAAAAAAAAAAAAAAAAAAAAAAAAAAAAAAAAAAAAAAAAAAAAAAAAAAAAAAAAAAAAAAAAAAAAAAAAAAAAAAAAAAAAAAAAAAAAAAAAAAAAAAAAAAAAAAAAAAAAAAAAAAAAAAAAAAAAAAAAAAAAAAAAAAAAAAAAAAAAAAAAAAAAAAAAAAAAAAAAAAAAAAAAAAAAAAAAAAAAAAAAAAAAAAAAAAAAAAAAAAAAAAAAAAAAAAAAAAAAAAAAAAAAAAAAAAAAAAAAAAAAAAAAAAAAAAAAAAAAAAAAAAAAAAAAAAAAAAAAAAAAAAAAAAAAAAAAAAAAAAAAAAAAAAAAAAAAAAAAAAAAAAAAAAAAAAAAAAAAAAAAAAAAAAAAAAAAAAAAAAAAAAAAAAAAAAAAAAAAAAAAAAAAAAAAAAAAAAAAAAAAAAAAAAAAAAAAAAAAAAAAAAAAAAAAAAAAAAAAAAAAAAAAAAAAAAAAAAAAAAAAAAAAAAAAAAAAAAAAAAAAAAAAAAAAAAAAAAAAAAAAAAAAAAAAAAAAAAAAAAAAAAAAAAAAAAAAAAAAAAAAAAAAAAAAAAAAAAAAAAAAAAAAAAAAAAAAAAAAAAAAAAAAAAAAAAAAAAAAAAAAAAAAAAAAAAAAAAAAAAAAAAAAAAAAAAAAAAAAAAAAAAAAAAAAAAAAAAAAAAAAAAAAAAAAAAAAAAAAAAAAAAAAAAAAAAAAAAAAAAAAAAAAAAAAAAAAAAAAAAAAAAAAAAAAAAAAAAAAAAAAAAAAAAAAAAAAAAAAAAAAAAAAAAAAAAAAAAAAAAAAAAAAAAAAAAAAAAAAAAAAAAAAAAAAAAAAAAAAAAAAAAAAAAAAAAAAAAAAAAAAAAAAAAAAAAAAAAAAAAAAAAAAAAAAAAAAAAAAAAAAAAAAAAAAAAAAAAAAAAAAAAAAAAAAAAAAAAAAAAAAAAAAAAAAAAAAAAAAAAAAAAAAAAAAAAAAAAAAAAAAAAAAAAAAAAAAAAAAAAAAAAAAAAAAAAAAAAAAAAAAAAAAAAAAAAAAAAAAAAAAAAAAAAAAAAAAAAAAAAAAAAAAAAAAAAAAAAAAAAAAAAAAAAAAAAAAAAAAAAAAAAAAAAAAAAAAAAAAAAAAAAAAAAAAAAAAAAAAAAAAAAAAAAAAAAAAAAAAAAAAAAAAAAAAAAAAAAAAAAAAAAAAAAAAAAAAAAAAAAAAAAAAAAAAAAAAAAAAAAAAAAAAAAAAAAAAAAAAAAAAAAAAAAAAAAAAAAAAAAAAAAAAAAAAAAAAAAAAAAAAAAAAAAAAAAAAAAAAAAAAAAAAAAAAAAAAAAAAAAAAAAAAAAAAAAAAAAAAAAAAAAAAAAAAAAAAAAAAAAAAAAAAAAAAAAAAAAAAAAAAAAAAAAAAAAAAAAAAAAAAAAAAAAAAAAAAAAAAAAAAAAAAAAAAAAAAAAAAAAAAAAAAAAAAAAAAAAAAAAAAAAAAAAAAAAAAAAAAAAAAAAAAAAAAAAAAAAAAAAAAAAAAAAAAAAAAAAAAAAAAAAAAAAAAAAAAAAAAAAAAAAAAAAAAAAAAAAAAAAAAAAAAAAAAAAAAAAAAAAAAAAAAAAAAAAAAAAAAAAAAAAAAAAAAAAAAAAAAAAAAAAAAAAAAAAAAAAAAAAAAAAAAAAAAAAAAAAAAAAAAAAAAAAAAAAAAAAAAAAAAAAAAAAAAAAAAAAAAAAAAAAAAAAAAAAAAAAAAAAAAAAAAAAAAAAAAAAAAAAAAAAAAAAAAAAAAAAAAAAAAAAAAAAAAAAAAAAAAAAAAAAAAAAAAAAAAAAAAAAAAAAAAAAAAAAAAAAAAAAAAAAAAAAAAAAAAAAAAAAAAAAAAAAAAAAAAAAAAAAAAAAAAAAAAAAAAAAAAAAAAAAAAAAAAAAAAAAAAAAAAAAAAAAAAAAAAAAAAAAAAAAAAAAAAAAAAAAAAAAAAAAAAAAAAAAAAAAAAAAAAAAAAAAAAAAAAAAAAAAAAAAAAAAAAAAAAAAAAAAAAAAAAAAAAAAAAAAAAAAAAAAAAAAAAAAAAAAAAAAAAAAAAAAAAAAAAAAAAAAAAAAAAAAAAAAAAAAAAAAAAAAAAAAAAAAAAAAAAAAAAAAAAAAAAAAAAAAAAAAAAAAAAAAAAAAAAAAAAAAAAAAAAAAAAAAAAAAAAAAAAAAAAAAAAAAAAAAAAAAAAAAAAAAAAAAAAAAAAAAAAAAAAAAAAAAAAAAAAAAAAAAAAAAAAAAAAAAAAAAAAAAAAAAAAAAAAAAAAAAAAAAAAAAAAAAAAAAAAAAAAAAAAAAAAAAAAAAAAAAAAAAAAAAAAAAAAAAAAAAAAAAAAAAAAAAAAAAAAAAAAAAAAAAAAAAAAAAAAAAAAAAAAAAAAAAAAAAAAAAAAAAAAAAAAAAAAAAAAAAAAAAAAAAAAAAAAAAAAAAAAAAAAAAAAAAAAAAAAAAAAAAAAAAAAAAAAAAAAAAAAAAAAAAAAAAAAAAAAAAAAAAAAAAAAAAAAAAAAAAAAAAAAAAAAAAAAAAAAAAAAAAAAAAAAAAAAAAAAAAAAAAAAAAAAAAAAAAAAAAAAAAAAAAAAAAAAAAAAAAAAAAAAAAAAAAAAAAAAAAAAAAAAAAAAAAAAAAAAAAAAAAAAAAAAAAAAAAAAAAAAAAAAAAAPZYQKdCeOpnOctF7dfkI7p5fPSeSzNi2qSBqbmZ2nPXDXWJSeEfGH9Ji7T6kBJ19FbP/RuX86WF54i6CLf0Ui76jA8=</c2pa:manifest></metadata><defs><clipPath id="c572"><path d="M78 140C74.67 143.33 64.67 147.17 58 147C51.33 146.83 43.33 143.33 38 139C32.67 134.67 28.33 127.33 26 121C23.67 114.67 23 107.17 24 101C25 94.83 28.83 85 32 84C35.17 83 40.17 90.17 43 95C45.83 99.83 45.83 108.17 49 113C52.17 117.83 57.17 121.67 62 124C66.83 126.33 75.33 124.33 78 127C80.67 129.67 81.33 136.67 78 140Z"></path></clipPath><clipPath id="c573"><path d="M74 132A24 30 0 1 0 122 132A24 30 0 1 0 74 132Z"></path></clipPath><clipPath id="c574"><path d="M88.96 100.69Q86 98 89.99 97.79L120.01 96.21Q124 96 121.65 99.23L110.35 114.77Q108 118 105.04 115.31Z"></path></clipPath><clipPath id="c575"><path d="M86.16 55.23Q82 58 81.61 53.02L79.39 24.98Q79 20 82.54 23.54L99.46 40.46Q103 44 98.84 46.77Z"></path></clipPath><clipPath id="c576"><path d="M78 66A30 25 0 1 0 138 66A30 25 0 1 0 78 66Z"></path><path d="M84.21 74.03Q82 72 80.44 74.56L72.56 87.44Q71 90 73.87 89.13L91.13 83.87Q94 83 91.79 80.97Z"></path></clipPath><clipPath id="c577"><path d="M114.96 44.6Q110 44 112.53 39.69L124.47 19.31Q127 15 128.21 19.85L133.79 42.15Q135 47 130.04 46.4Z"></path></clipPath><clipPath id="c578"><path d="M116 70C118.67 66.67 128.33 64.5 134 64C139.67 63.5 146.83 65.33 150 67C153.17 68.67 154.5 71.5 153 74C151.5 76.5 146.83 80.33 141 82C135.17 83.67 122.17 86 118 84C113.83 82 113.33 73.33 116 70Z"></path></clipPath><clipPath id="c579"><path d="M144.5 69.5A5.5 4.5 0 1 0 155.5 69.5A5.5 4.5 0 1 0 144.5 69.5Z"></path></clipPath></defs><g transform="translate(0 0) rotate(0 96 176)"><g transform="translate(0 0) rotate(0 76 134)"><path d="M78 140C74.67 143.33 64.67 147.17 58 147C51.33 146.83 43.33 143.33 38 139C32.67 134.67 28.33 127.33 26 121C23.67 114.67 23 107.17 24 101C25 94.83 28.83 85 32 84C35.17 83 40.17 90.17 43 95C45.83 99.83 45.83 108.17 49 113C52.17 117.83 57.17 121.67 62 124C66.83 126.33 75.33 124.33 78 127C80.67 129.67 81.33 136.67 78 140Z" fill="#2B2B3A" stroke="#2B2B3A" stroke-width="7" stroke-linejoin="round"></path><path d="M78 140C74.67 143.33 64.67 147.17 58 147C51.33 146.83 43.33 143.33 38 139C32.67 134.67 28.33 127.33 26 121C23.67 114.67 23 107.17 24 101C25 94.83 28.83 85 32 84C35.17 83 40.17 90.17 43 95C45.83 99.83 45.83 108.17 49 113C52.17 117.83 57.17 121.67 62 124C66.83 126.33 75.33 124.33 78 127C80.67 129.67 81.33 136.67 78 140Z" fill="#8E44AD"></path><g clip-path="url(#c572)"><path d="M78 140C74.67 143.33 64.67 147.17 58 147C51.33 146.83 43.33 143.33 38 139C32.67 134.67 28.33 127.33 26 121C23.67 114.67 23 107.17 24 101C25 94.83 28.83 85 32 84C35.17 83 40.17 90.17 43 95C45.83 99.83 45.83 108.17 49 113C52.17 117.83 57.17 121.67 62 124C66.83 126.33 75.33 124.33 78 127C80.67 129.67 81.33 136.67 78 140Z" fill="#6B2F88"></path><g transform="translate(-2.24 -3.2)"><path d="M78 140C74.67 143.33 64.67 147.17 58 147C51.33 146.83 43.33 143.33 38 139C32.67 134.67 28.33 127.33 26 121C23.67 114.67 23 107.17 24 101C25 94.83 28.83 85 32 84C35.17 83 40.17 90.17 43 95C45.83 99.83 45.83 108.17 49 113C52.17 117.83 57.17 121.67 62 124C66.83 126.33 75.33 124.33 78 127C80.67 129.67 81.33 136.67 78 140Z" fill="#8E44AD"></path></g><path d="M19.34 94.59A10 12.5 -15 1 0 38.66 89.41A10 12.5 -15 1 0 19.34 94.59Z" fill="#F7F1E6"></path><path d="M30.71 105.2A3.5 7 -20 1 0 37.29 102.8A3.5 7 -20 1 0 30.71 105.2Z" fill="#B67ED3"></path></g></g><path d="M88 148C87.33 150 85.33 156.83 84 160C82.67 163.17 80.67 165.83 80 167" fill="none" stroke="#2B2B3A" stroke-width="22" stroke-linecap="round" stroke-linejoin="round"></path><path d="M88 148C87.33 150 85.33 156.83 84 160C82.67 163.17 80.67 165.83 80 167" fill="none" stroke="#6B2F88" stroke-width="15" stroke-linecap="round" stroke-linejoin="round"></path><path d="M65 172A12 6 0 1 0 89 172A12 6 0 1 0 65 172Z" fill="#2B2B3A" stroke="#2B2B3A" stroke-width="7" stroke-linejoin="round"></path><path d="M65 172A12 6 0 1 0 89 172A12 6 0 1 0 65 172Z" fill="#5a2e7c"></path><g transform="translate(0 0)"><path d="M84 104C83.5 106.17 81.67 112.67 81 117C80.33 121.33 80.17 127.83 80 130" fill="none" stroke="#2B2B3A" stroke-width="19" stroke-linecap="round" stroke-linejoin="round"></path><path d="M84 104C83.5 106.17 81.67 112.67 81 117C80.33 121.33 80.17 127.83 80 130" fill="none" stroke="#6B2F88" stroke-width="12" stroke-linecap="round" stroke-linejoin="round"></path></g><g transform="translate(0 0)"><path d="M73 130A7 6.5 0 1 0 87 130A7 6.5 0 1 0 73 130Z" fill="#2B2B3A" stroke="#2B2B3A" stroke-width="7" stroke-linejoin="round"></path><path d="M73 130A7 6.5 0 1 0 87 130A7 6.5 0 1 0 73 130Z" fill="#5a2e7c"></path></g><g transform="translate(0 0)"><path d="M74 132A24 30 0 1 0 122 132A24 30 0 1 0 74 132Z" fill="#2B2B3A" stroke="#2B2B3A" stroke-width="7" stroke-linejoin="round"></path><path d="M74 132A24 30 0 1 0 122 132A24 30 0 1 0 74 132Z" fill="#8E44AD"></path><g clip-path="url(#c573)"><path d="M74 132A24 30 0 1 0 122 132A24 30 0 1 0 74 132Z" fill="#6B2F88"></path><g transform="translate(-3.36 -4.8)"><path d="M74 132A24 30 0 1 0 122 132A24 30 0 1 0 74 132Z" fill="#8E44AD"></path></g><path d="M95.13 132.81A13 20 -8 1 0 120.87 129.19A13 20 -8 1 0 95.13 132.81Z" fill="#F7F1E6"></path><path d="M77.77 117.54A4.5 8 -20 1 0 86.23 114.46A4.5 8 -20 1 0 77.77 117.54Z" fill="#B67ED3"></path></g></g><path d="M106 150C106.67 151.67 109 157.17 110 160C111 162.83 111.67 165.83 112 167" fill="none" stroke="#2B2B3A" stroke-width="22" stroke-linecap="round" stroke-linejoin="round"></path><path d="M106 150C106.67 151.67 109 157.17 110 160C111 162.83 111.67 165.83 112 167" fill="none" stroke="#8E44AD" stroke-width="15" stroke-linecap="round" stroke-linejoin="round"></path><path d="M103 172A13 6.5 0 1 0 129 172A13 6.5 0 1 0 103 172Z" fill="#2B2B3A" stroke="#2B2B3A" stroke-width="7" stroke-linejoin="round"></path><path d="M103 172A13 6.5 0 1 0 129 172A13 6.5 0 1 0 103 172Z" fill="#6B2F88"></path><g transform="translate(0 0)"><path d="M88.96 100.69Q86 98 89.99 97.79L120.01 96.21Q124 96 121.65 99.23L110.35 114.77Q108 118 105.04 115.31Z" fill="#2B2B3A" stroke="#2B2B3A" stroke-width="7" stroke-linejoin="round"></path><path d="M88.96 100.69Q86 98 89.99 97.79L120.01 96.21Q124 96 121.65 99.23L110.35 114.77Q108 118 105.04 115.31Z" fill="#E0584B"></path><g clip-path="url(#c574)"><path d="M88.96 100.69Q86 98 89.99 97.79L120.01 96.21Q124 96 121.65 99.23L110.35 114.77Q108 118 105.04 115.31Z" fill="#B8433A"></path><g transform="translate(-1.05 -1.5)"><path d="M88.96 100.69Q86 98 89.99 97.79L120.01 96.21Q124 96 121.65 99.23L110.35 114.77Q108 118 105.04 115.31Z" fill="#E0584B"></path></g></g></g><g transform="translate(0 0)"><path d="M110 106C110.5 108.17 112 114.67 113 119C114 123.33 115.5 129.83 116 132" fill="none" stroke="#2B2B3A" stroke-width="19" stroke-linecap="round" stroke-linejoin="round"></path><path d="M110 106C110.5 108.17 112 114.67 113 119C114 123.33 115.5 129.83 116 132" fill="none" stroke="#8E44AD" stroke-width="12" stroke-linecap="round" stroke-linejoin="round"></path></g><g transform="translate(0 0)"><path d="M108.5 132A7.5 7 0 1 0 123.5 132A7.5 7 0 1 0 108.5 132Z" fill="#2B2B3A" stroke="#2B2B3A" stroke-width="7" stroke-linejoin="round"></path><path d="M108.5 132A7.5 7 0 1 0 123.5 132A7.5 7 0 1 0 108.5 132Z" fill="#6B2F88"></path></g><g transform="translate(0 0) rotate(0 104 96)"><path d="M86.16 55.23Q82 58 81.61 53.02L79.39 24.98Q79 20 82.54 23.54L99.46 40.46Q103 44 98.84 46.77Z" fill="#2B2B3A" stroke="#2B2B3A" stroke-width="7" stroke-linejoin="round"></path><path d="M86.16 55.23Q82 58 81.61 53.02L79.39 24.98Q79 20 82.54 23.54L99.46 40.46Q103 44 98.84 46.77Z" fill="#8E44AD"></path><g clip-path="url(#c575)"><path d="M88.59 50.49Q86 52 85.79 49.01L84.71 33.99Q84.5 31 86.58 33.16L95.92 42.84Q98 45 95.41 46.51Z" fill="#C79BDD"></path></g></g><g transform="translate(0 0) rotate(0 104 96)"><path d="M78 66A30 25 0 1 0 138 66A30 25 0 1 0 78 66Z" fill="#2B2B3A" stroke="#2B2B3A" stroke-width="7" stroke-linejoin="round"></path><path d="M84.21 74.03Q82 72 80.44 74.56L72.56 87.44Q71 90 73.87 89.13L91.13 83.87Q94 83 91.79 80.97Z" fill="#2B2B3A" stroke="#2B2B3A" stroke-width="7" stroke-linejoin="round"></path><path d="M78 66A30 25 0 1 0 138 66A30 25 0 1 0 78 66Z" fill="#8E44AD"></path><path d="M84.21 74.03Q82 72 80.44 74.56L72.56 87.44Q71 90 73.87 89.13L91.13 83.87Q94 83 91.79 80.97Z" fill="#8E44AD"></path><g clip-path="url(#c576)"><path d="M78 66A30 25 0 1 0 138 66A30 25 0 1 0 78 66Z" fill="#6B2F88"></path><path d="M84.21 74.03Q82 72 80.44 74.56L72.56 87.44Q71 90 73.87 89.13L91.13 83.87Q94 83 91.79 80.97Z" fill="#6B2F88"></path><g transform="translate(-3.5 -5)"><path d="M78 66A30 25 0 1 0 138 66A30 25 0 1 0 78 66Z" fill="#8E44AD"></path><path d="M84.21 74.03Q82 72 80.44 74.56L72.56 87.44Q71 90 73.87 89.13L91.13 83.87Q94 83 91.79 80.97Z" fill="#8E44AD"></path></g><path d="M94.25 87.62A26 11 -8 1 0 145.75 80.38A26 11 -8 1 0 94.25 87.62Z" fill="#F7F1E6"></path><path d="M85.66 53.96A7 3.4 -25 1 0 98.34 48.04A7 3.4 -25 1 0 85.66 53.96Z" fill="#B67ED3"></path></g></g><g transform="translate(0 0) rotate(0 104 96)"><path d="M114.96 44.6Q110 44 112.53 39.69L124.47 19.31Q127 15 128.21 19.85L133.79 42.15Q135 47 130.04 46.4Z" fill="#2B2B3A" stroke="#2B2B3A" stroke-width="7" stroke-linejoin="round"></path><path d="M114.96 44.6Q110 44 112.53 39.69L124.47 19.31Q127 15 128.21 19.85L133.79 42.15Q135 47 130.04 46.4Z" fill="#8E44AD"></path><g clip-path="url(#c577)"><path d="M118.97 43.42Q116 43 117.52 40.41L124.48 28.59Q126 26 126.62 28.94L129.38 42.06Q130 45 127.03 44.58Z" fill="#C79BDD"></path></g></g><g transform="translate(0 0) rotate(0 104 96)"><path d="M116 70C118.67 66.67 128.33 64.5 134 64C139.67 63.5 146.83 65.33 150 67C153.17 68.67 154.5 71.5 153 74C151.5 76.5 146.83 80.33 141 82C135.17 83.67 122.17 86 118 84C113.83 82 113.33 73.33 116 70Z" fill="#2B2B3A" stroke="#2B2B3A" stroke-width="7" stroke-linejoin="round"></path><path d="M116 70C118.67 66.67 128.33 64.5 134 64C139.67 63.5 146.83 65.33 150 67C153.17 68.67 154.5 71.5 153 74C151.5 76.5 146.83 80.33 141 82C135.17 83.67 122.17 86 118 84C113.83 82 113.33 73.33 116 70Z" fill="#F7F1E6"></path><g clip-path="url(#c578)"><path d="M116 70C118.67 66.67 128.33 64.5 134 64C139.67 63.5 146.83 65.33 150 67C153.17 68.67 154.5 71.5 153 74C151.5 76.5 146.83 80.33 141 82C135.17 83.67 122.17 86 118 84C113.83 82 113.33 73.33 116 70Z" fill="#DCD1BE"></path><g transform="translate(-1.12 -1.6)"><path d="M116 70C118.67 66.67 128.33 64.5 134 64C139.67 63.5 146.83 65.33 150 67C153.17 68.67 154.5 71.5 153 74C151.5 76.5 146.83 80.33 141 82C135.17 83.67 122.17 86 118 84C113.83 82 113.33 73.33 116 70Z" fill="#F7F1E6"></path></g><path d="M125.05 68.2A5 2 -8 1 0 134.95 66.8A5 2 -8 1 0 125.05 68.2Z" fill="#FFFFFF"></path></g></g><g transform="translate(0 0) rotate(0 104 96)"><path d="M144.5 69.5A5.5 4.5 0 1 0 155.5 69.5A5.5 4.5 0 1 0 144.5 69.5Z" fill="#2B2B3A"></path><g clip-path="url(#c579)"><path d="M146.6 68A1.8 1.1 0 1 0 150.2 68A1.8 1.1 0 1 0 146.6 68Z" fill="#fff"></path></g></g><g transform="translate(0 0) rotate(0 104 96)"><path d="M95.81 62A6.19 7.2 0 1 0 108.19 62A6.19 7.2 0 1 0 95.81 62Z" fill="#fff"></path><path d="M98.54 62.72A4.46 5.62 0 1 0 107.47 62.72A4.46 5.62 0 1 0 98.54 62.72Z" fill="#2B2B3A"></path><path d="M99.79 60.7A1.87 1.87 0 1 0 103.54 60.7A1.87 1.87 0 1 0 99.79 60.7Z" fill="#fff"></path><path d="M104.08 65.19A0.8 0.8 0 1 0 105.69 65.19A0.8 0.8 0 1 0 104.08 65.19Z" fill="#fff"></path><path d="M112.95 61A7.05 8.2 0 1 0 127.05 61A7.05 8.2 0 1 0 112.95 61Z" fill="#fff"></path><path d="M116.06 61.82A5.08 6.4 0 1 0 126.23 61.82A5.08 6.4 0 1 0 116.06 61.82Z" fill="#2B2B3A"></path><path d="M117.49 59.52A2.14 2.14 0 1 0 121.76 59.52A2.14 2.14 0 1 0 117.49 59.52Z" fill="#fff"></path><path d="M122.37 64.63A0.92 0.92 0 1 0 124.2 64.63A0.92 0.92 0 1 0 122.37 64.63Z" fill="#fff"></path><path d="M94 51.5L106.5 55" fill="none" stroke="#2B2B3A" stroke-width="3" stroke-linecap="round"></path><path d="M114 54L127 49.5" fill="none" stroke="#2B2B3A" stroke-width="3" stroke-linecap="round"></path><path d="M126 80Q135 87 145 78" fill="none" stroke="#2B2B3A" stroke-width="2.6" stroke-linecap="round" stroke-linejoin="round"></path><path d="M131.24 83.47Q131 82.5 131.98 82.72L134.52 83.28Q135.5 83.5 134.99 84.36L133.01 87.64Q132.5 88.5 132.26 87.53Z" fill="#fff" stroke="#2B2B3A" stroke-width="1.6" stroke-linejoin="round"></path></g></g></svg>