<svg xmlns="http://www.w3.org/2000/svg" width="320" height="64" viewBox="0 0 320 64" xmlns:c2pa="http://c2pa.org/manifest"><metadata><c2pa:manifest>AAAWgmp1bWIAAAAeanVtZGMycGEAEQAQgAAAqgA4m3EDYzJwYQAAABZcanVtYgAAAEdqdW1kYzJtYQARABCAAACqADibcQN1cm46YzJwYTo0ZTRkOGZjMC1kNDkxLTQyMjEtOWYyNS1kNmQxZGNiMmY2Y2MAAAADl2p1bWIAAAApanVtZGMyYXMAEQAQgAAAqgA4m3EDYzJwYS5hc3NlcnRpb25zAAAAALxqdW1iAAAARGp1bWRjYm9yABEAEIAAAKoAOJtxE2MycGEuaW5ncmVkaWVudC52MwAAAAAYYzJzaNdXCfnk9uv/qYX+TfhzkLwAAABwY2JvcqNpZGM6Zm9ybWF0bWltYWdlL3N2Zyt4bWxqaW5zdGFuY2VJRHgseG1wOmlpZDpiNzk3MWU1Ni0xNWVmLTQxNDItYjUwYS05ZjU5NGFjYmQ3NjNscmVsYXRpb25zaGlwaHBhcmVudE9mAAAB4mp1bWIAAABBanVtZGNib3IAEQAQgAAAqgA4m3ETYzJwYS5hY3Rpb25zLnYyAAAAABhjMnNolnGuRr/nrOAPZbQD5LYvJAAAAZljYm9yomdhY3Rpb25zgqJmYWN0aW9ua2MycGEub3BlbmVkanBhcmFtZXRlcnOha2luZ3JlZGllbnRzgaJjdXJseC1zZWxmI2p1bWJmPWMycGEuYXNzZXJ0aW9ucy9jMnBhLmluZ3JlZGllbnQudjNkaGFzaFggHuPEG1vRIkvs172gh3PdLgSdLXOr7Hq5mL6Gsm3UeCOkZmFjdGlvbngdY29tLmFudGhyb3BpYy5jbGF1ZGUucHJvdmlkZWRqcGFyYW1ldGVyc6F4H2NvbS5hbnRocm9waWMub3JpZ2luLWNvbmZpZGVuY2VndW5rbm93bmtkZXNjcmlwdGlvbnhmQ2xhdWRlIHByb3ZpZGVkIHRoaXMgZmlsZSBhdCB0aGUgcmVxdWVzdCBvZiBhIHVzZXIgYW5kIG1heSBoYXZlIGNyZWF0ZWQgb3IgbW9kaWZpZWQgdGhlIGZpbGUgY29udGVudHMubXNvZnR3YXJlQWdlbnShZG5hbWVmQ2xhdWRlcmFsbEFjdGlvbnNJbmNsdWRlZPUAAADIanVtYgAAAEBqdW1kY2JvcgARABCAAACqADibcRNjMnBhLmhhc2guZGF0YQAAAAAYYzJzaEgy55LAQkRev5ihiAkd1G8AAACAY2JvcqVjYWxnZnNoYTI1NmNwYWRNAAAAAAAAAAAAAAAAAGRoYXNoWCCBLU//CiIQHtLdI1U6WTYWGw5CJbC7HRJ9z93A6gsf9mRuYW1lbmp1bWJmIG1hbmlmZXN0amV4Y2x1c2lvbnOBomVzdGFydBiUZmxlbmd0aBkeBAAAAj5qdW1iAAAAJ2p1bWRjMmNsABEAEIAAAKoAOJtxA2MycGEuY2xhaW0udjIAAAACD2Nib3KlY2FsZ2ZzaGEyNTZpc2lnbmF0dXJleE1zZWxmI2p1bWJmPS9jMnBhL3VybjpjMnBhOjRlNGQ4ZmMwLWQ0OTEtNDIyMS05ZjI1LWQ2ZDFkY2IyZjZjYy9jMnBhLnNpZ25hdHVyZWppbnN0YW5jZUlEeCx4bXA6aWlkOmRmM2E4M2U3LTZiNmQtNDNhMS1iOTgxLWYzNDk1NDY1NWI1OXJjcmVhdGVkX2Fzc2VydGlvbnODomN1cmx4LXNlbGYjanVtYmY9YzJwYS5hc3NlcnRpb25zL2MycGEuaW5ncmVkaWVudC52M2RoYXNoWCAe48QbW9EiS+zXvaCHc90uBJ0tc6vsermYvoaybdR4I6JjdXJseCpzZWxmI2p1bWJmPWMycGEuYXNzZXJ0aW9ucy9jMnBhLmFjdGlvbnMudjJkaGFzaFggG5DLcZNY0YkGMReYyhPSYHG4TdEcvz9U5EX/7nTz3zyiY3VybHgpc2VsZiNqdW1iZj1jMnBhLmFzc2VydGlvbnMvYzJwYS5oYXNoLmRhdGFkaGFzaFggVFrvSW5R3Y4X1hz/l5fD9tVt3TLnSWsSA/X4PHwCFN90Y2xhaW1fZ2VuZXJhdG9yX2luZm+jZG5hbWVvQW50aHJvcGljIEZpbGVzZ3ZlcnNpb25lMS4wLjBrc3BlY1ZlcnNpb25lMi40LjAAABA4anVtYgAAAChqdW1kYzJjcwARABCAAACqADibcQNjMnBhLnNpZ25hdHVyZQAAABAIY2JvctKEWQISogEmGCFZAgowggIGMIIBjaADAgECAhRA5aAK7sI50L64g/oGQgU9Z1UTADAKBggqhkjOPQQDAzBJMRcwFQYDVQQKEw5BbnRocm9waWMsIFBCQzEuMCwGA1UEAxMlQW50aHJvcGljIENvbnRlbnQgQ3JlZGVudGlhbHMgUm9vdCBDQTAeFw0yNjA4MDcxODQzNTZaFw0yODA4MDYxOTQzNTZaMEQxFzAVBgNVBAoTDkFudGhyb3BpYywgUEJDMSkwJwYDVQQDEyBBbnRocm9waWMgQ2xhdWRlIENvbnRlbnQgU2lnbmluZzBZMBMGByqGSM49AgEGCCqGSM49AwEHA0IABJh6CmvLUBgFFNU0vUKlOVtE6djd17L5SuwX0LemFisBM3dkd/3cyjxFA3Qo5S46fX0/ihY0VZ7mfb9KF703t5OjWDBWMA4GA1UdDwEB/wQEAwIHgDAVBgNVHSUEDjAMBgorBgEEAYPoXgIBMAwGA1UdEwEB/wQCMAAwHwYDVR0jBBgwFoAUzlHiBIFOZFsj+OPEz5o+nMHXXMIwCgYIKoZIzj0EAwMDZwAwZAIwMXMdFJ4BetLLVY7ORuE9noqbbAZOZn/aArXyTwFAZfKrPzxF2vPoJNf1+UCdg1XGAjBwX1zd9WGqYkqmL5SFqw1QySjr1zJfpJM9+1rdDwSPLMOPOjKuiXjoU/pUUeG9RwmhY3BhZFkNngAAAAAAAAAAAAAAAAAAAAAAAAAAAAAAAAAAAAAAAAAAAAAAAAAAAAAAAAAAAAAAAAAAAAAAAAAAAAAAAAAAAAAAAAAAAAAAAAAAAAAAAAAAAAAAAAAAAAAAAAAAAAAAAAAAAAAAAAAAAAAAAAAAAAAAAAAAAAAAAAAAAAAAAAAAAAAAAAAAAAAAAAAAAAAAAAAAAAAAAAAAAAAAAAAAAAAAAAAAAAAAAAAAAAAAAAAAAAAAAAAAAAAAAAAAAAAAAAAAAAAAAAAAAAAAAAAAAAAAAAAAAAAAAAAAAAAAAAAAAAAAAAAAAAAAAAAAAAAAAAAAAAAAAAAAAAAAAAAAAAAAAAAAAAAAAAAAAAAAAAAAAAAAAAAAAAAAAAAAAAAAAAAAAAAAAAAAAAAAAAAAAAAAAAAAAAAAAAAAAAAAAAAAAAAAAAAAAAAAAAAAAAAAAAAAAAAAAAAAAAAAAAAAAAAAAAAAAAAAAAAAAAAAAAAAAAAAAAAAAAAAAAAAAAAAAAAAAAAAAAAAAAAAAAAAAAAAAAAAAAAAAAAAAAAAAAAAAAAAAAAAAAAAAAAAAAAAAAAAAAAAAAAAAAAAAAAAAAAAAAAAAAAAAAAAAAAAAAAAAAAAAAAAAAAAAAAAAAAAAAAAAAAAAAAAAAAAAAAAAAAAAAAAAAAAAAAAAAAAAAAAAAAAAAAAAAAAAAAAAAAAAAAAAAAAAAAAAAAAAAAAAAAAAAAAAAAAAAAAAAAAAAAAAAAAAAAAAAAAAAAAAAAAAAAAAAAAAAAAAAAAAAAAAAAAAAAAAAAAAAAAAAAAAAAAAAAAAAAAAAAAAAAAAAAAAAAAAAAAAAAAAAAAAAAAAAAAAAAAAAAAAAAAAAAAAAAAAAAAAAAAAAAAAAAAAAAAAAAAAAAAAAAAAAAAAAAAAAAAAAAAAAAAAAAAAAAAAAAAAAAAAAAAAAAAAAAAAAAAAAAAAAAAAAAAAAAAAAAAAAAAAAAAAAAAAAAAAAAAAAAAAAAAAAAAAAAAAAAAAAAAAAAAAAAAAAAAAAAAAAAAAAAAAAAAAAAAAAAAAAAAAAAAAAAAAAAAAAAAAAAAAAAAAAAAAAAAAAAAAAAAAAAAAAAAAAAAAAAAAAAAAAAAAAAAAAAAAAAAAAAAAAAAAAAAAAAAAAAAAAAAAAAAAAAAAAAAAAAAAAAAAAAAAAAAAAAAAAAAAAAAAAAAAAAAAAAAAAAAAAAAAAAAAAAAAAAAAAAAAAAAAAAAAAAAAAAAAAAAAAAAAAAAAAAAAAAAAAAAAAAAAAAAAAAAAAAAAAAAAAAAAAAAAAAAAAAAAAAAAAAAAAAAAAAAAAAAAAAAAAAAAAAAAAAAAAAAAAAAAAAAAAAAAAAAAAAAAAAAAAAAAAAAAAAAAAAAAAAAAAAAAAAAAAAAAAAAAAAAAAAAAAAAAAAAAAAAAAAAAAAAAAAAAAAAAAAAAAAAAAAAAAAAAAAAAAAAAAAAAAAAAAAAAAAAAAAAAAAAAAAAAAAAAAAAAAAAAAAAAAAAAAAAAAAAAAAAAAAAAAAAAAAAAAAAAAAAAAAAAAAAAAAAAAAAAAAAAAAAAAAAAAAAAAAAAAAAAAAAAAAAAAAAAAAAAAAAAAAAAAAAAAAAAAAAAAAAAAAAAAAAAAAAAAAAAAAAAAAAAAAAAAAAAAAAAAAAAAAAAAAAAAAAAAAAAAAAAAAAAAAAAAAAAAAAAAAAAAAAAAAAAAAAAAAAAAAAAAAAAAAAAAAAAAAAAAAAAAAAAAAAAAAAAAAAAAAAAAAAAAAAAAAAAAAAAAAAAAAAAAAAAAAAAAAAAAAAAAAAAAAAAAAAAAAAAAAAAAAAAAAAAAAAAAAAAAAAAAAAAAAAAAAAAAAAAAAAAAAAAAAAAAAAAAAAAAAAAAAAAAAAAAAAAAAAAAAAAAAAAAAAAAAAAAAAAAAAAAAAAAAAAAAAAAAAAAAAAAAAAAAAAAAAAAAAAAAAAAAAAAAAAAAAAAAAAAAAAAAAAAAAAAAAAAAAAAAAAAAAAAAAAAAAAAAAAAAAAAAAAAAAAAAAAAAAAAAAAAAAAAAAAAAAAAAAAAAAAAAAAAAAAAAAAAAAAAAAAAAAAAAAAAAAAAAAAAAAAAAAAAAAAAAAAAAAAAAAAAAAAAAAAAAAAAAAAAAAAAAAAAAAAAAAAAAAAAAAAAAAAAAAAAAAAAAAAAAAAAAAAAAAAAAAAAAAAAAAAAAAAAAAAAAAAAAAAAAAAAAAAAAAAAAAAAAAAAAAAAAAAAAAAAAAAAAAAAAAAAAAAAAAAAAAAAAAAAAAAAAAAAAAAAAAAAAAAAAAAAAAAAAAAAAAAAAAAAAAAAAAAAAAAAAAAAAAAAAAAAAAAAAAAAAAAAAAAAAAAAAAAAAAAAAAAAAAAAAAAAAAAAAAAAAAAAAAAAAAAAAAAAAAAAAAAAAAAAAAAAAAAAAAAAAAAAAAAAAAAAAAAAAAAAAAAAAAAAAAAAAAAAAAAAAAAAAAAAAAAAAAAAAAAAAAAAAAAAAAAAAAAAAAAAAAAAAAAAAAAAAAAAAAAAAAAAAAAAAAAAAAAAAAAAAAAAAAAAAAAAAAAAAAAAAAAAAAAAAAAAAAAAAAAAAAAAAAAAAAAAAAAAAAAAAAAAAAAAAAAAAAAAAAAAAAAAAAAAAAAAAAAAAAAAAAAAAAAAAAAAAAAAAAAAAAAAAAAAAAAAAAAAAAAAAAAAAAAAAAAAAAAAAAAAAAAAAAAAAAAAAAAAAAAAAAAAAAAAAAAAAAAAAAAAAAAAAAAAAAAAAAAAAAAAAAAAAAAAAAAAAAAAAAAAAAAAAAAAAAAAAAAAAAAAAAAAAAAAAAAAAAAAAAAAAAAAAAAAAAAAAAAAAAAAAAAAAAAAAAAAAAAAAAAAAAAAAAAAAAAAAAAAAAAAAAAAAAAAAAAAAAAAAAAAAAAAAAAAAAAAAAAAAAAAAAAAAAAAAAAAAAAAAAAAAAAAAAAAAAAAAAAAAAAAAAAAAAAAAAAAAAAAAAAAAAAAAAAAAAAAAAAAAAAAAAAAAAAAAAAAAAAAAAAAAAAAAAAAAAAAAAAAAAAAAAAAAAAAAAAAAAAAAAAAAAAAAAAAAAAAAAAAAAAAAAAAAAAAAAAAAAAAAAAAAAAAAAAAAAAAAAAAAAAAAAAAAAAAAAAAAAAAAAAAAAAAAAAAAAAAAAAAAAAAAAAAAAAAAAAAAAAAAAAAAAAAAAAAAAAAAAAAAAAAAAAAAAAAAAAAAAAAAAAAAAAAAAAAAAAAAAAAAAAAAAAAAAAAAAAAAAAAAAAAAAAAAAAAAAAAAAAAAAAAAAAAAAAAAAAAAAAAAAAAAAAAAAAAAAAAAAAAAAAAAAAAAAAAAAAAAAAAAAAAAAAAAAAAAAAAAAAAAAAAAAAAAAAAAAAAAAAAAAAAAAAAAAAAAAAAAAAAAAAAAAAAAAAAAAAAAAAAAAAAAAAAAAAAAAAAAAAAAAAAAAAAAAAAAAAAAAAAAAAAAAAAAAAAAAAAAAAAAAAAAAAAAAAAAAAAAAAAAAAAAAAAAAAAAAAAAAAAAAAAAAAAAAAAAAAAAAAAAAAAAAAAAAAAAAAAAAAAAAAAAAAAAAAAAAAAAAAAAAAAAAAAAAAAAAAAAAAAAAAAAAAAAAAAAAAAAAAAAAAAAAAAAAAAAAAAAAAAAAAAAAAAAAAAAAAAAAAAAAAAAAAAAAAAAAAAAAAAAAAAAAAAAAAAAAAAAAAAAAAAAAAAAAAAAAAAAAAAAAAAAAAAAAAAAAAAAAAAAAAAAAAAAAAAAAAAAAAAAAAAAAAAAAAAAAAAAAAAAAAAAAAAAAAAAAAAAAAAAAAAAAAAAAAAAAAAAAAAAAAAAAAAAAAAAAAAAAAAAAAAAAAAAAAAAAAAAAAAAAAAAAAAAAAAAAAAAAAAAAAAAAAAAAAAAAAAAAAAAAAAAAAAAAAAAAAAAAAAAAAAAAAAAAAAAAAAAAAAAAAAAAAAAAAAAAAAAAAAAAAAAAAAAAAAAAAAAAAAAAAAAAAAAAAAAAAAAAAAAAAAAAAAAAAAAAAAAAAAAAAAAAAAAAAAAAAAAAAAAAAAAAAAAAAAAAAAAAAAAAAAAAAAAAAAAAAAAAAAAAAAAAAAAAAAAAAAAAAAAAAAAAAAAAAAAAAAAAAAAAAAAAAAAAAAAAAAAAAAAAAAAAAAAAAAAAAAAAAAAAAAAAAAAAAAAAAAAAAAAAAAAAAAAAAAAAAAAAAAAAAAAAAAAAAAAAAAAAAAAAAAAAAAAAAAAAAAAAAAAAAAAAAAAAAAAAAAAAAAAAAAAAAAAAAAAAAAAAAAAAAAAAAAAAAAAAAAAAAAAAAAAAAAAAAAAAAAAAAAAAAAAAAAAAAAAAAAAAAAAAAAAAAAAAAAAAAAAAAAAAAAAAAAAAAAAAAAAAAAAAAAAAAAAAAAAAAAAAAAAAAAAAAAAAAAAAAAAAAAAAAAAAAAAAAAAAAAAAAAAAAAAAAAAAAAAAAAAAAAAAAAAAAAAAAAAAAAAAAAAAAAAAAAAAAAAAAAAAAAAAAAAAAAAAAAAAAAAAAAAAAAAAAAAAAAAAAAAAAAAAAAAAAAAAAAAAAAAAAAAAAAAAAAAAAAAAAAAAAAAAAAAAAAAAAAAAAAAAAAAAAAAAAAAAAAAAAAAAAAAAAAAAAPZYQJtHHnncfnbtIrHrsyc8AcDH8eohErEiqslKRDllOOh0bpWrD12RFrRJpyWPcqvUaYnbQonaqE65QQvBTAc9XsI=</c2pa:manifest></metadata><svg x="0" y="0" width="64" height="64" viewBox="0 0 64 64"><path d="M28.53 36A3.47 3.47 0 1 0 35.47 36A3.47 3.47 0 1 0 28.53 36Z" fill="#2B2B3A" stroke="#2B2B3A" stroke-width="3.6" stroke-linejoin="round"></path><path d="M26.18 37.12A2.46 2.46 0 1 0 31.1 37.12A2.46 2.46 0 1 0 26.18 37.12Z" fill="#2B2B3A" stroke="#2B2B3A" stroke-width="3.6" stroke-linejoin="round"></path><path d="M32.95 37.23A2.52 2.52 0 1 0 37.99 37.23A2.52 2.52 0 1 0 32.95 37.23Z" fill="#2B2B3A" stroke="#2B2B3A" stroke-width="3.6" stroke-linejoin="round"></path><path d="M28.08 33.31A2.24 2.24 0 1 0 32.56 33.31A2.24 2.24 0 1 0 28.08 33.31Z" fill="#2B2B3A" stroke="#2B2B3A" stroke-width="3.6" stroke-linejoin="round"></path><path d="M31.66 33.42A2.24 2.24 0 1 0 36.14 33.42A2.24 2.24 0 1 0 31.66 33.42Z" fill="#2B2B3A" stroke="#2B2B3A" stroke-width="3.6" stroke-linejoin="round"></path><path d="M29.87 38.35A2.13 2.13 0 1 0 34.13 38.35A2.13 2.13 0 1 0 29.87 38.35Z" fill="#2B2B3A" stroke="#2B2B3A" stroke-width="3.6" stroke-linejoin="round"></path><path d="M28.53 36A3.47 3.47 0 1 0 35.47 36A3.47 3.47 0 1 0 28.53 36Z" fill="#FFF4DC"></path><path d="M26.18 37.12A2.46 2.46 0 1 0 31.1 37.12A2.46 2.46 0 1 0 26.18 37.12Z" fill="#FFF4DC"></path><path d="M32.95 37.23A2.52 2.52 0 1 0 37.99 37.23A2.52 2.52 0 1 0 32.95 37.23Z" fill="#FFF4DC"></path><path d="M28.08 33.31A2.24 2.24 0 1 0 32.56 33.31A2.24 2.24 0 1 0 28.08 33.31Z" fill="#FFF4DC"></path><path d="M31.66 33.42A2.24 2.24 0 1 0 36.14 33.42A2.24 2.24 0 1 0 31.66 33.42Z" fill="#FFF4DC"></path><path d="M29.87 38.35A2.13 2.13 0 1 0 34.13 38.35A2.13 2.13 0 1 0 29.87 38.35Z" fill="#FFF4DC"></path><path d="M26.25 31.52Q26.29 31.41 26.33 31.52L26.57 32.2Q26.61 32.32 26.72 32.36L27.4 32.6Q27.52 32.64 27.4 32.68L26.72 32.92Q26.61 32.96 26.57 33.08L26.33 33.76Q26.29 33.87 26.25 33.76L26.01 33.08Q25.97 32.96 25.85 32.92L25.17 32.68Q25.06 32.64 25.17 32.6L25.85 32.36Q25.97 32.32 26.01 32.2Z" fill="#2B2B3A" stroke="#2B2B3A" stroke-width="2.4" stroke-linejoin="round"></path><path d="M37.57 31.06Q37.6 30.96 37.63 31.06L37.83 31.61Q37.86 31.71 37.96 31.74L38.51 31.93Q38.61 31.97 38.51 32L37.96 32.2Q37.86 32.23 37.83 32.33L37.63 32.88Q37.6 32.98 37.57 32.88L37.37 32.33Q37.34 32.23 37.24 32.2L36.69 32Q36.59 31.97 36.69 31.93L37.24 31.74Q37.34 31.71 37.37 31.61Z" fill="#2B2B3A" stroke="#2B2B3A" stroke-width="2.4" stroke-linejoin="round"></path><path d="M26.25 31.52Q26.29 31.41 26.33 31.52L26.57 32.2Q26.61 32.32 26.72 32.36L27.4 32.6Q27.52 32.64 27.4 32.68L26.72 32.92Q26.61 32.96 26.57 33.08L26.33 33.76Q26.29 33.87 26.25 33.76L26.01 33.08Q25.97 32.96 25.85 32.92L25.17 32.68Q25.06 32.64 25.17 32.6L25.85 32.36Q25.97 32.32 26.01 32.2Z" fill="#FFF0B0"></path><path d="M37.57 31.06Q37.6 30.96 37.63 31.06L37.83 31.61Q37.86 31.71 37.96 31.74L38.51 31.93Q38.61 31.97 38.51 32L37.96 32.2Q37.86 32.23 37.83 32.33L37.63 32.88Q37.6 32.98 37.57 32.88L37.37 32.33Q37.34 32.23 37.24 32.2L36.69 32Q36.59 31.97 36.69 31.93L37.24 31.74Q37.34 31.71 37.37 31.61Z" fill="#FFF0B0"></path></svg><svg x="64" y="0" width="64" height="64" viewBox="0 0 64 64"><path d="M25.06 36A6.94 6.94 0 1 0 38.94 36A6.94 6.94 0 1 0 25.06 36Z" fill="#2B2B3A" stroke="#2B2B3A" stroke-width="3.6" stroke-linejoin="round"></path><path d="M20.35 38.24A4.93 4.93 0 1 0 30.21 38.24A4.93 4.93 0 1 0 20.35 38.24Z" fill="#2B2B3A" stroke="#2B2B3A" stroke-width="3.6" stroke-linejoin="round"></path><path d="M33.9 38.46A5.04 5.04 0 1 0 43.98 38.46A5.04 5.04 0 1 0 33.9 38.46Z" fill="#2B2B3A" stroke="#2B2B3A" stroke-width="3.6" stroke-linejoin="round"></path><path d="M24.16 30.62A4.48 4.48 0 1 0 33.12 30.62A4.48 4.48 0 1 0 24.16 30.62Z" fill="#2B2B3A" stroke="#2B2B3A" stroke-width="3.6" stroke-linejoin="round"></path><path d="M31.33 30.85A4.48 4.48 0 1 0 40.29 30.85A4.48 4.48 0 1 0 31.33 30.85Z" fill="#2B2B3A" stroke="#2B2B3A" stroke-width="3.6" stroke-linejoin="round"></path><path d="M27.74 40.7A4.26 4.26 0 1 0 36.26 40.7A4.26 4.26 0 1 0 27.74 40.7Z" fill="#2B2B3A" stroke="#2B2B3A" stroke-width="3.6" stroke-linejoin="round"></path><path d="M25.06 36A6.94 6.94 0 1 0 38.94 36A6.94 6.94 0 1 0 25.06 36Z" fill="#FFF4DC"></path><path d="M20.35 38.24A4.93 4.93 0 1 0 30.21 38.24A4.93 4.93 0 1 0 20.35 38.24Z" fill="#FFF4DC"></path><path d="M33.9 38.46A5.04 5.04 0 1 0 43.98 38.46A5.04 5.04 0 1 0 33.9 38.46Z" fill="#FFF4DC"></path><path d="M24.16 30.62A4.48 4.48 0 1 0 33.12 30.62A4.48 4.48 0 1 0 24.16 30.62Z" fill="#FFF4DC"></path><path d="M31.33 30.85A4.48 4.48 0 1 0 40.29 30.85A4.48 4.48 0 1 0 31.33 30.85Z" fill="#FFF4DC"></path><path d="M27.74 40.7A4.26 4.26 0 1 0 36.26 40.7A4.26 4.26 0 1 0 27.74 40.7Z" fill="#FFF4DC"></path><path d="M20.49 27.05Q20.58 26.82 20.66 27.05L21.13 28.41Q21.22 28.64 21.45 28.72L22.81 29.2Q23.04 29.28 22.81 29.36L21.45 29.84Q21.22 29.92 21.13 30.15L20.66 31.51Q20.58 31.74 20.49 31.51L20.02 30.15Q19.94 29.92 19.7 29.84L18.34 29.36Q18.11 29.28 18.34 29.2L19.7 28.72Q19.94 28.64 20.02 28.41Z" fill="#2B2B3A" stroke="#2B2B3A" stroke-width="2.4" stroke-linejoin="round"></path><path d="M43.13 26.11Q43.2 25.92 43.27 26.11L43.66 27.22Q43.72 27.41 43.91 27.48L45.03 27.87Q45.22 27.94 45.03 28L43.91 28.39Q43.72 28.46 43.66 28.65L43.27 29.76Q43.2 29.95 43.13 29.76L42.74 28.65Q42.68 28.46 42.49 28.39L41.37 28Q41.18 27.94 41.37 27.87L42.49 27.48Q42.68 27.41 42.74 27.22Z" fill="#2B2B3A" stroke="#2B2B3A" stroke-width="2.4" stroke-linejoin="round"></path><path d="M20.49 27.05Q20.58 26.82 20.66 27.05L21.13 28.41Q21.22 28.64 21.45 28.72L22.81 29.2Q23.04 29.28 22.81 29.36L21.45 29.84Q21.22 29.92 21.13 30.15L20.66 31.51Q20.58 31.74 20.49 31.51L20.02 30.15Q19.94 29.92 19.7 29.84L18.34 29.36Q18.11 29.28 18.34 29.2L19.7 28.72Q19.94 28.64 20.02 28.41Z" fill="#FFF0B0"></path><path d="M43.13 26.11Q43.2 25.92 43.27 26.11L43.66 27.22Q43.72 27.41 43.91 27.48L45.03 27.87Q45.22 27.94 45.03 28L43.91 28.39Q43.72 28.46 43.66 28.65L43.27 29.76Q43.2 29.95 43.13 29.76L42.74 28.65Q42.68 28.46 42.49 28.39L41.37 28Q41.18 27.94 41.37 27.87L42.49 27.48Q42.68 27.41 42.74 27.22Z" fill="#FFF0B0"></path></svg><svg x="128" y="0" width="64" height="64" viewBox="0 0 64 64"><path d="M22.08 36A9.92 9.92 0 1 0 41.92 36A9.92 9.92 0 1 0 22.08 36Z" fill="#2B2B3A" stroke="#2B2B3A" stroke-width="3.6" stroke-linejoin="round"></path><path d="M15.36 39.2A7.04 7.04 0 1 0 29.44 39.2A7.04 7.04 0 1 0 15.36 39.2Z" fill="#2B2B3A" stroke="#2B2B3A" stroke-width="3.6" stroke-linejoin="round"></path><path d="M34.72 39.52A7.2 7.2 0 1 0 49.12 39.52A7.2 7.2 0 1 0 34.72 39.52Z" fill="#2B2B3A" stroke="#2B2B3A" stroke-width="3.6" stroke-linejoin="round"></path><path d="M20.8 28.32A6.4 6.4 0 1 0 33.6 28.32A6.4 6.4 0 1 0 20.8 28.32Z" fill="#2B2B3A" stroke="#2B2B3A" stroke-width="3.6" stroke-linejoin="round"></path><path d="M31.04 28.64A6.4 6.4 0 1 0 43.84 28.64A6.4 6.4 0 1 0 31.04 28.64Z" fill="#2B2B3A" stroke="#2B2B3A" stroke-width="3.6" stroke-linejoin="round"></path><path d="M25.92 42.72A6.08 6.08 0 1 0 38.08 42.72A6.08 6.08 0 1 0 25.92 42.72Z" fill="#2B2B3A" stroke="#2B2B3A" stroke-width="3.6" stroke-linejoin="round"></path><path d="M22.08 36A9.92 9.92 0 1 0 41.92 36A9.92 9.92 0 1 0 22.08 36Z" fill="#FFF4DC"></path><path d="M15.36 39.2A7.04 7.04 0 1 0 29.44 39.2A7.04 7.04 0 1 0 15.36 39.2Z" fill="#FFF4DC"></path><path d="M34.72 39.52A7.2 7.2 0 1 0 49.12 39.52A7.2 7.2 0 1 0 34.72 39.52Z" fill="#FFF4DC"></path><path d="M20.8 28.32A6.4 6.4 0 1 0 33.6 28.32A6.4 6.4 0 1 0 20.8 28.32Z" fill="#FFF4DC"></path><path d="M31.04 28.64A6.4 6.4 0 1 0 43.84 28.64A6.4 6.4 0 1 0 31.04 28.64Z" fill="#FFF4DC"></path><path d="M25.92 42.72A6.08 6.08 0 1 0 38.08 42.72A6.08 6.08 0 1 0 25.92 42.72Z" fill="#FFF4DC"></path><path d="M15.56 23.21Q15.68 22.88 15.8 23.21L16.48 25.15Q16.6 25.48 16.93 25.6L18.87 26.28Q19.2 26.4 18.87 26.52L16.93 27.2Q16.6 27.32 16.48 27.65L15.8 29.59Q15.68 29.92 15.56 29.59L14.88 27.65Q14.76 27.32 14.43 27.2L12.49 26.52Q12.16 26.4 12.49 26.28L14.43 25.6Q14.76 25.48 14.88 25.15Z" fill="#2B2B3A" stroke="#2B2B3A" stroke-width="2.4" stroke-linejoin="round"></path><path d="M47.9 21.87Q48 21.6 48.1 21.87L48.65 23.46Q48.75 23.73 49.02 23.83L50.61 24.38Q50.88 24.48 50.61 24.58L49.02 25.13Q48.75 25.23 48.65 25.5L48.1 27.09Q48 27.36 47.9 27.09L47.35 25.5Q47.25 25.23 46.98 25.13L45.39 24.58Q45.12 24.48 45.39 24.38L46.98 23.83Q47.25 23.73 47.35 23.46Z" fill="#2B2B3A" stroke="#2B2B3A" stroke-width="2.4" stroke-linejoin="round"></path><path d="M15.56 23.21Q15.68 22.88 15.8 23.21L16.48 25.15Q16.6 25.48 16.93 25.6L18.87 26.28Q19.2 26.4 18.87 26.52L16.93 27.2Q16.6 27.32 16.48 27.65L15.8 29.59Q15.68 29.92 15.56 29.59L14.88 27.65Q14.76 27.32 14.43 27.2L12.49 26.52Q12.16 26.4 12.49 26.28L14.43 25.6Q14.76 25.48 14.88 25.15Z" fill="#FFF0B0"></path><path d="M47.9 21.87Q48 21.6 48.1 21.87L48.65 23.46Q48.75 23.73 49.02 23.83L50.61 24.38Q50.88 24.48 50.61 24.58L49.02 25.13Q48.75 25.23 48.65 25.5L48.1 27.09Q48 27.36 47.9 27.09L47.35 25.5Q47.25 25.23 46.98 25.13L45.39 24.58Q45.12 24.48 45.39 24.38L46.98 23.83Q47.25 23.73 47.35 23.46Z" fill="#FFF0B0"></path></svg><svg x="192" y="0" width="64" height="64" viewBox="0 0 64 64"><path d="M21.58 36A10.42 10.42 0 1 0 42.42 36A10.42 10.42 0 1 0 21.58 36Z" fill="#2B2B3A" stroke="#2B2B3A" stroke-width="3.6" stroke-linejoin="round"></path><path d="M14.53 39.36A7.39 7.39 0 1 0 29.31 39.36A7.39 7.39 0 1 0 14.53 39.36Z" fill="#2B2B3A" stroke="#2B2B3A" stroke-width="3.6" stroke-linejoin="round"></path><path d="M34.86 39.7A7.56 7.56 0 1 0 49.98 39.7A7.56 7.56 0 1 0 34.86 39.7Z" fill="#2B2B3A" stroke="#2B2B3A" stroke-width="3.6" stroke-linejoin="round"></path><path d="M20.24 27.94A6.72 6.72 0 1 0 33.68 27.94A6.72 6.72 0 1 0 20.24 27.94Z" fill="#2B2B3A" stroke="#2B2B3A" stroke-width="3.6" stroke-linejoin="round"></path><path d="M30.99 28.27A6.72 6.72 0 1 0 44.43 28.27A6.72 6.72 0 1 0 30.99 28.27Z" fill="#2B2B3A" stroke="#2B2B3A" stroke-width="3.6" stroke-linejoin="round"></path><path d="M25.62 43.06A6.38 6.38 0 1 0 38.38 43.06A6.38 6.38 0 1 0 25.62 43.06Z" fill="#2B2B3A" stroke="#2B2B3A" stroke-width="3.6" stroke-linejoin="round"></path><path d="M21.58 36A10.42 10.42 0 1 0 42.42 36A10.42 10.42 0 1 0 21.58 36Z" fill="#FFF4DC"></path><path d="M14.53 39.36A7.39 7.39 0 1 0 29.31 39.36A7.39 7.39 0 1 0 14.53 39.36Z" fill="#FFF4DC"></path><path d="M34.86 39.7A7.56 7.56 0 1 0 49.98 39.7A7.56 7.56 0 1 0 34.86 39.7Z" fill="#FFF4DC"></path><path d="M20.24 27.94A6.72 6.72 0 1 0 33.68 27.94A6.72 6.72 0 1 0 20.24 27.94Z" fill="#FFF4DC"></path><path d="M30.99 28.27A6.72 6.72 0 1 0 44.43 28.27A6.72 6.72 0 1 0 30.99 28.27Z" fill="#FFF4DC"></path><path d="M25.62 43.06A6.38 6.38 0 1 0 38.38 43.06A6.38 6.38 0 1 0 25.62 43.06Z" fill="#FFF4DC"></path><path d="M14.74 22.57Q14.86 22.22 14.99 22.57L15.7 24.61Q15.82 24.96 16.17 25.08L18.21 25.8Q18.56 25.92 18.21 26.04L16.17 26.76Q15.82 26.88 15.7 27.23L14.99 29.27Q14.86 29.62 14.74 29.27L14.03 27.23Q13.9 26.88 13.55 26.76L11.52 26.04Q11.17 25.92 11.52 25.8L13.55 25.08Q13.9 24.96 14.03 24.61Z" fill="#2B2B3A" stroke="#2B2B3A" stroke-width="2.4" stroke-linejoin="round"></path><path d="M48.7 21.17Q48.8 20.88 48.9 21.17L49.49 22.83Q49.59 23.12 49.87 23.22L51.54 23.8Q51.82 23.9 51.54 24L49.87 24.59Q49.59 24.69 49.49 24.98L48.9 26.64Q48.8 26.93 48.7 26.64L48.11 24.98Q48.01 24.69 47.73 24.59L46.06 24Q45.78 23.9 46.06 23.8L47.73 23.22Q48.01 23.12 48.11 22.83Z" fill="#2B2B3A" stroke="#2B2B3A" stroke-width="2.4" stroke-linejoin="round"></path><path d="M14.74 22.57Q14.86 22.22 14.99 22.57L15.7 24.61Q15.82 24.96 16.17 25.08L18.21 25.8Q18.56 25.92 18.21 26.04L16.17 26.76Q15.82 26.88 15.7 27.23L14.99 29.27Q14.86 29.62 14.74 29.27L14.03 27.23Q13.9 26.88 13.55 26.76L11.52 26.04Q11.17 25.92 11.52 25.8L13.55 25.08Q13.9 24.96 14.03 24.61Z" fill="#FFF0B0"></path><path d="M48.7 21.17Q48.8 20.88 48.9 21.17L49.49 22.83Q49.59 23.12 49.87 23.22L51.54 23.8Q51.82 23.9 51.54 24L49.87 24.59Q49.59 24.69 49.49 24.98L48.9 26.64Q48.8 26.93 48.7 26.64L48.11 24.98Q48.01 24.69 47.73 24.59L46.06 24Q45.78 23.9 46.06 23.8L47.73 23.22Q48.01 23.12 48.11 22.83Z" fill="#FFF0B0"></path></svg><svg x="256" y="0" width="64" height="64" viewBox="0 0 64 64"><path d="M15 36A5 5 0 1 0 25 36A5 5 0 1 0 15 36Z" fill="#2B2B3A" stroke="#2B2B3A" stroke-width="3.6" stroke-linejoin="round"></path><path d="M40 30A4 4 0 1 0 48 30A4 4 0 1 0 40 30Z" fill="#2B2B3A" stroke="#2B2B3A" stroke-width="3.6" stroke-linejoin="round"></path><path d="M30.5 48A3.5 3.5 0 1 0 37.5 48A3.5 3.5 0 1 0 30.5 48Z" fill="#2B2B3A" stroke="#2B2B3A" stroke-width="3.6" stroke-linejoin="round"></path><path d="M15 36A5 5 0 1 0 25 36A5 5 0 1 0 15 36Z" fill="#FFF4DC"></path><path d="M40 30A4 4 0 1 0 48 30A4 4 0 1 0 40 30Z" fill="#FFF4DC"></path><path d="M30.5 48A3.5 3.5 0 1 0 37.5 48A3.5 3.5 0 1 0 30.5 48Z" fill="#FFF4DC"></path></svg></svg>