<svg xmlns="http://www.w3.org/2000/svg" width="192" height="192" viewBox="0 0 192 192" xmlns:c2pa="http://c2pa.org/manifest"><metadata><c2pa:manifest>AAAWgmp1bWIAAAAeanVtZGMycGEAEQAQgAAAqgA4m3EDYzJwYQAAABZcanVtYgAAAEdqdW1kYzJtYQARABCAAACqADibcQN1cm46YzJwYTozMTkzMDBkZS0zMWQ0LTRjNzgtYTE0Yy00NDg0MjQ1ZTQ3NTUAAAADl2p1bWIAAAApanVtZGMyYXMAEQAQgAAAqgA4m3EDYzJwYS5hc3NlcnRpb25zAAAAALxqdW1iAAAARGp1bWRjYm9yABEAEIAAAKoAOJtxE2MycGEuaW5ncmVkaWVudC52MwAAAAAYYzJzaHe8p97vGhuaB3ref211zqgAAABwY2JvcqNpZGM6Zm9ybWF0bWltYWdlL3N2Zyt4bWxqaW5zdGFuY2VJRHgseG1wOmlpZDo4NjQwY2Y3Ni05ZWI4LTRjOTMtOGFlZC04Mjk1YjBhNGI1YmNscmVsYXRpb25zaGlwaHBhcmVudE9mAAAB4mp1bWIAAABBanVtZGNib3IAEQAQgAAAqgA4m3ETYzJwYS5hY3Rpb25zLnYyAAAAABhjMnNoJSli6m5saX/iom30MZ8BrQAAAZljYm9yomdhY3Rpb25zgqJmYWN0aW9ua2MycGEub3BlbmVkanBhcmFtZXRlcnOha2luZ3JlZGllbnRzgaJjdXJseC1zZWxmI2p1bWJmPWMycGEuYXNzZXJ0aW9ucy9jMnBhLmluZ3JlZGllbnQudjNkaGFzaFgg3WHgY+d4irbr2xAkM7l0jW8sA0Mf21heMpfadEl+PO6kZmFjdGlvbngdY29tLmFudGhyb3BpYy5jbGF1ZGUucHJvdmlkZWRqcGFyYW1ldGVyc6F4H2NvbS5hbnRocm9waWMub3JpZ2luLWNvbmZpZGVuY2VndW5rbm93bmtkZXNjcmlwdGlvbnhmQ2xhdWRlIHByb3ZpZGVkIHRoaXMgZmlsZSBhdCB0aGUgcmVxdWVzdCBvZiBhIHVzZXIgYW5kIG1heSBoYXZlIGNyZWF0ZWQgb3IgbW9kaWZpZWQgdGhlIGZpbGUgY29udGVudHMubXNvZnR3YXJlQWdlbnShZG5hbWVmQ2xhdWRlcmFsbEFjdGlvbnNJbmNsdWRlZPUAAADIanVtYgAAAEBqdW1kY2JvcgARABCAAACqADibcRNjMnBhLmhhc2guZGF0YQAAAAAYYzJzaNB1c85G2J/0rGoVtWksbNgAAACAY2JvcqVjYWxnZnNoYTI1NmNwYWRNAAAAAAAAAAAAAAAAAGRoYXNoWCBZHrFNCKqhZ5iR7h9qc+jijLhJGG8mxNHluX3p9lGNZGRuYW1lbmp1bWJmIG1hbmlmZXN0amV4Y2x1c2lvbnOBomVzdGFydBiWZmxlbmd0aBkeBAAAAj5qdW1iAAAAJ2p1bWRjMmNsABEAEIAAAKoAOJtxA2MycGEuY2xhaW0udjIAAAACD2Nib3KlY2FsZ2ZzaGEyNTZpc2lnbmF0dXJleE1zZWxmI2p1bWJmPS9jMnBhL3VybjpjMnBhOjMxOTMwMGRlLTMxZDQtNGM3OC1hMTRjLTQ0ODQyNDVlNDc1NS9jMnBhLnNpZ25hdHVyZWppbnN0YW5jZUlEeCx4bXA6aWlkOjVlOWU2ODU0LWI5YWYtNDY3OS1iYWNmLWY0Mzc5YTk1NGY0YnJjcmVhdGVkX2Fzc2VydGlvbnODomN1cmx4LXNlbGYjanVtYmY9YzJwYS5hc3NlcnRpb25zL2MycGEuaW5ncmVkaWVudC52M2RoYXNoWCDdYeBj53iKtuvbECQzuXSNbywDQx/bWF4yl9p0SX487qJjdXJseCpzZWxmI2p1bWJmPWMycGEuYXNzZXJ0aW9ucy9jMnBhLmFjdGlvbnMudjJkaGFzaFggKFXWVBWyAD12uGWKf95rbN2nEqucSMdZwk4jVrUQpfKiY3VybHgpc2VsZiNqdW1iZj1jMnBhLmFzc2VydGlvbnMvYzJwYS5oYXNoLmRhdGFkaGFzaFggbUUH/DdZQgIXp7/AD2i0ZKVMuTMyQNnzdaDiAGHFnZp0Y2xhaW1fZ2VuZXJhdG9yX2luZm+jZG5hbWVvQW50aHJvcGljIEZpbGVzZ3ZlcnNpb25lMS4wLjBrc3BlY1ZlcnNpb25lMi40LjAAABA4anVtYgAAAChqdW1kYzJjcwARABCAAACqADibcQNjMnBhLnNpZ25hdHVyZQAAABAIY2JvctKEWQISogEmGCFZAgowggIGMIIBjaADAgECAhRA5aAK7sI50L64g/oGQgU9Z1UTADAKBggqhkjOPQQDAzBJMRcwFQYDVQQKEw5BbnRocm9waWMsIFBCQzEuMCwGA1UEAxMlQW50aHJvcGljIENvbnRlbnQgQ3JlZGVudGlhbHMgUm9vdCBDQTAeFw0yNjA4MDcxODQzNTZaFw0yODA4MDYxOTQzNTZaMEQxFzAVBgNVBAoTDkFudGhyb3BpYywgUEJDMSkwJwYDVQQDEyBBbnRocm9waWMgQ2xhdWRlIENvbnRlbnQgU2lnbmluZzBZMBMGByqGSM49AgEGCCqGSM49AwEHA0IABJh6CmvLUBgFFNU0vUKlOVtE6djd17L5SuwX0LemFisBM3dkd/3cyjxFA3Qo5S46fX0/ihY0VZ7mfb9KF703t5OjWDBWMA4GA1UdDwEB/wQEAwIHgDAVBgNVHSUEDjAMBgorBgEEAYPoXgIBMAwGA1UdEwEB/wQCMAAwHwYDVR0jBBgwFoAUzlHiBIFOZFsj+OPEz5o+nMHXXMIwCgYIKoZIzj0EAwMDZwAwZAIwMXMdFJ4BetLLVY7ORuE9noqbbAZOZn/aArXyTwFAZfKrPzxF2vPoJNf1+UCdg1XGAjBwX1zd9WGqYkqmL5SFqw1QySjr1zJfpJM9+1rdDwSPLMOPOjKuiXjoU/pUUeG9RwmhY3BhZFkNngAAAAAAAAAAAAAAAAAAAAAAAAAAAAAAAAAAAAAAAAAAAAAAAAAAAAAAAAAAAAAAAAAAAAAAAAAAAAAAAAAAAAAAAAAAAAAAAAAAAAAAAAAAAAAAAAAAAAAAAAAAAAAAAAAAAAAAAAAAAAAAAAAAAAAAAAAAAAAAAAAAAAAAAAAAAAAAAAAAAAAAAAAAAAAAAAAAAAAAAAAAAAAAAAAAAAAAAAAAAAAAAAAAAAAAAAAAAAAAAAAAAAAAAAAAAAAAAAAAAAAAAAAAAAAAAAAAAAAAAAAAAAAAAAAAAAAAAAAAAAAAAAAAAAAAAAAAAAAAAAAAAAAAAAAAAAAAAAAAAAAAAAAAAAAAAAAAAAAAAAAAAAAAAAAAAAAAAAAAAAAAAAAAAAAAAAAAAAAAAAAAAAAAAAAAAAAAAAAAAAAAAAAAAAAAAAAAAAAAAAAAAAAAAAAAAAAAAAAAAAAAAAAAAAAAAAAAAAAAAAAAAAAAAAAAAAAAAAAAAAAAAAAAAAAAAAAAAAAAAAAAAAAAAAAAAAAAAAAAAAAAAAAAAAAAAAAAAAAAAAAAAAAAAAAAAAAAAAAAAAAAAAAAAAAAAAAAAAAAAAAAAAAAAAAAAAAAAAAAAAAAAAAAAAAAAAAAAAAAAAAAAAAAAAAAAAAAAAAAAAAAAAAAAAAAAAAAAAAAAAAAAAAAAAAAAAAAAAAAAAAAAAAAAAAAAAAAAAAAAAAAAAAAAAAAAAAAAAAAAAAAAAAAAAAAAAAAAAAAAAAAAAAAAAAAAAAAAAAAAAAAAAAAAAAAAAAAAAAAAAAAAAAAAAAAAAAAAAAAAAAAAAAAAAAAAAAAAAAAAAAAAAAAAAAAAAAAAAAAAAAAAAAAAAAAAAAAAAAAAAAAAAAAAAAAAAAAAAAAAAAAAAAAAAAAAAAAAAAAAAAAAAAAAAAAAAAAAAAAAAAAAAAAAAAAAAAAAAAAAAAAAAAAAAAAAAAAAAAAAAAAAAAAAAAAAAAAAAAAAAAAAAAAAAAAAAAAAAAAAAAAAAAAAAAAAAAAAAAAAAAAAAAAAAAAAAAAAAAAAAAAAAAAAAAAAAAAAAAAAAAAAAAAAAAAAAAAAAAAAAAAAAAAAAAAAAAAAAAAAAAAAAAAAAAAAAAAAAAAAAAAAAAAAAAAAAAAAAAAAAAAAAAAAAAAAAAAAAAAAAAAAAAAAAAAAAAAAAAAAAAAAAAAAAAAAAAAAAAAAAAAAAAAAAAAAAAAAAAAAAAAAAAAAAAAAAAAAAAAAAAAAAAAAAAAAAAAAAAAAAAAAAAAAAAAAAAAAAAAAAAAAAAAAAAAAAAAAAAAAAAAAAAAAAAAAAAAAAAAAAAAAAAAAAAAAAAAAAAAAAAAAAAAAAAAAAAAAAAAAAAAAAAAAAAAAAAAAAAAAAAAAAAAAAAAAAAAAAAAAAAAAAAAAAAAAAAAAAAAAAAAAAAAAAAAAAAAAAAAAAAAAAAAAAAAAAAAAAAAAAAAAAAAAAAAAAAAAAAAAAAAAAAAAAAAAAAAAAAAAAAAAAAAAAAAAAAAAAAAAAAAAAAAAAAAAAAAAAAAAAAAAAAAAAAAAAAAAAAAAAAAAAAAAAAAAAAAAAAAAAAAAAAAAAAAAAAAAAAAAAAAAAAAAAAAAAAAAAAAAAAAAAAAAAAAAAAAAAAAAAAAAAAAAAAAAAAAAAAAAAAAAAAAAAAAAAAAAAAAAAAAAAAAAAAAAAAAAAAAAAAAAAAAAAAAAAAAAAAAAAAAAAAAAAAAAAAAAAAAAAAAAAAAAAAAAAAAAAAAAAAAAAAAAAAAAAAAAAAAAAAAAAAAAAAAAAAAAAAAAAAAAAAAAAAAAAAAAAAAAAAAAAAAAAAAAAAAAAAAAAAAAAAAAAAAAAAAAAAAAAAAAAAAAAAAAAAAAAAAAAAAAAAAAAAAAAAAAAAAAAAAAAAAAAAAAAAAAAAAAAAAAAAAAAAAAAAAAAAAAAAAAAAAAAAAAAAAAAAAAAAAAAAAAAAAAAAAAAAAAAAAAAAAAAAAAAAAAAAAAAAAAAAAAAAAAAAAAAAAAAAAAAAAAAAAAAAAAAAAAAAAAAAAAAAAAAAAAAAAAAAAAAAAAAAAAAAAAAAAAAAAAAAAAAAAAAAAAAAAAAAAAAAAAAAAAAAAAAAAAAAAAAAAAAAAAAAAAAAAAAAAAAAAAAAAAAAAAAAAAAAAAAAAAAAAAAAAAAAAAAAAAAAAAAAAAAAAAAAAAAAAAAAAAAAAAAAAAAAAAAAAAAAAAAAAAAAAAAAAAAAAAAAAAAAAAAAAAAAAAAAAAAAAAAAAAAAAAAAAAAAAAAAAAAAAAAAAAAAAAAAAAAAAAAAAAAAAAAAAAAAAAAAAAAAAAAAAAAAAAAAAAAAAAAAAAAAAAAAAAAAAAAAAAAAAAAAAAAAAAAAAAAAAAAAAAAAAAAAAAAAAAAAAAAAAAAAAAAAAAAAAAAAAAAAAAAAAAAAAAAAAAAAAAAAAAAAAAAAAAAAAAAAAAAAAAAAAAAAAAAAAAAAAAAAAAAAAAAAAAAAAAAAAAAAAAAAAAAAAAAAAAAAAAAAAAAAAAAAAAAAAAAAAAAAAAAAAAAAAAAAAAAAAAAAAAAAAAAAAAAAAAAAAAAAAAAAAAAAAAAAAAAAAAAAAAAAAAAAAAAAAAAAAAAAAAAAAAAAAAAAAAAAAAAAAAAAAAAAAAAAAAAAAAAAAAAAAAAAAAAAAAAAAAAAAAAAAAAAAAAAAAAAAAAAAAAAAAAAAAAAAAAAAAAAAAAAAAAAAAAAAAAAAAAAAAAAAAAAAAAAAAAAAAAAAAAAAAAAAAAAAAAAAAAAAAAAAAAAAAAAAAAAAAAAAAAAAAAAAAAAAAAAAAAAAAAAAAAAAAAAAAAAAAAAAAAAAAAAAAAAAAAAAAAAAAAAAAAAAAAAAAAAAAAAAAAAAAAAAAAAAAAAAAAAAAAAAAAAAAAAAAAAAAAAAAAAAAAAAAAAAAAAAAAAAAAAAAAAAAAAAAAAAAAAAAAAAAAAAAAAAAAAAAAAAAAAAAAAAAAAAAAAAAAAAAAAAAAAAAAAAAAAAAAAAAAAAAAAAAAAAAAAAAAAAAAAAAAAAAAAAAAAAAAAAAAAAAAAAAAAAAAAAAAAAAAAAAAAAAAAAAAAAAAAAAAAAAAAAAAAAAAAAAAAAAAAAAAAAAAAAAAAAAAAAAAAAAAAAAAAAAAAAAAAAAAAAAAAAAAAAAAAAAAAAAAAAAAAAAAAAAAAAAAAAAAAAAAAAAAAAAAAAAAAAAAAAAAAAAAAAAAAAAAAAAAAAAAAAAAAAAAAAAAAAAAAAAAAAAAAAAAAAAAAAAAAAAAAAAAAAAAAAAAAAAAAAAAAAAAAAAAAAAAAAAAAAAAAAAAAAAAAAAAAAAAAAAAAAAAAAAAAAAAAAAAAAAAAAAAAAAAAAAAAAAAAAAAAAAAAAAAAAAAAAAAAAAAAAAAAAAAAAAAAAAAAAAAAAAAAAAAAAAAAAAAAAAAAAAAAAAAAAAAAAAAAAAAAAAAAAAAAAAAAAAAAAAAAAAAAAAAAAAAAAAAAAAAAAAAAAAAAAAAAAAAAAAAAAAAAAAAAAAAAAAAAAAAAAAAAAAAAAAAAAAAAAAAAAAAAAAAAAAAAAAAAAAAAAAAAAAAAAAAAAAAAAAAAAAAAAAAAAAAAAAAAAAAAAAAAAAAAAAAAAAAAAAAAAAAAAAAAAAAAAAAAAAAAAAAAAAAAAAAAAAAAAAAAAAAAAAAAAAAAAAAAAAAAAAAAAAAAAAAAAAAAAAAAAAAAAAAAAAAAAAAAAAAAAAAAAAAAAAAAAAAAAAAAAAAAAAAAAAAAAAAAAAAAAAAAAAAAAAAAAAAAAAAAAAAAAAAAAAAAAAAAAAAAAAAAAAAAAAAAAAAAAAAAAAAAAAAAAAAAAAAAAAAAAAAAAAAAAAAAAAAAAAAAAAAAAAAAAAAAAAAAAAAAAAAAAAAAAAAAAAAAAAAAAAAAAAAAAAAAAAAAAAAAAAAAAAAAAAAAAAAAAAAAAAAAAAAAAAAAAAAAAAAAAAAAAAAAAAAAAAAAAAAAAAAAAAAAAAAAAAAAAAAAAAAAAAAAAAAAAAAAAAAAAAAAAAAAAAAAAAAAAAAAAAAAAAAAAAAAAAAAAAAAAAAAAAAAAAAAAAAAAAAAAAAAAAAAAAAAAAAAAAAAAAAAAAAAAAAAAAAAAAAAAAAAAAAAAAAAAAAAAAAAAAAAAAAAAAAAAAAAAAAAAAAAAAAAAAAAAAAAAAAAAAAAAAAAAAAAAAAAAAAAAAAAAAAAAAAAAAAAAAAAAAAAAAAAAAAAAAAAAAAAAAAAAAAAAAAAAAAAAAAAAAAAAAAAAAAAAAAAAAAAAAAAAAAAAAAAAAAAAAAAAAAAAAAAAAAAAAAAAAAAAAAAAAAAAAAAAAAAAAAAAAAAAAAAAAAAAAAAAAAAAAAAAAAAAAAAAAAAAAAAAAAAAAAAAAAAAAAAAAAAAAAAAAAAAAAAAAAAAAAAAAAAAAAAAAAAAAAAAAAAAAAAAAAAAAAAAAAAAAAAAAAAAAAAAAAAAAAAAAAAAAAAAAAAAAAAAAAAAAAAAAAAAAAAAAAAAAAAAAAAAAAAAAAAAAAAAAAAAAAAAAAAAAAAAAAAAAAAAAAAAAAAAAAAAAAAAAAAAAAAAAAAAAAAAAPZYQJfzpduGkiMpSZV3NAHyCJwUgOwfjak1EHDqkdPiWLKphJmfinNL23Hf78zar56D+LtBPL6euj2BCFhKHu5W5co=</c2pa:manifest></metadata><defs><clipPath id="c514"><path d="M26 170A70 17 0 1 0 166 170A70 17 0 1 0 26 170Z"></path></clipPath><clipPath id="c515"><path d="M94 104H98Q101 104 101 107V171Q101 174 98 174H94Q91 174 91 171V107Q91 104 94 104Z"></path></clipPath><clipPath id="c516"><path d="M56 70H136Q146 70 146 80V112Q146 122 136 122H56Q46 122 46 112V80Q46 70 56 70Z"></path></clipPath><clipPath id="c517"><path d="M65.7 94.85H78.3Q82.5 94.85 82.5 99.05V107.45Q82.5 111.65 78.3 111.65H65.7Q61.5 111.65 61.5 107.45V99.05Q61.5 94.85 65.7 94.85Z"></path></clipPath></defs><path d="M26 170A70 17 0 1 0 166 170A70 17 0 1 0 26 170Z" fill="#2B2B3A" stroke="#2B2B3A" stroke-width="5" stroke-linejoin="round"></path><path d="M26 170A70 17 0 1 0 166 170A70 17 0 1 0 26 170Z" fill="#6E4430"></path><g clip-path="url(#c514)"><path d="M44 168Q64 162 84 168M110 174Q128 168 146 174" stroke="#573424" stroke-width="3" fill="none" stroke-linecap="round"></path></g><path d="M33 176A7 5 0 1 0 47 176A7 5 0 1 0 33 176Z" fill="#2B2B3A" stroke="#2B2B3A" stroke-width="7" stroke-linejoin="round"></path><path d="M146 166A6 4.5 0 1 0 158 166A6 4.5 0 1 0 146 166Z" fill="#2B2B3A" stroke="#2B2B3A" stroke-width="7" stroke-linejoin="round"></path><path d="M33 176A7 5 0 1 0 47 176A7 5 0 1 0 33 176Z" fill="#AEB3BC"></path><path d="M146 166A6 4.5 0 1 0 158 166A6 4.5 0 1 0 146 166Z" fill="#AEB3BC"></path><path d="M94 104H98Q101 104 101 107V171Q101 174 98 174H94Q91 174 91 171V107Q91 104 94 104Z" fill="#2B2B3A" stroke="#2B2B3A" stroke-width="7" stroke-linejoin="round"></path><path d="M94 104H98Q101 104 101 107V171Q101 174 98 174H94Q91 174 91 171V107Q91 104 94 104Z" fill="#8D5A3B"></path><g clip-path="url(#c515)"><path d="M94 104H98Q101 104 101 107V171Q101 174 98 174H94Q91 174 91 171V107Q91 104 94 104Z" fill="#6B412A"></path><g transform="translate(-1.05 -1.5)"><path d="M94 104H98Q101 104 101 107V171Q101 174 98 174H94Q91 174 91 171V107Q91 104 94 104Z" fill="#8D5A3B"></path></g></g><path d="M56 70H136Q146 70 146 80V112Q146 122 136 122H56Q46 122 46 112V80Q46 70 56 70Z" fill="#2B2B3A" stroke="#2B2B3A" stroke-width="7" stroke-linejoin="round"></path><path d="M56 70H136Q146 70 146 80V112Q146 122 136 122H56Q46 122 46 112V80Q46 70 56 70Z" fill="#FFF4DC"></path><g clip-path="url(#c516)"><path d="M56 70H136Q146 70 146 80V112Q146 122 136 122H56Q46 122 46 112V80Q46 70 56 70Z" fill="#EAD6AE"></path><g transform="translate(-1.4 -2)"><path d="M56 70H136Q146 70 146 80V112Q146 122 136 122H56Q46 122 46 112V80Q46 70 56 70Z" fill="#FFF4DC"></path></g><path d="M107 80H131Q138 80 138 87V105Q138 112 131 112H107Q100 112 100 105V87Q100 80 107 80Z" fill="#EAD6AE"></path><path d="M46 74A14 2 0 1 0 74 74A14 2 0 1 0 46 74Z" fill="#FFFFFF"></path></g><g transform="rotate(0 72 98)"><path d="M65.7 95.9V89.6Q65.7 82.25 72 82.25Q78.3 82.25 78.3 89.6V95.9" fill="none" stroke="#2B2B3A" stroke-width="10.78" stroke-linecap="round" stroke-linejoin="round"></path><path d="M65.7 95.9V89.6Q65.7 82.25 72 82.25Q78.3 82.25 78.3 89.6V95.9" fill="none" stroke="#AEB3BC" stroke-width="3.7800000000000002" stroke-linecap="round" stroke-linejoin="round"></path></g><g transform="rotate(0 72 98)"><path d="M65.7 94.85H78.3Q82.5 94.85 82.5 99.05V107.45Q82.5 111.65 78.3 111.65H65.7Q61.5 111.65 61.5 107.45V99.05Q61.5 94.85 65.7 94.85Z" fill="#2B2B3A" stroke="#2B2B3A" stroke-width="7" stroke-linejoin="round"></path><path d="M65.7 94.85H78.3Q82.5 94.85 82.5 99.05V107.45Q82.5 111.65 78.3 111.65H65.7Q61.5 111.65 61.5 107.45V99.05Q61.5 94.85 65.7 94.85Z" fill="#FFF4DC"></path><g clip-path="url(#c517)"><path d="M65.7 94.85H78.3Q82.5 94.85 82.5 99.05V107.45Q82.5 111.65 78.3 111.65H65.7Q61.5 111.65 61.5 107.45V99.05Q61.5 94.85 65.7 94.85Z" fill="#EAD6AE"></path><g transform="translate(-1.05 -1.5)"><path d="M65.7 94.85H78.3Q82.5 94.85 82.5 99.05V107.45Q82.5 111.65 78.3 111.65H65.7Q61.5 111.65 61.5 107.45V99.05Q61.5 94.85 65.7 94.85Z" fill="#FFF4DC"></path></g><path d="M69.69 101.15A2.31 2.31 0 1 0 74.31 101.15A2.31 2.31 0 1 0 69.69 101.15Z" fill="#2B2B3A"></path><path d="M72 102.2V106.4" stroke="#2B2B3A" stroke-width="2.31" stroke-linecap="round"></path><path d="M64.65 98A2.1 1.26 0 1 0 68.85 98A2.1 1.26 0 1 0 64.65 98Z" fill="#FFFFFF"></path></g></g><path d="M47 74A3 3 0 1 0 53 74A3 3 0 1 0 47 74Z" fill="#2B2B3A" stroke="#2B2B3A" stroke-width="3.2" stroke-linejoin="round"></path><path d="M139 74A3 3 0 1 0 145 74A3 3 0 1 0 139 74Z" fill="#2B2B3A" stroke="#2B2B3A" stroke-width="3.2" stroke-linejoin="round"></path><path d="M47 74A3 3 0 1 0 53 74A3 3 0 1 0 47 74Z" fill="#8D5A3B"></path><path d="M139 74A3 3 0 1 0 145 74A3 3 0 1 0 139 74Z" fill="#8D5A3B"></path><path d="M52 166q1.1 -7.7 3.3 -8.8q-0.55 5.5 1.65 8.8q1.65 -9.9 4.4 -12.1q-0.88 7.7 1.65 12.1q1.65 -6.6 3.85 -7.7q-0.55 4.4 0.55 7.7Z" fill="#3E8E41"></path><path d="M140 174l2.2 -7.7 2.2 7.7 2.2 -11 2.2 11 2.2 -6.6 2.2 6.6Z" fill="#3E8E41"></path><path d="M118 160q0.9 -6.3 2.7 -7.2q-0.45 4.5 1.35 7.2q1.35 -8.1 3.6 -9.9q-0.72 6.3 1.35 9.9q1.35 -5.4 3.15 -6.3q-0.45 3.6 0.45 6.3Z" fill="#3E8E41"></path></svg>