<svg xmlns="http://www.w3.org/2000/svg" width="192" height="192" viewBox="0 0 192 192" xmlns:c2pa="http://c2pa.org/manifest"><metadata><c2pa:manifest>AAAWgmp1bWIAAAAeanVtZGMycGEAEQAQgAAAqgA4m3EDYzJwYQAAABZcanVtYgAAAEdqdW1kYzJtYQARABCAAACqADibcQN1cm46YzJwYTphYzYyZWU4MC0yM2RkLTRmOWYtYThlMS1hZTRmZjc0NzY3MDQAAAADl2p1bWIAAAApanVtZGMyYXMAEQAQgAAAqgA4m3EDYzJwYS5hc3NlcnRpb25zAAAAALxqdW1iAAAARGp1bWRjYm9yABEAEIAAAKoAOJtxE2MycGEuaW5ncmVkaWVudC52MwAAAAAYYzJzaColkWBmpZSPTG8bVQxvGkQAAABwY2JvcqNpZGM6Zm9ybWF0bWltYWdlL3N2Zyt4bWxqaW5zdGFuY2VJRHgseG1wOmlpZDphNzk0N2UzZS03MDI1LTQ2MDQtYTEwZi05YTcwMWMxNTBiOWZscmVsYXRpb25zaGlwaHBhcmVudE9mAAAB4mp1bWIAAABBanVtZGNib3IAEQAQgAAAqgA4m3ETYzJwYS5hY3Rpb25zLnYyAAAAABhjMnNoKUHMeKUqbherEgsmy8FnJgAAAZljYm9yomdhY3Rpb25zgqJmYWN0aW9ua2MycGEub3BlbmVkanBhcmFtZXRlcnOha2luZ3JlZGllbnRzgaJjdXJseC1zZWxmI2p1bWJmPWMycGEuYXNzZXJ0aW9ucy9jMnBhLmluZ3JlZGllbnQudjNkaGFzaFggVX00/RdtVlJqW7ZUsi+dUXcFoY8ahowzkLXOaEOu+32kZmFjdGlvbngdY29tLmFudGhyb3BpYy5jbGF1ZGUucHJvdmlkZWRqcGFyYW1ldGVyc6F4H2NvbS5hbnRocm9waWMub3JpZ2luLWNvbmZpZGVuY2VndW5rbm93bmtkZXNjcmlwdGlvbnhmQ2xhdWRlIHByb3ZpZGVkIHRoaXMgZmlsZSBhdCB0aGUgcmVxdWVzdCBvZiBhIHVzZXIgYW5kIG1heSBoYXZlIGNyZWF0ZWQgb3IgbW9kaWZpZWQgdGhlIGZpbGUgY29udGVudHMubXNvZnR3YXJlQWdlbnShZG5hbWVmQ2xhdWRlcmFsbEFjdGlvbnNJbmNsdWRlZPUAAADIanVtYgAAAEBqdW1kY2JvcgARABCAAACqADibcRNjMnBhLmhhc2guZGF0YQAAAAAYYzJzaHkFNJ9mu2vg5eXVi3OYomsAAACAY2JvcqVjYWxnZnNoYTI1NmNwYWRNAAAAAAAAAAAAAAAAAGRoYXNoWCC4zwwVDjF91h6/VYmQrwbfvghl7Nd/SGRZOLunJfy+i2RuYW1lbmp1bWJmIG1hbmlmZXN0amV4Y2x1c2lvbnOBomVzdGFydBiWZmxlbmd0aBkeBAAAAj5qdW1iAAAAJ2p1bWRjMmNsABEAEIAAAKoAOJtxA2MycGEuY2xhaW0udjIAAAACD2Nib3KlY2FsZ2ZzaGEyNTZpc2lnbmF0dXJleE1zZWxmI2p1bWJmPS9jMnBhL3VybjpjMnBhOmFjNjJlZTgwLTIzZGQtNGY5Zi1hOGUxLWFlNGZmNzQ3NjcwNC9jMnBhLnNpZ25hdHVyZWppbnN0YW5jZUlEeCx4bXA6aWlkOjU4MmFjYThmLWQyOWYtNDhkMy05YjU0LTJjNTM0ZGI1Mjc5OHJjcmVhdGVkX2Fzc2VydGlvbnODomN1cmx4LXNlbGYjanVtYmY9YzJwYS5hc3NlcnRpb25zL2MycGEuaW5ncmVkaWVudC52M2RoYXNoWCBVfTT9F21WUmpbtlSyL51RdwWhjxqGjDOQtc5oQ677faJjdXJseCpzZWxmI2p1bWJmPWMycGEuYXNzZXJ0aW9ucy9jMnBhLmFjdGlvbnMudjJkaGFzaFgg9JcJ8lK1aciCKRh9GyHMwCatyebeaJNR6WYl3R70KZuiY3VybHgpc2VsZiNqdW1iZj1jMnBhLmFzc2VydGlvbnMvYzJwYS5oYXNoLmRhdGFkaGFzaFgge6gqZWqZifdKFVEop5E2pCMBL+s38gJRHaYg0oDRstB0Y2xhaW1fZ2VuZXJhdG9yX2luZm+jZG5hbWVvQW50aHJvcGljIEZpbGVzZ3ZlcnNpb25lMS4wLjBrc3BlY1ZlcnNpb25lMi40LjAAABA4anVtYgAAAChqdW1kYzJjcwARABCAAACqADibcQNjMnBhLnNpZ25hdHVyZQAAABAIY2JvctKEWQISogEmGCFZAgowggIGMIIBjaADAgECAhRA5aAK7sI50L64g/oGQgU9Z1UTADAKBggqhkjOPQQDAzBJMRcwFQYDVQQKEw5BbnRocm9waWMsIFBCQzEuMCwGA1UEAxMlQW50aHJvcGljIENvbnRlbnQgQ3JlZGVudGlhbHMgUm9vdCBDQTAeFw0yNjA4MDcxODQzNTZaFw0yODA4MDYxOTQzNTZaMEQxFzAVBgNVBAoTDkFudGhyb3BpYywgUEJDMSkwJwYDVQQDEyBBbnRocm9waWMgQ2xhdWRlIENvbnRlbnQgU2lnbmluZzBZMBMGByqGSM49AgEGCCqGSM49AwEHA0IABJh6CmvLUBgFFNU0vUKlOVtE6djd17L5SuwX0LemFisBM3dkd/3cyjxFA3Qo5S46fX0/ihY0VZ7mfb9KF703t5OjWDBWMA4GA1UdDwEB/wQEAwIHgDAVBgNVHSUEDjAMBgorBgEEAYPoXgIBMAwGA1UdEwEB/wQCMAAwHwYDVR0jBBgwFoAUzlHiBIFOZFsj+OPEz5o+nMHXXMIwCgYIKoZIzj0EAwMDZwAwZAIwMXMdFJ4BetLLVY7ORuE9noqbbAZOZn/aArXyTwFAZfKrPzxF2vPoJNf1+UCdg1XGAjBwX1zd9WGqYkqmL5SFqw1QySjr1zJfpJM9+1rdDwSPLMOPOjKuiXjoU/pUUeG9RwmhY3BhZFkNngAAAAAAAAAAAAAAAAAAAAAAAAAAAAAAAAAAAAAAAAAAAAAAAAAAAAAAAAAAAAAAAAAAAAAAAAAAAAAAAAAAAAAAAAAAAAAAAAAAAAAAAAAAAAAAAAAAAAAAAAAAAAAAAAAAAAAAAAAAAAAAAAAAAAAAAAAAAAAAAAAAAAAAAAAAAAAAAAAAAAAAAAAAAAAAAAAAAAAAAAAAAAAAAAAAAAAAAAAAAAAAAAAAAAAAAAAAAAAAAAAAAAAAAAAAAAAAAAAAAAAAAAAAAAAAAAAAAAAAAAAAAAAAAAAAAAAAAAAAAAAAAAAAAAAAAAAAAAAAAAAAAAAAAAAAAAAAAAAAAAAAAAAAAAAAAAAAAAAAAAAAAAAAAAAAAAAAAAAAAAAAAAAAAAAAAAAAAAAAAAAAAAAAAAAAAAAAAAAAAAAAAAAAAAAAAAAAAAAAAAAAAAAAAAAAAAAAAAAAAAAAAAAAAAAAAAAAAAAAAAAAAAAAAAAAAAAAAAAAAAAAAAAAAAAAAAAAAAAAAAAAAAAAAAAAAAAAAAAAAAAAAAAAAAAAAAAAAAAAAAAAAAAAAAAAAAAAAAAAAAAAAAAAAAAAAAAAAAAAAAAAAAAAAAAAAAAAAAAAAAAAAAAAAAAAAAAAAAAAAAAAAAAAAAAAAAAAAAAAAAAAAAAAAAAAAAAAAAAAAAAAAAAAAAAAAAAAAAAAAAAAAAAAAAAAAAAAAAAAAAAAAAAAAAAAAAAAAAAAAAAAAAAAAAAAAAAAAAAAAAAAAAAAAAAAAAAAAAAAAAAAAAAAAAAAAAAAAAAAAAAAAAAAAAAAAAAAAAAAAAAAAAAAAAAAAAAAAAAAAAAAAAAAAAAAAAAAAAAAAAAAAAAAAAAAAAAAAAAAAAAAAAAAAAAAAAAAAAAAAAAAAAAAAAAAAAAAAAAAAAAAAAAAAAAAAAAAAAAAAAAAAAAAAAAAAAAAAAAAAAAAAAAAAAAAAAAAAAAAAAAAAAAAAAAAAAAAAAAAAAAAAAAAAAAAAAAAAAAAAAAAAAAAAAAAAAAAAAAAAAAAAAAAAAAAAAAAAAAAAAAAAAAAAAAAAAAAAAAAAAAAAAAAAAAAAAAAAAAAAAAAAAAAAAAAAAAAAAAAAAAAAAAAAAAAAAAAAAAAAAAAAAAAAAAAAAAAAAAAAAAAAAAAAAAAAAAAAAAAAAAAAAAAAAAAAAAAAAAAAAAAAAAAAAAAAAAAAAAAAAAAAAAAAAAAAAAAAAAAAAAAAAAAAAAAAAAAAAAAAAAAAAAAAAAAAAAAAAAAAAAAAAAAAAAAAAAAAAAAAAAAAAAAAAAAAAAAAAAAAAAAAAAAAAAAAAAAAAAAAAAAAAAAAAAAAAAAAAAAAAAAAAAAAAAAAAAAAAAAAAAAAAAAAAAAAAAAAAAAAAAAAAAAAAAAAAAAAAAAAAAAAAAAAAAAAAAAAAAAAAAAAAAAAAAAAAAAAAAAAAAAAAAAAAAAAAAAAAAAAAAAAAAAAAAAAAAAAAAAAAAAAAAAAAAAAAAAAAAAAAAAAAAAAAAAAAAAAAAAAAAAAAAAAAAAAAAAAAAAAAAAAAAAAAAAAAAAAAAAAAAAAAAAAAAAAAAAAAAAAAAAAAAAAAAAAAAAAAAAAAAAAAAAAAAAAAAAAAAAAAAAAAAAAAAAAAAAAAAAAAAAAAAAAAAAAAAAAAAAAAAAAAAAAAAAAAAAAAAAAAAAAAAAAAAAAAAAAAAAAAAAAAAAAAAAAAAAAAAAAAAAAAAAAAAAAAAAAAAAAAAAAAAAAAAAAAAAAAAAAAAAAAAAAAAAAAAAAAAAAAAAAAAAAAAAAAAAAAAAAAAAAAAAAAAAAAAAAAAAAAAAAAAAAAAAAAAAAAAAAAAAAAAAAAAAAAAAAAAAAAAAAAAAAAAAAAAAAAAAAAAAAAAAAAAAAAAAAAAAAAAAAAAAAAAAAAAAAAAAAAAAAAAAAAAAAAAAAAAAAAAAAAAAAAAAAAAAAAAAAAAAAAAAAAAAAAAAAAAAAAAAAAAAAAAAAAAAAAAAAAAAAAAAAAAAAAAAAAAAAAAAAAAAAAAAAAAAAAAAAAAAAAAAAAAAAAAAAAAAAAAAAAAAAAAAAAAAAAAAAAAAAAAAAAAAAAAAAAAAAAAAAAAAAAAAAAAAAAAAAAAAAAAAAAAAAAAAAAAAAAAAAAAAAAAAAAAAAAAAAAAAAAAAAAAAAAAAAAAAAAAAAAAAAAAAAAAAAAAAAAAAAAAAAAAAAAAAAAAAAAAAAAAAAAAAAAAAAAAAAAAAAAAAAAAAAAAAAAAAAAAAAAAAAAAAAAAAAAAAAAAAAAAAAAAAAAAAAAAAAAAAAAAAAAAAAAAAAAAAAAAAAAAAAAAAAAAAAAAAAAAAAAAAAAAAAAAAAAAAAAAAAAAAAAAAAAAAAAAAAAAAAAAAAAAAAAAAAAAAAAAAAAAAAAAAAAAAAAAAAAAAAAAAAAAAAAAAAAAAAAAAAAAAAAAAAAAAAAAAAAAAAAAAAAAAAAAAAAAAAAAAAAAAAAAAAAAAAAAAAAAAAAAAAAAAAAAAAAAAAAAAAAAAAAAAAAAAAAAAAAAAAAAAAAAAAAAAAAAAAAAAAAAAAAAAAAAAAAAAAAAAAAAAAAAAAAAAAAAAAAAAAAAAAAAAAAAAAAAAAAAAAAAAAAAAAAAAAAAAAAAAAAAAAAAAAAAAAAAAAAAAAAAAAAAAAAAAAAAAAAAAAAAAAAAAAAAAAAAAAAAAAAAAAAAAAAAAAAAAAAAAAAAAAAAAAAAAAAAAAAAAAAAAAAAAAAAAAAAAAAAAAAAAAAAAAAAAAAAAAAAAAAAAAAAAAAAAAAAAAAAAAAAAAAAAAAAAAAAAAAAAAAAAAAAAAAAAAAAAAAAAAAAAAAAAAAAAAAAAAAAAAAAAAAAAAAAAAAAAAAAAAAAAAAAAAAAAAAAAAAAAAAAAAAAAAAAAAAAAAAAAAAAAAAAAAAAAAAAAAAAAAAAAAAAAAAAAAAAAAAAAAAAAAAAAAAAAAAAAAAAAAAAAAAAAAAAAAAAAAAAAAAAAAAAAAAAAAAAAAAAAAAAAAAAAAAAAAAAAAAAAAAAAAAAAAAAAAAAAAAAAAAAAAAAAAAAAAAAAAAAAAAAAAAAAAAAAAAAAAAAAAAAAAAAAAAAAAAAAAAAAAAAAAAAAAAAAAAAAAAAAAAAAAAAAAAAAAAAAAAAAAAAAAAAAAAAAAAAAAAAAAAAAAAAAAAAAAAAAAAAAAAAAAAAAAAAAAAAAAAAAAAAAAAAAAAAAAAAAAAAAAAAAAAAAAAAAAAAAAAAAAAAAAAAAAAAAAAAAAAAAAAAAAAAAAAAAAAAAAAAAAAAAAAAAAAAAAAAAAAAAAAAAAAAAAAAAAAAAAAAAAAAAAAAAAAAAAAAAAAAAAAAAAAAAAAAAAAAAAAAAAAAAAAAAAAAAAAAAAAAAAAAAAAAAAAAAAAAAAAAAAAAAAAAAAAAAAAAAAAAAAAAAAAAAAAAAAAAAAAAAAAAAAAAAAAAAAAAAAAAAAAAAAAAAAAAAAAAAAAAAAAAAAAAAAAAAAAAAAAAAAAAAAAAAAAAAAAAAAAAAAAAAAAAAAAAAAAAAAAAAAAAAAAAAAAAAAAAAAAAAAAAAAAAAAAAAAAAAAAAAAAAAAAAAAAAAAAAAAAAAAAAAAAAAAAAAAAAAAAAAAAAAAAAAAAAAAAAAAAAAAAAAAAAAAAAAAAAAAAAAAAAAAAAAAAAAAAAAAAAAAAAAAAAAAAAAAAAAAAAAAAAAAAAAAAAAAAAAAAAAAAAAAAAAAAAAAAAAAAAAAAAAAAAAAAAAAAAAAAAAAAAAAAAAAAAAAAAAAAAAAAAAAAAAAAAAAAAAAAAAAAAAAAAAAAAAAAAAAAAAAAAAAAAAAAAAAAAAAAAAAAAAAAAAAAAAAAAAAAAAAAAAAAAAAAAAAAAAAAAAAAAAAAAAAAAAAAAAAAAAAAAAAAAAAAAAAAAAAAAAAAAAAAAAAAAAAAAAAAAAAAAAAAAAAAAAAAAAAAAAAAAAAAAAAAAAAAAAAAAAAAAAAAAAAAAAAAAAAAAAAAAAAAAAAAAAAAAAAAAAAAAAAAAAAAAAAAAAAAAAAAAAAAAAAAAAAAAAAAAAAAAAAAAAAAAAAAAAAAAAAAAAAAAAAAAAAAAAAAAAAAAAAAAAAAAAAAAAAAAAAAAAAAAAAAAAAAAAAAAAAAAAAAAAAAAAAAAAAAAAAAAAAAAAAAAAAAAAAAAAAAAAAAAAAAAAAAAAAAAAAAAAAAAAAAAAAAAAAAAAAAAAAAAAAAAAAAAAAAAAAAAAAAAAAAAAAAAAAAAAAAAAAAAAAAAAAAAAAAAAAAAAAAAAAAAAAAAAAAAAAAAAAAAAAAAAAAAAAAAAAAAAAAAAAAAAAAAAAAAAAAAAAAAAAAAAAAAAAAAAAAAAAAAAAAAAAAAAAAAAAAAAAAAAAAAAAAAAAAAAAAAAAAAAAAAAAAAAAAAAAAAAAAAAAAAAAAAAAAAAAAAAAAAAAAAAAAAAAAAAAAAAAAAAAAAAAAAAAAAAAAAAAAAAAAAAAAAAAAAAAAAAAAAAAAAAAAAAAAAAAAAAAAAAAAAAAAAAAAAAAAAAAAAAAAAAAAAAAAAAAAAAAAAAAAAAAAAAAAAAAAAAAAAAAAAAAAAAAAAAAAAAAPZYQOMyhUL9B465JoF1L4iSXG0EDaZ3CEDVN+zxwwZGldkkTjzsPMe6VwEm03yJyjQn+m+Ul6v7npfDTS+759DT2t8=</c2pa:manifest></metadata><defs><clipPath id="c96"><path d="M32 118H160Q174 118 174 132V158Q174 172 160 172H32Q18 172 18 158V132Q18 118 32 118Z"></path></clipPath><clipPath id="c97"><path d="M33.81 96.22A3.2 7.5 -4 1 0 40.19 95.78A3.2 7.5 -4 1 0 33.81 96.22Z"></path></clipPath><clipPath id="c98"><path d="M54.22 96.36A3.2 7.5 -6.4 1 0 60.58 95.64A3.2 7.5 -6.4 1 0 54.22 96.36Z"></path></clipPath><clipPath id="c99"><path d="M77.01 96.22A3.2 7.5 -4 1 0 83.39 95.78A3.2 7.5 -4 1 0 77.01 96.22Z"></path></clipPath><clipPath id="c100"><path d="M97.42 96.36A3.2 7.5 -6.4 1 0 103.78 95.64A3.2 7.5 -6.4 1 0 97.42 96.36Z"></path></clipPath><clipPath id="c101"><path d="M120.21 96.22A3.2 7.5 -4 1 0 126.59 95.78A3.2 7.5 -4 1 0 120.21 96.22Z"></path></clipPath><clipPath id="c102"><path d="M140.62 96.36A3.2 7.5 -6.4 1 0 146.98 95.64A3.2 7.5 -6.4 1 0 140.62 96.36Z"></path></clipPath><clipPath id="c103"><path d="M38.62 108.36A3.2 7.5 -6.4 1 0 44.98 107.64A3.2 7.5 -6.4 1 0 38.62 108.36Z"></path></clipPath><clipPath id="c104"><path d="M61.41 108.22A3.2 7.5 -4 1 0 67.79 107.78A3.2 7.5 -4 1 0 61.41 108.22Z"></path></clipPath><clipPath id="c105"><path d="M81.82 108.36A3.2 7.5 -6.4 1 0 88.18 107.64A3.2 7.5 -6.4 1 0 81.82 108.36Z"></path></clipPath><clipPath id="c106"><path d="M104.61 108.22A3.2 7.5 -4 1 0 110.99 107.78A3.2 7.5 -4 1 0 104.61 108.22Z"></path></clipPath><clipPath id="c107"><path d="M125.02 108.36A3.2 7.5 -6.4 1 0 131.38 107.64A3.2 7.5 -6.4 1 0 125.02 108.36Z"></path></clipPath><clipPath id="c108"><path d="M147.81 108.22A3.2 7.5 -4 1 0 154.19 107.78A3.2 7.5 -4 1 0 147.81 108.22Z"></path></clipPath><clipPath id="c109"><path d="M33.81 120.22A3.2 7.5 -4 1 0 40.19 119.78A3.2 7.5 -4 1 0 33.81 120.22Z"></path></clipPath><clipPath id="c110"><path d="M54.22 120.36A3.2 7.5 -6.4 1 0 60.58 119.64A3.2 7.5 -6.4 1 0 54.22 120.36Z"></path></clipPath><clipPath id="c111"><path d="M77.01 120.22A3.2 7.5 -4 1 0 83.39 119.78A3.2 7.5 -4 1 0 77.01 120.22Z"></path></clipPath><clipPath id="c112"><path d="M97.42 120.36A3.2 7.5 -6.4 1 0 103.78 119.64A3.2 7.5 -6.4 1 0 97.42 120.36Z"></path></clipPath><clipPath id="c113"><path d="M120.21 120.22A3.2 7.5 -4 1 0 126.59 119.78A3.2 7.5 -4 1 0 120.21 120.22Z"></path></clipPath><clipPath id="c114"><path d="M140.62 120.36A3.2 7.5 -6.4 1 0 146.98 119.64A3.2 7.5 -6.4 1 0 140.62 120.36Z"></path></clipPath></defs><path d="M32 128H160Q174 128 174 142V168Q174 182 160 182H32Q18 182 18 168V142Q18 128 32 128Z" fill="#2B2B3A" stroke="#2B2B3A" stroke-width="7" stroke-linejoin="round"></path><path d="M32 128H160Q174 128 174 142V168Q174 182 160 182H32Q18 182 18 168V142Q18 128 32 128Z" fill="#B8433A"></path><path d="M32 118H160Q174 118 174 132V158Q174 172 160 172H32Q18 172 18 158V132Q18 118 32 118Z" fill="#2B2B3A" stroke="#2B2B3A" stroke-width="7" stroke-linejoin="round"></path><path d="M32 118H160Q174 118 174 132V158Q174 172 160 172H32Q18 172 18 158V132Q18 118 32 118Z" fill="#E0584B"></path><g clip-path="url(#c96)"><path d="M20 122A20 2 0 1 0 60 122A20 2 0 1 0 20 122Z" fill="#F59287"></path></g><path d="M36 126H156Q164 126 164 134V156Q164 164 156 164H36Q28 164 28 156V134Q28 126 36 126Z" fill="#2B2B3A" stroke="#2B2B3A" stroke-width="5" stroke-linejoin="round"></path><path d="M36 126H156Q164 126 164 134V156Q164 164 156 164H36Q28 164 28 156V134Q28 126 36 126Z" fill="#6E4430"></path><path d="M19.2 124A4.8 4.8 0 1 0 28.8 124A4.8 4.8 0 1 0 19.2 124Z" fill="#2B2B3A" stroke="#2B2B3A" stroke-width="4" stroke-linejoin="round"></path><path d="M163.2 124A4.8 4.8 0 1 0 172.8 124A4.8 4.8 0 1 0 163.2 124Z" fill="#2B2B3A" stroke="#2B2B3A" stroke-width="4" stroke-linejoin="round"></path><path d="M19.2 166A4.8 4.8 0 1 0 28.8 166A4.8 4.8 0 1 0 19.2 166Z" fill="#2B2B3A" stroke="#2B2B3A" stroke-width="4" stroke-linejoin="round"></path><path d="M163.2 166A4.8 4.8 0 1 0 172.8 166A4.8 4.8 0 1 0 163.2 166Z" fill="#2B2B3A" stroke="#2B2B3A" stroke-width="4" stroke-linejoin="round"></path><path d="M19.2 124A4.8 4.8 0 1 0 28.8 124A4.8 4.8 0 1 0 19.2 124Z" fill="#FFC933"></path><path d="M163.2 124A4.8 4.8 0 1 0 172.8 124A4.8 4.8 0 1 0 163.2 124Z" fill="#FFC933"></path><path d="M19.2 166A4.8 4.8 0 1 0 28.8 166A4.8 4.8 0 1 0 19.2 166Z" fill="#FFC933"></path><path d="M163.2 166A4.8 4.8 0 1 0 172.8 166A4.8 4.8 0 1 0 163.2 166Z" fill="#FFC933"></path><path d="M39 134Q38.4 115 37 100" fill="none" stroke="#2B2B3A" stroke-width="9.3" stroke-linecap="round" stroke-linejoin="round"></path><path d="M39 134Q38.4 115 37 100" fill="none" stroke="#D9A33C" stroke-width="2.3" stroke-linecap="round" stroke-linejoin="round"></path><path d="M33.81 96.22A3.2 7.5 -4 1 0 40.19 95.78A3.2 7.5 -4 1 0 33.81 96.22Z" fill="#2B2B3A" stroke="#2B2B3A" stroke-width="4" stroke-linejoin="round"></path><path d="M33.81 96.22A3.2 7.5 -4 1 0 40.19 95.78A3.2 7.5 -4 1 0 33.81 96.22Z" fill="#F5C95B"></path><g clip-path="url(#c97)"><path d="M33.81 96.22A3.2 7.5 -4 1 0 40.19 95.78A3.2 7.5 -4 1 0 33.81 96.22Z" fill="#D9A33C"></path><g transform="translate(-1.05 -1.5)"><path d="M33.81 96.22A3.2 7.5 -4 1 0 40.19 95.78A3.2 7.5 -4 1 0 33.81 96.22Z" fill="#F5C95B"></path></g><path d="M34.4 94L37 96L39.6 94M34.4 98.6L37 100.6L39.6 98.6" fill="none" stroke="#D9A33C" stroke-width="1.2"></path></g><path d="M60.6 134Q59.64 115 57.4 100" fill="none" stroke="#2B2B3A" stroke-width="9.3" stroke-linecap="round" stroke-linejoin="round"></path><path d="M60.6 134Q59.64 115 57.4 100" fill="none" stroke="#D9A33C" stroke-width="2.3" stroke-linecap="round" stroke-linejoin="round"></path><path d="M54.22 96.36A3.2 7.5 -6.4 1 0 60.58 95.64A3.2 7.5 -6.4 1 0 54.22 96.36Z" fill="#2B2B3A" stroke="#2B2B3A" stroke-width="4" stroke-linejoin="round"></path><path d="M54.22 96.36A3.2 7.5 -6.4 1 0 60.58 95.64A3.2 7.5 -6.4 1 0 54.22 96.36Z" fill="#F5C95B"></path><g clip-path="url(#c98)"><path d="M54.22 96.36A3.2 7.5 -6.4 1 0 60.58 95.64A3.2 7.5 -6.4 1 0 54.22 96.36Z" fill="#D9A33C"></path><g transform="translate(-1.05 -1.5)"><path d="M54.22 96.36A3.2 7.5 -6.4 1 0 60.58 95.64A3.2 7.5 -6.4 1 0 54.22 96.36Z" fill="#F5C95B"></path></g><path d="M54.8 94L57.4 96L60 94M54.8 98.6L57.4 100.6L60 98.6" fill="none" stroke="#D9A33C" stroke-width="1.2"></path></g><path d="M82.2 134Q81.6 115 80.2 100" fill="none" stroke="#2B2B3A" stroke-width="9.3" stroke-linecap="round" stroke-linejoin="round"></path><path d="M82.2 134Q81.6 115 80.2 100" fill="none" stroke="#D9A33C" stroke-width="2.3" stroke-linecap="round" stroke-linejoin="round"></path><path d="M77.01 96.22A3.2 7.5 -4 1 0 83.39 95.78A3.2 7.5 -4 1 0 77.01 96.22Z" fill="#2B2B3A" stroke="#2B2B3A" stroke-width="4" stroke-linejoin="round"></path><path d="M77.01 96.22A3.2 7.5 -4 1 0 83.39 95.78A3.2 7.5 -4 1 0 77.01 96.22Z" fill="#F5C95B"></path><g clip-path="url(#c99)"><path d="M77.01 96.22A3.2 7.5 -4 1 0 83.39 95.78A3.2 7.5 -4 1 0 77.01 96.22Z" fill="#D9A33C"></path><g transform="translate(-1.05 -1.5)"><path d="M77.01 96.22A3.2 7.5 -4 1 0 83.39 95.78A3.2 7.5 -4 1 0 77.01 96.22Z" fill="#F5C95B"></path></g><path d="M77.6 94L80.2 96L82.8 94M77.6 98.6L80.2 100.6L82.8 98.6" fill="none" stroke="#D9A33C" stroke-width="1.2"></path></g><path d="M103.8 134Q102.84 115 100.6 100" fill="none" stroke="#2B2B3A" stroke-width="9.3" stroke-linecap="round" stroke-linejoin="round"></path><path d="M103.8 134Q102.84 115 100.6 100" fill="none" stroke="#D9A33C" stroke-width="2.3" stroke-linecap="round" stroke-linejoin="round"></path><path d="M97.42 96.36A3.2 7.5 -6.4 1 0 103.78 95.64A3.2 7.5 -6.4 1 0 97.42 96.36Z" fill="#2B2B3A" stroke="#2B2B3A" stroke-width="4" stroke-linejoin="round"></path><path d="M97.42 96.36A3.2 7.5 -6.4 1 0 103.78 95.64A3.2 7.5 -6.4 1 0 97.42 96.36Z" fill="#F5C95B"></path><g clip-path="url(#c100)"><path d="M97.42 96.36A3.2 7.5 -6.4 1 0 103.78 95.64A3.2 7.5 -6.4 1 0 97.42 96.36Z" fill="#D9A33C"></path><g transform="translate(-1.05 -1.5)"><path d="M97.42 96.36A3.2 7.5 -6.4 1 0 103.78 95.64A3.2 7.5 -6.4 1 0 97.42 96.36Z" fill="#F5C95B"></path></g><path d="M98 94L100.6 96L103.2 94M98 98.6L100.6 100.6L103.2 98.6" fill="none" stroke="#D9A33C" stroke-width="1.2"></path></g><path d="M125.4 134Q124.8 115 123.4 100" fill="none" stroke="#2B2B3A" stroke-width="9.3" stroke-linecap="round" stroke-linejoin="round"></path><path d="M125.4 134Q124.8 115 123.4 100" fill="none" stroke="#D9A33C" stroke-width="2.3" stroke-linecap="round" stroke-linejoin="round"></path><path d="M120.21 96.22A3.2 7.5 -4 1 0 126.59 95.78A3.2 7.5 -4 1 0 120.21 96.22Z" fill="#2B2B3A" stroke="#2B2B3A" stroke-width="4" stroke-linejoin="round"></path><path d="M120.21 96.22A3.2 7.5 -4 1 0 126.59 95.78A3.2 7.5 -4 1 0 120.21 96.22Z" fill="#F5C95B"></path><g clip-path="url(#c101)"><path d="M120.21 96.22A3.2 7.5 -4 1 0 126.59 95.78A3.2 7.5 -4 1 0 120.21 96.22Z" fill="#D9A33C"></path><g transform="translate(-1.05 -1.5)"><path d="M120.21 96.22A3.2 7.5 -4 1 0 126.59 95.78A3.2 7.5 -4 1 0 120.21 96.22Z" fill="#F5C95B"></path></g><path d="M120.8 94L123.4 96L126 94M120.8 98.6L123.4 100.6L126 98.6" fill="none" stroke="#D9A33C" stroke-width="1.2"></path></g><path d="M147 134Q146.04 115 143.8 100" fill="none" stroke="#2B2B3A" stroke-width="9.3" stroke-linecap="round" stroke-linejoin="round"></path><path d="M147 134Q146.04 115 143.8 100" fill="none" stroke="#D9A33C" stroke-width="2.3" stroke-linecap="round" stroke-linejoin="round"></path><path d="M140.62 96.36A3.2 7.5 -6.4 1 0 146.98 95.64A3.2 7.5 -6.4 1 0 140.62 96.36Z" fill="#2B2B3A" stroke="#2B2B3A" stroke-width="4" stroke-linejoin="round"></path><path d="M140.62 96.36A3.2 7.5 -6.4 1 0 146.98 95.64A3.2 7.5 -6.4 1 0 140.62 96.36Z" fill="#F5C95B"></path><g clip-path="url(#c102)"><path d="M140.62 96.36A3.2 7.5 -6.4 1 0 146.98 95.64A3.2 7.5 -6.4 1 0 140.62 96.36Z" fill="#D9A33C"></path><g transform="translate(-1.05 -1.5)"><path d="M140.62 96.36A3.2 7.5 -6.4 1 0 146.98 95.64A3.2 7.5 -6.4 1 0 140.62 96.36Z" fill="#F5C95B"></path></g><path d="M141.2 94L143.8 96L146.4 94M141.2 98.6L143.8 100.6L146.4 98.6" fill="none" stroke="#D9A33C" stroke-width="1.2"></path></g><path d="M45 146Q44.04 127 41.8 112" fill="none" stroke="#2B2B3A" stroke-width="9.3" stroke-linecap="round" stroke-linejoin="round"></path><path d="M45 146Q44.04 127 41.8 112" fill="none" stroke="#D9A33C" stroke-width="2.3" stroke-linecap="round" stroke-linejoin="round"></path><path d="M38.62 108.36A3.2 7.5 -6.4 1 0 44.98 107.64A3.2 7.5 -6.4 1 0 38.62 108.36Z" fill="#2B2B3A" stroke="#2B2B3A" stroke-width="4" stroke-linejoin="round"></path><path d="M38.62 108.36A3.2 7.5 -6.4 1 0 44.98 107.64A3.2 7.5 -6.4 1 0 38.62 108.36Z" fill="#F5C95B"></path><g clip-path="url(#c103)"><path d="M38.62 108.36A3.2 7.5 -6.4 1 0 44.98 107.64A3.2 7.5 -6.4 1 0 38.62 108.36Z" fill="#D9A33C"></path><g transform="translate(-1.05 -1.5)"><path d="M38.62 108.36A3.2 7.5 -6.4 1 0 44.98 107.64A3.2 7.5 -6.4 1 0 38.62 108.36Z" fill="#F5C95B"></path></g><path d="M39.2 106L41.8 108L44.4 106M39.2 110.6L41.8 112.6L44.4 110.6" fill="none" stroke="#D9A33C" stroke-width="1.2"></path></g><path d="M66.6 146Q66 127 64.6 112" fill="none" stroke="#2B2B3A" stroke-width="9.3" stroke-linecap="round" stroke-linejoin="round"></path><path d="M66.6 146Q66 127 64.6 112" fill="none" stroke="#D9A33C" stroke-width="2.3" stroke-linecap="round" stroke-linejoin="round"></path><path d="M61.41 108.22A3.2 7.5 -4 1 0 67.79 107.78A3.2 7.5 -4 1 0 61.41 108.22Z" fill="#2B2B3A" stroke="#2B2B3A" stroke-width="4" stroke-linejoin="round"></path><path d="M61.41 108.22A3.2 7.5 -4 1 0 67.79 107.78A3.2 7.5 -4 1 0 61.41 108.22Z" fill="#F5C95B"></path><g clip-path="url(#c104)"><path d="M61.41 108.22A3.2 7.5 -4 1 0 67.79 107.78A3.2 7.5 -4 1 0 61.41 108.22Z" fill="#D9A33C"></path><g transform="translate(-1.05 -1.5)"><path d="M61.41 108.22A3.2 7.5 -4 1 0 67.79 107.78A3.2 7.5 -4 1 0 61.41 108.22Z" fill="#F5C95B"></path></g><path d="M62 106L64.6 108L67.2 106M62 110.6L64.6 112.6L67.2 110.6" fill="none" stroke="#D9A33C" stroke-width="1.2"></path></g><path d="M88.2 146Q87.24 127 85 112" fill="none" stroke="#2B2B3A" stroke-width="9.3" stroke-linecap="round" stroke-linejoin="round"></path><path d="M88.2 146Q87.24 127 85 112" fill="none" stroke="#D9A33C" stroke-width="2.3" stroke-linecap="round" stroke-linejoin="round"></path><path d="M81.82 108.36A3.2 7.5 -6.4 1 0 88.18 107.64A3.2 7.5 -6.4 1 0 81.82 108.36Z" fill="#2B2B3A" stroke="#2B2B3A" stroke-width="4" stroke-linejoin="round"></path><path d="M81.82 108.36A3.2 7.5 -6.4 1 0 88.18 107.64A3.2 7.5 -6.4 1 0 81.82 108.36Z" fill="#F5C95B"></path><g clip-path="url(#c105)"><path d="M81.82 108.36A3.2 7.5 -6.4 1 0 88.18 107.64A3.2 7.5 -6.4 1 0 81.82 108.36Z" fill="#D9A33C"></path><g transform="translate(-1.05 -1.5)"><path d="M81.82 108.36A3.2 7.5 -6.4 1 0 88.18 107.64A3.2 7.5 -6.4 1 0 81.82 108.36Z" fill="#F5C95B"></path></g><path d="M82.4 106L85 108L87.6 106M82.4 110.6L85 112.6L87.6 110.6" fill="none" stroke="#D9A33C" stroke-width="1.2"></path></g><path d="M109.8 146Q109.2 127 107.8 112" fill="none" stroke="#2B2B3A" stroke-width="9.3" stroke-linecap="round" stroke-linejoin="round"></path><path d="M109.8 146Q109.2 127 107.8 112" fill="none" stroke="#D9A33C" stroke-width="2.3" stroke-linecap="round" stroke-linejoin="round"></path><path d="M104.61 108.22A3.2 7.5 -4 1 0 110.99 107.78A3.2 7.5 -4 1 0 104.61 108.22Z" fill="#2B2B3A" stroke="#2B2B3A" stroke-width="4" stroke-linejoin="round"></path><path d="M104.61 108.22A3.2 7.5 -4 1 0 110.99 107.78A3.2 7.5 -4 1 0 104.61 108.22Z" fill="#F5C95B"></path><g clip-path="url(#c106)"><path d="M104.61 108.22A3.2 7.5 -4 1 0 110.99 107.78A3.2 7.5 -4 1 0 104.61 108.22Z" fill="#D9A33C"></path><g transform="translate(-1.05 -1.5)"><path d="M104.61 108.22A3.2 7.5 -4 1 0 110.99 107.78A3.2 7.5 -4 1 0 104.61 108.22Z" fill="#F5C95B"></path></g><path d="M105.2 106L107.8 108L110.4 106M105.2 110.6L107.8 112.6L110.4 110.6" fill="none" stroke="#D9A33C" stroke-width="1.2"></path></g><path d="M131.4 146Q130.44 127 128.2 112" fill="none" stroke="#2B2B3A" stroke-width="9.3" stroke-linecap="round" stroke-linejoin="round"></path><path d="M131.4 146Q130.44 127 128.2 112" fill="none" stroke="#D9A33C" stroke-width="2.3" stroke-linecap="round" stroke-linejoin="round"></path><path d="M125.02 108.36A3.2 7.5 -6.4 1 0 131.38 107.64A3.2 7.5 -6.4 1 0 125.02 108.36Z" fill="#2B2B3A" stroke="#2B2B3A" stroke-width="4" stroke-linejoin="round"></path><path d="M125.02 108.36A3.2 7.5 -6.4 1 0 131.38 107.64A3.2 7.5 -6.4 1 0 125.02 108.36Z" fill="#F5C95B"></path><g clip-path="url(#c107)"><path d="M125.02 108.36A3.2 7.5 -6.4 1 0 131.38 107.64A3.2 7.5 -6.4 1 0 125.02 108.36Z" fill="#D9A33C"></path><g transform="translate(-1.05 -1.5)"><path d="M125.02 108.36A3.2 7.5 -6.4 1 0 131.38 107.64A3.2 7.5 -6.4 1 0 125.02 108.36Z" fill="#F5C95B"></path></g><path d="M125.6 106L128.2 108L130.8 106M125.6 110.6L128.2 112.6L130.8 110.6" fill="none" stroke="#D9A33C" stroke-width="1.2"></path></g><path d="M153 146Q152.4 127 151 112" fill="none" stroke="#2B2B3A" stroke-width="9.3" stroke-linecap="round" stroke-linejoin="round"></path><path d="M153 146Q152.4 127 151 112" fill="none" stroke="#D9A33C" stroke-width="2.3" stroke-linecap="round" stroke-linejoin="round"></path><path d="M147.81 108.22A3.2 7.5 -4 1 0 154.19 107.78A3.2 7.5 -4 1 0 147.81 108.22Z" fill="#2B2B3A" stroke="#2B2B3A" stroke-width="4" stroke-linejoin="round"></path><path d="M147.81 108.22A3.2 7.5 -4 1 0 154.19 107.78A3.2 7.5 -4 1 0 147.81 108.22Z" fill="#F5C95B"></path><g clip-path="url(#c108)"><path d="M147.81 108.22A3.2 7.5 -4 1 0 154.19 107.78A3.2 7.5 -4 1 0 147.81 108.22Z" fill="#D9A33C"></path><g transform="translate(-1.05 -1.5)"><path d="M147.81 108.22A3.2 7.5 -4 1 0 154.19 107.78A3.2 7.5 -4 1 0 147.81 108.22Z" fill="#F5C95B"></path></g><path d="M148.4 106L151 108L153.6 106M148.4 110.6L151 112.6L153.6 110.6" fill="none" stroke="#D9A33C" stroke-width="1.2"></path></g><path d="M39 158Q38.4 139 37 124" fill="none" stroke="#2B2B3A" stroke-width="9.3" stroke-linecap="round" stroke-linejoin="round"></path><path d="M39 158Q38.4 139 37 124" fill="none" stroke="#D9A33C" stroke-width="2.3" stroke-linecap="round" stroke-linejoin="round"></path><path d="M33.81 120.22A3.2 7.5 -4 1 0 40.19 119.78A3.2 7.5 -4 1 0 33.81 120.22Z" fill="#2B2B3A" stroke="#2B2B3A" stroke-width="4" stroke-linejoin="round"></path><path d="M33.81 120.22A3.2 7.5 -4 1 0 40.19 119.78A3.2 7.5 -4 1 0 33.81 120.22Z" fill="#F5C95B"></path><g clip-path="url(#c109)"><path d="M33.81 120.22A3.2 7.5 -4 1 0 40.19 119.78A3.2 7.5 -4 1 0 33.81 120.22Z" fill="#D9A33C"></path><g transform="translate(-1.05 -1.5)"><path d="M33.81 120.22A3.2 7.5 -4 1 0 40.19 119.78A3.2 7.5 -4 1 0 33.81 120.22Z" fill="#F5C95B"></path></g><path d="M34.4 118L37 120L39.6 118M34.4 122.6L37 124.6L39.6 122.6" fill="none" stroke="#D9A33C" stroke-width="1.2"></path></g><path d="M60.6 158Q59.64 139 57.4 124" fill="none" stroke="#2B2B3A" stroke-width="9.3" stroke-linecap="round" stroke-linejoin="round"></path><path d="M60.6 158Q59.64 139 57.4 124" fill="none" stroke="#D9A33C" stroke-width="2.3" stroke-linecap="round" stroke-linejoin="round"></path><path d="M54.22 120.36A3.2 7.5 -6.4 1 0 60.58 119.64A3.2 7.5 -6.4 1 0 54.22 120.36Z" fill="#2B2B3A" stroke="#2B2B3A" stroke-width="4" stroke-linejoin="round"></path><path d="M54.22 120.36A3.2 7.5 -6.4 1 0 60.58 119.64A3.2 7.5 -6.4 1 0 54.22 120.36Z" fill="#F5C95B"></path><g clip-path="url(#c110)"><path d="M54.22 120.36A3.2 7.5 -6.4 1 0 60.58 119.64A3.2 7.5 -6.4 1 0 54.22 120.36Z" fill="#D9A33C"></path><g transform="translate(-1.05 -1.5)"><path d="M54.22 120.36A3.2 7.5 -6.4 1 0 60.58 119.64A3.2 7.5 -6.4 1 0 54.22 120.36Z" fill="#F5C95B"></path></g><path d="M54.8 118L57.4 120L60 118M54.8 122.6L57.4 124.6L60 122.6" fill="none" stroke="#D9A33C" stroke-width="1.2"></path></g><path d="M82.2 158Q81.6 139 80.2 124" fill="none" stroke="#2B2B3A" stroke-width="9.3" stroke-linecap="round" stroke-linejoin="round"></path><path d="M82.2 158Q81.6 139 80.2 124" fill="none" stroke="#D9A33C" stroke-width="2.3" stroke-linecap="round" stroke-linejoin="round"></path><path d="M77.01 120.22A3.2 7.5 -4 1 0 83.39 119.78A3.2 7.5 -4 1 0 77.01 120.22Z" fill="#2B2B3A" stroke="#2B2B3A" stroke-width="4" stroke-linejoin="round"></path><path d="M77.01 120.22A3.2 7.5 -4 1 0 83.39 119.78A3.2 7.5 -4 1 0 77.01 120.22Z" fill="#F5C95B"></path><g clip-path="url(#c111)"><path d="M77.01 120.22A3.2 7.5 -4 1 0 83.39 119.78A3.2 7.5 -4 1 0 77.01 120.22Z" fill="#D9A33C"></path><g transform="translate(-1.05 -1.5)"><path d="M77.01 120.22A3.2 7.5 -4 1 0 83.39 119.78A3.2 7.5 -4 1 0 77.01 120.22Z" fill="#F5C95B"></path></g><path d="M77.6 118L80.2 120L82.8 118M77.6 122.6L80.2 124.6L82.8 122.6" fill="none" stroke="#D9A33C" stroke-width="1.2"></path></g><path d="M103.8 158Q102.84 139 100.6 124" fill="none" stroke="#2B2B3A" stroke-width="9.3" stroke-linecap="round" stroke-linejoin="round"></path><path d="M103.8 158Q102.84 139 100.6 124" fill="none" stroke="#D9A33C" stroke-width="2.3" stroke-linecap="round" stroke-linejoin="round"></path><path d="M97.42 120.36A3.2 7.5 -6.4 1 0 103.78 119.64A3.2 7.5 -6.4 1 0 97.42 120.36Z" fill="#2B2B3A" stroke="#2B2B3A" stroke-width="4" stroke-linejoin="round"></path><path d="M97.42 120.36A3.2 7.5 -6.4 1 0 103.78 119.64A3.2 7.5 -6.4 1 0 97.42 120.36Z" fill="#F5C95B"></path><g clip-path="url(#c112)"><path d="M97.42 120.36A3.2 7.5 -6.4 1 0 103.78 119.64A3.2 7.5 -6.4 1 0 97.42 120.36Z" fill="#D9A33C"></path><g transform="translate(-1.05 -1.5)"><path d="M97.42 120.36A3.2 7.5 -6.4 1 0 103.78 119.64A3.2 7.5 -6.4 1 0 97.42 120.36Z" fill="#F5C95B"></path></g><path d="M98 118L100.6 120L103.2 118M98 122.6L100.6 124.6L103.2 122.6" fill="none" stroke="#D9A33C" stroke-width="1.2"></path></g><path d="M125.4 158Q124.8 139 123.4 124" fill="none" stroke="#2B2B3A" stroke-width="9.3" stroke-linecap="round" stroke-linejoin="round"></path><path d="M125.4 158Q124.8 139 123.4 124" fill="none" stroke="#D9A33C" stroke-width="2.3" stroke-linecap="round" stroke-linejoin="round"></path><path d="M120.21 120.22A3.2 7.5 -4 1 0 126.59 119.78A3.2 7.5 -4 1 0 120.21 120.22Z" fill="#2B2B3A" stroke="#2B2B3A" stroke-width="4" stroke-linejoin="round"></path><path d="M120.21 120.22A3.2 7.5 -4 1 0 126.59 119.78A3.2 7.5 -4 1 0 120.21 120.22Z" fill="#F5C95B"></path><g clip-path="url(#c113)"><path d="M120.21 120.22A3.2 7.5 -4 1 0 126.59 119.78A3.2 7.5 -4 1 0 120.21 120.22Z" fill="#D9A33C"></path><g transform="translate(-1.05 -1.5)"><path d="M120.21 120.22A3.2 7.5 -4 1 0 126.59 119.78A3.2 7.5 -4 1 0 120.21 120.22Z" fill="#F5C95B"></path></g><path d="M120.8 118L123.4 120L126 118M120.8 122.6L123.4 124.6L126 122.6" fill="none" stroke="#D9A33C" stroke-width="1.2"></path></g><path d="M147 158Q146.04 139 143.8 124" fill="none" stroke="#2B2B3A" stroke-width="9.3" stroke-linecap="round" stroke-linejoin="round"></path><path d="M147 158Q146.04 139 143.8 124" fill="none" stroke="#D9A33C" stroke-width="2.3" stroke-linecap="round" stroke-linejoin="round"></path><path d="M140.62 120.36A3.2 7.5 -6.4 1 0 146.98 119.64A3.2 7.5 -6.4 1 0 140.62 120.36Z" fill="#2B2B3A" stroke="#2B2B3A" stroke-width="4" stroke-linejoin="round"></path><path d="M140.62 120.36A3.2 7.5 -6.4 1 0 146.98 119.64A3.2 7.5 -6.4 1 0 140.62 120.36Z" fill="#F5C95B"></path><g clip-path="url(#c114)"><path d="M140.62 120.36A3.2 7.5 -6.4 1 0 146.98 119.64A3.2 7.5 -6.4 1 0 140.62 120.36Z" fill="#D9A33C"></path><g transform="translate(-1.05 -1.5)"><path d="M140.62 120.36A3.2 7.5 -6.4 1 0 146.98 119.64A3.2 7.5 -6.4 1 0 140.62 120.36Z" fill="#F5C95B"></path></g><path d="M141.2 118L143.8 120L146.4 118M141.2 122.6L143.8 124.6L146.4 122.6" fill="none" stroke="#D9A33C" stroke-width="1.2"></path></g><path d="M51.8 94.57Q52 94 52.2 94.57L53.36 97.87Q53.56 98.44 54.13 98.64L57.43 99.8Q58 100 57.43 100.2L54.13 101.36Q53.56 101.56 53.36 102.13L52.2 105.43Q52 106 51.8 105.43L50.64 102.13Q50.44 101.56 49.87 101.36L46.57 100.2Q46 100 46.57 99.8L49.87 98.64Q50.44 98.44 50.64 97.87Z" fill="#2B2B3A" stroke="#2B2B3A" stroke-width="4" stroke-linejoin="round"></path><path d="M51.8 94.57Q52 94 52.2 94.57L53.36 97.87Q53.56 98.44 54.13 98.64L57.43 99.8Q58 100 57.43 100.2L54.13 101.36Q53.56 101.56 53.36 102.13L52.2 105.43Q52 106 51.8 105.43L50.64 102.13Q50.44 101.56 49.87 101.36L46.57 100.2Q46 100 46.57 99.8L49.87 98.64Q50.44 98.44 50.64 97.87Z" fill="#FFF0B0"></path></svg>