<svg xmlns="http://www.w3.org/2000/svg" width="512" height="128" viewBox="0 0 512 128" xmlns:c2pa="http://c2pa.org/manifest"><metadata><c2pa:manifest>AAAWgmp1bWIAAAAeanVtZGMycGEAEQAQgAAAqgA4m3EDYzJwYQAAABZcanVtYgAAAEdqdW1kYzJtYQARABCAAACqADibcQN1cm46YzJwYTplZjlhMzNiNC1mNDIzLTQ3MTMtODI3OC1mM2FiMDk0ZjY0NDYAAAADl2p1bWIAAAApanVtZGMyYXMAEQAQgAAAqgA4m3EDYzJwYS5hc3NlcnRpb25zAAAAALxqdW1iAAAARGp1bWRjYm9yABEAEIAAAKoAOJtxE2MycGEuaW5ncmVkaWVudC52MwAAAAAYYzJzaNsmBNo0M9Ov3bpqbFQUT+8AAABwY2JvcqNpZGM6Zm9ybWF0bWltYWdlL3N2Zyt4bWxqaW5zdGFuY2VJRHgseG1wOmlpZDplYmE0ZDMyOC0yYjBlLTQ1OWMtODEzYy02NDNiNGI3OWJkZjJscmVsYXRpb25zaGlwaHBhcmVudE9mAAAB4mp1bWIAAABBanVtZGNib3IAEQAQgAAAqgA4m3ETYzJwYS5hY3Rpb25zLnYyAAAAABhjMnNo+UHFFa5RnqvKtcMJkym2bgAAAZljYm9yomdhY3Rpb25zgqJmYWN0aW9ua2MycGEub3BlbmVkanBhcmFtZXRlcnOha2luZ3JlZGllbnRzgaJjdXJseC1zZWxmI2p1bWJmPWMycGEuYXNzZXJ0aW9ucy9jMnBhLmluZ3JlZGllbnQudjNkaGFzaFggas+8wxiOwcKIUBJ02yvTTYTax+sxHFy2iB5g1p+RIw6kZmFjdGlvbngdY29tLmFudGhyb3BpYy5jbGF1ZGUucHJvdmlkZWRqcGFyYW1ldGVyc6F4H2NvbS5hbnRocm9waWMub3JpZ2luLWNvbmZpZGVuY2VndW5rbm93bmtkZXNjcmlwdGlvbnhmQ2xhdWRlIHByb3ZpZGVkIHRoaXMgZmlsZSBhdCB0aGUgcmVxdWVzdCBvZiBhIHVzZXIgYW5kIG1heSBoYXZlIGNyZWF0ZWQgb3IgbW9kaWZpZWQgdGhlIGZpbGUgY29udGVudHMubXNvZnR3YXJlQWdlbnShZG5hbWVmQ2xhdWRlcmFsbEFjdGlvbnNJbmNsdWRlZPUAAADIanVtYgAAAEBqdW1kY2JvcgARABCAAACqADibcRNjMnBhLmhhc2guZGF0YQAAAAAYYzJzaCBCeymL1CCbqOMvRm+pmtAAAACAY2JvcqVjYWxnZnNoYTI1NmNwYWRNAAAAAAAAAAAAAAAAAGRoYXNoWCAA9gIYA83Kj04mWXAKB95cpwTc6P8xHLVHKTy+ihGO2mRuYW1lbmp1bWJmIG1hbmlmZXN0amV4Y2x1c2lvbnOBomVzdGFydBiWZmxlbmd0aBkeBAAAAj5qdW1iAAAAJ2p1bWRjMmNsABEAEIAAAKoAOJtxA2MycGEuY2xhaW0udjIAAAACD2Nib3KlY2FsZ2ZzaGEyNTZpc2lnbmF0dXJleE1zZWxmI2p1bWJmPS9jMnBhL3VybjpjMnBhOmVmOWEzM2I0LWY0MjMtNDcxMy04Mjc4LWYzYWIwOTRmNjQ0Ni9jMnBhLnNpZ25hdHVyZWppbnN0YW5jZUlEeCx4bXA6aWlkOmJlOGRlNzEwLTQwZmUtNGViNy1iN2M0LWJiOGExMGYwMWYxMnJjcmVhdGVkX2Fzc2VydGlvbnODomN1cmx4LXNlbGYjanVtYmY9YzJwYS5hc3NlcnRpb25zL2MycGEuaW5ncmVkaWVudC52M2RoYXNoWCBqz7zDGI7BwohQEnTbK9NNhNrH6zEcXLaIHmDWn5EjDqJjdXJseCpzZWxmI2p1bWJmPWMycGEuYXNzZXJ0aW9ucy9jMnBhLmFjdGlvbnMudjJkaGFzaFggGHpLu+5GqUWZAYSjcT20mlGnsnL2OhdMIRn9XG0I0pmiY3VybHgpc2VsZiNqdW1iZj1jMnBhLmFzc2VydGlvbnMvYzJwYS5oYXNoLmRhdGFkaGFzaFggwdl+80B/UfRP4VVBUvXwqKYMoPUubZMLk/cLE7tcMfx0Y2xhaW1fZ2VuZXJhdG9yX2luZm+jZG5hbWVvQW50aHJvcGljIEZpbGVzZ3ZlcnNpb25lMS4wLjBrc3BlY1ZlcnNpb25lMi40LjAAABA4anVtYgAAAChqdW1kYzJjcwARABCAAACqADibcQNjMnBhLnNpZ25hdHVyZQAAABAIY2JvctKEWQISogEmGCFZAgowggIGMIIBjaADAgECAhRA5aAK7sI50L64g/oGQgU9Z1UTADAKBggqhkjOPQQDAzBJMRcwFQYDVQQKEw5BbnRocm9waWMsIFBCQzEuMCwGA1UEAxMlQW50aHJvcGljIENvbnRlbnQgQ3JlZGVudGlhbHMgUm9vdCBDQTAeFw0yNjA4MDcxODQzNTZaFw0yODA4MDYxOTQzNTZaMEQxFzAVBgNVBAoTDkFudGhyb3BpYywgUEJDMSkwJwYDVQQDEyBBbnRocm9waWMgQ2xhdWRlIENvbnRlbnQgU2lnbmluZzBZMBMGByqGSM49AgEGCCqGSM49AwEHA0IABJh6CmvLUBgFFNU0vUKlOVtE6djd17L5SuwX0LemFisBM3dkd/3cyjxFA3Qo5S46fX0/ihY0VZ7mfb9KF703t5OjWDBWMA4GA1UdDwEB/wQEAwIHgDAVBgNVHSUEDjAMBgorBgEEAYPoXgIBMAwGA1UdEwEB/wQCMAAwHwYDVR0jBBgwFoAUzlHiBIFOZFsj+OPEz5o+nMHXXMIwCgYIKoZIzj0EAwMDZwAwZAIwMXMdFJ4BetLLVY7ORuE9noqbbAZOZn/aArXyTwFAZfKrPzxF2vPoJNf1+UCdg1XGAjBwX1zd9WGqYkqmL5SFqw1QySjr1zJfpJM9+1rdDwSPLMOPOjKuiXjoU/pUUeG9RwmhY3BhZFkNngAAAAAAAAAAAAAAAAAAAAAAAAAAAAAAAAAAAAAAAAAAAAAAAAAAAAAAAAAAAAAAAAAAAAAAAAAAAAAAAAAAAAAAAAAAAAAAAAAAAAAAAAAAAAAAAAAAAAAAAAAAAAAAAAAAAAAAAAAAAAAAAAAAAAAAAAAAAAAAAAAAAAAAAAAAAAAAAAAAAAAAAAAAAAAAAAAAAAAAAAAAAAAAAAAAAAAAAAAAAAAAAAAAAAAAAAAAAAAAAAAAAAAAAAAAAAAAAAAAAAAAAAAAAAAAAAAAAAAAAAAAAAAAAAAAAAAAAAAAAAAAAAAAAAAAAAAAAAAAAAAAAAAAAAAAAAAAAAAAAAAAAAAAAAAAAAAAAAAAAAAAAAAAAAAAAAAAAAAAAAAAAAAAAAAAAAAAAAAAAAAAAAAAAAAAAAAAAAAAAAAAAAAAAAAAAAAAAAAAAAAAAAAAAAAAAAAAAAAAAAAAAAAAAAAAAAAAAAAAAAAAAAAAAAAAAAAAAAAAAAAAAAAAAAAAAAAAAAAAAAAAAAAAAAAAAAAAAAAAAAAAAAAAAAAAAAAAAAAAAAAAAAAAAAAAAAAAAAAAAAAAAAAAAAAAAAAAAAAAAAAAAAAAAAAAAAAAAAAAAAAAAAAAAAAAAAAAAAAAAAAAAAAAAAAAAAAAAAAAAAAAAAAAAAAAAAAAAAAAAAAAAAAAAAAAAAAAAAAAAAAAAAAAAAAAAAAAAAAAAAAAAAAAAAAAAAAAAAAAAAAAAAAAAAAAAAAAAAAAAAAAAAAAAAAAAAAAAAAAAAAAAAAAAAAAAAAAAAAAAAAAAAAAAAAAAAAAAAAAAAAAAAAAAAAAAAAAAAAAAAAAAAAAAAAAAAAAAAAAAAAAAAAAAAAAAAAAAAAAAAAAAAAAAAAAAAAAAAAAAAAAAAAAAAAAAAAAAAAAAAAAAAAAAAAAAAAAAAAAAAAAAAAAAAAAAAAAAAAAAAAAAAAAAAAAAAAAAAAAAAAAAAAAAAAAAAAAAAAAAAAAAAAAAAAAAAAAAAAAAAAAAAAAAAAAAAAAAAAAAAAAAAAAAAAAAAAAAAAAAAAAAAAAAAAAAAAAAAAAAAAAAAAAAAAAAAAAAAAAAAAAAAAAAAAAAAAAAAAAAAAAAAAAAAAAAAAAAAAAAAAAAAAAAAAAAAAAAAAAAAAAAAAAAAAAAAAAAAAAAAAAAAAAAAAAAAAAAAAAAAAAAAAAAAAAAAAAAAAAAAAAAAAAAAAAAAAAAAAAAAAAAAAAAAAAAAAAAAAAAAAAAAAAAAAAAAAAAAAAAAAAAAAAAAAAAAAAAAAAAAAAAAAAAAAAAAAAAAAAAAAAAAAAAAAAAAAAAAAAAAAAAAAAAAAAAAAAAAAAAAAAAAAAAAAAAAAAAAAAAAAAAAAAAAAAAAAAAAAAAAAAAAAAAAAAAAAAAAAAAAAAAAAAAAAAAAAAAAAAAAAAAAAAAAAAAAAAAAAAAAAAAAAAAAAAAAAAAAAAAAAAAAAAAAAAAAAAAAAAAAAAAAAAAAAAAAAAAAAAAAAAAAAAAAAAAAAAAAAAAAAAAAAAAAAAAAAAAAAAAAAAAAAAAAAAAAAAAAAAAAAAAAAAAAAAAAAAAAAAAAAAAAAAAAAAAAAAAAAAAAAAAAAAAAAAAAAAAAAAAAAAAAAAAAAAAAAAAAAAAAAAAAAAAAAAAAAAAAAAAAAAAAAAAAAAAAAAAAAAAAAAAAAAAAAAAAAAAAAAAAAAAAAAAAAAAAAAAAAAAAAAAAAAAAAAAAAAAAAAAAAAAAAAAAAAAAAAAAAAAAAAAAAAAAAAAAAAAAAAAAAAAAAAAAAAAAAAAAAAAAAAAAAAAAAAAAAAAAAAAAAAAAAAAAAAAAAAAAAAAAAAAAAAAAAAAAAAAAAAAAAAAAAAAAAAAAAAAAAAAAAAAAAAAAAAAAAAAAAAAAAAAAAAAAAAAAAAAAAAAAAAAAAAAAAAAAAAAAAAAAAAAAAAAAAAAAAAAAAAAAAAAAAAAAAAAAAAAAAAAAAAAAAAAAAAAAAAAAAAAAAAAAAAAAAAAAAAAAAAAAAAAAAAAAAAAAAAAAAAAAAAAAAAAAAAAAAAAAAAAAAAAAAAAAAAAAAAAAAAAAAAAAAAAAAAAAAAAAAAAAAAAAAAAAAAAAAAAAAAAAAAAAAAAAAAAAAAAAAAAAAAAAAAAAAAAAAAAAAAAAAAAAAAAAAAAAAAAAAAAAAAAAAAAAAAAAAAAAAAAAAAAAAAAAAAAAAAAAAAAAAAAAAAAAAAAAAAAAAAAAAAAAAAAAAAAAAAAAAAAAAAAAAAAAAAAAAAAAAAAAAAAAAAAAAAAAAAAAAAAAAAAAAAAAAAAAAAAAAAAAAAAAAAAAAAAAAAAAAAAAAAAAAAAAAAAAAAAAAAAAAAAAAAAAAAAAAAAAAAAAAAAAAAAAAAAAAAAAAAAAAAAAAAAAAAAAAAAAAAAAAAAAAAAAAAAAAAAAAAAAAAAAAAAAAAAAAAAAAAAAAAAAAAAAAAAAAAAAAAAAAAAAAAAAAAAAAAAAAAAAAAAAAAAAAAAAAAAAAAAAAAAAAAAAAAAAAAAAAAAAAAAAAAAAAAAAAAAAAAAAAAAAAAAAAAAAAAAAAAAAAAAAAAAAAAAAAAAAAAAAAAAAAAAAAAAAAAAAAAAAAAAAAAAAAAAAAAAAAAAAAAAAAAAAAAAAAAAAAAAAAAAAAAAAAAAAAAAAAAAAAAAAAAAAAAAAAAAAAAAAAAAAAAAAAAAAAAAAAAAAAAAAAAAAAAAAAAAAAAAAAAAAAAAAAAAAAAAAAAAAAAAAAAAAAAAAAAAAAAAAAAAAAAAAAAAAAAAAAAAAAAAAAAAAAAAAAAAAAAAAAAAAAAAAAAAAAAAAAAAAAAAAAAAAAAAAAAAAAAAAAAAAAAAAAAAAAAAAAAAAAAAAAAAAAAAAAAAAAAAAAAAAAAAAAAAAAAAAAAAAAAAAAAAAAAAAAAAAAAAAAAAAAAAAAAAAAAAAAAAAAAAAAAAAAAAAAAAAAAAAAAAAAAAAAAAAAAAAAAAAAAAAAAAAAAAAAAAAAAAAAAAAAAAAAAAAAAAAAAAAAAAAAAAAAAAAAAAAAAAAAAAAAAAAAAAAAAAAAAAAAAAAAAAAAAAAAAAAAAAAAAAAAAAAAAAAAAAAAAAAAAAAAAAAAAAAAAAAAAAAAAAAAAAAAAAAAAAAAAAAAAAAAAAAAAAAAAAAAAAAAAAAAAAAAAAAAAAAAAAAAAAAAAAAAAAAAAAAAAAAAAAAAAAAAAAAAAAAAAAAAAAAAAAAAAAAAAAAAAAAAAAAAAAAAAAAAAAAAAAAAAAAAAAAAAAAAAAAAAAAAAAAAAAAAAAAAAAAAAAAAAAAAAAAAAAAAAAAAAAAAAAAAAAAAAAAAAAAAAAAAAAAAAAAAAAAAAAAAAAAAAAAAAAAAAAAAAAAAAAAAAAAAAAAAAAAAAAAAAAAAAAAAAAAAAAAAAAAAAAAAAAAAAAAAAAAAAAAAAAAAAAAAAAAAAAAAAAAAAAAAAAAAAAAAAAAAAAAAAAAAAAAAAAAAAAAAAAAAAAAAAAAAAAAAAAAAAAAAAAAAAAAAAAAAAAAAAAAAAAAAAAAAAAAAAAAAAAAAAAAAAAAAAAAAAAAAAAAAAAAAAAAAAAAAAAAAAAAAAAAAAAAAAAAAAAAAAAAAAAAAAAAAAAAAAAAAAAAAAAAAAAAAAAAAAAAAAAAAAAAAAAAAAAAAAAAAAAAAAAAAAAAAAAAAAAAAAAAAAAAAAAAAAAAAAAAAAAAAAAAAAAAAAAAAAAAAAAAAAAAAAAAAAAAAAAAAAAAAAAAAAAAAAAAAAAAAAAAAAAAAAAAAAAAAAAAAAAAAAAAAAAAAAAAAAAAAAAAAAAAAAAAAAAAAAAAAAAAAAAAAAAAAAAAAAAAAAAAAAAAAAAAAAAAAAAAAAAAAAAAAAAAAAAAAAAAAAAAAAAAAAAAAAAAAAAAAAAAAAAAAAAAAAAAAAAAAAAAAAAAAAAAAAAAAAAAAAAAAAAAAAAAAAAAAAAAAAAAAAAAAAAAAAAAAAAAAAAAAAAAAAAAAAAAAAAAAAAAAAAAAAAAAAAAAAAAAAAAAAAAAAAAAAAAAAAAAAAAAAAAAAAAAAAAAAAAAAAAAAAAAAAAAAAAAAAAAAAAAAAAAAAAAAAAAAAAAAAAAAAAAAAAAAAAAAAAAAAAAAAAAAAAAAAAAAAAAAAAAAAAAAAAAAAAAAAAAAAAAAAAAAAAAAAAAAAAAAAAAAAAAAAAAAAAAAAAAAAAAAAAAAAAAAAAAAAAAAAAAAAAAAAAAAAAAAAAAAAAAAAAAAAAAAAAAAAAAAAAAAAAAAAAAAAAAAAAAAAAAAAAAAAAAAAAAAAAAAAAAAAAAAAAAAAAAAAAAAAAAAAAAAAAAAAAAAAAAAAAAAAAAAAAAAAAAAAAAAAAAAAAAAAAAAAAAAAAAAAAAAAAAAAAAAAAAAAAAAAAAAAAAAAAAAAAAAAAAAAAAAAAAAAAAAAAAAAAAAAAAAAAAAAAAAAAAAAAAAAAAAAAAAAAAAAAAAAAAAAAAAAAAAAAAAAAAAAAAAAAAAAAAAAAAAAAAAAAAAAAAAAAAAAAAAAAAAAAAAAAAAAAAAAAAAAAAAAAAAAAAAAAAAAAAAAAAAAAAAAAAAAAAAAAAAAPZYQNunKoDZrLuhqQxKvshsTPWoJqdEgs9TXnPkILSXcwkLZB4Ru1GqGEMa4Q4dW1yW4RQfogTsl7JP+EcA/lPOqbQ=</c2pa:manifest></metadata><svg x="0" y="0" width="128" height="128" viewBox="0 0 128 128"><defs><clipPath id="c257"><path d="M43.5 93A19.5 16 0 1 0 82.5 93A19.5 16 0 1 0 43.5 93Z"></path></clipPath><clipPath id="c258"><path d="M29 55A31 25 0 1 0 91 55A31 25 0 1 0 29 55Z"></path></clipPath><clipPath id="c259"><path d="M38.49 36.04Q35 38 34.22 34.08L31.78 21.92Q31 18 34.5 19.93L47.5 27.07Q51 29 47.51 30.96Z"></path></clipPath><clipPath id="c260"><path d="M70.81 32.2Q67 31 69.54 27.91L78.46 17.09Q81 14 81.85 17.91L85.15 33.09Q86 37 82.19 35.8Z"></path></clipPath><clipPath id="c261"><path d="M85.5 62A8.5 9 0 1 0 102.5 62A8.5 9 0 1 0 85.5 62Z"></path></clipPath></defs><g transform="translate(0 0) rotate(16 64 116)"><g transform="translate(0 1) rotate(6 47 96)"><path d="M46 94C39 96 34 91 36.5 86.5C39 82.5 44.5 85 42.5 88.5" fill="none" stroke="#2B2B3A" stroke-width="10.6" stroke-linecap="round" stroke-linejoin="round"></path><path d="M46 94C39 96 34 91 36.5 86.5C39 82.5 44.5 85 42.5 88.5" fill="none" stroke="#E77A93" stroke-width="3.6" stroke-linecap="round" stroke-linejoin="round"></path></g><path d="M56 101L47.7 107" fill="none" stroke="#2B2B3A" stroke-width="16" stroke-linecap="round" stroke-linejoin="round"></path><path d="M56 101L47.7 107" fill="none" stroke="#D9A33C" stroke-width="9" stroke-linecap="round" stroke-linejoin="round"></path><path d="M34.5 111.5A7 4.3 0 1 0 48.5 111.5A7 4.3 0 1 0 34.5 111.5Z" fill="#2B2B3A" stroke="#2B2B3A" stroke-width="7" stroke-linejoin="round"></path><path d="M34.5 111.5A7 4.3 0 1 0 48.5 111.5A7 4.3 0 1 0 34.5 111.5Z" fill="#C45C76"></path><g transform="translate(0 1)"><path d="M53 87C55.41 88 63.35 92.28 67.47 93.02C71.59 93.77 75.99 91.74 77.7 91.49" fill="none" stroke="#2B2B3A" stroke-width="14.5" stroke-linecap="round" stroke-linejoin="round"></path><path d="M53 87C55.41 88 63.35 92.28 67.47 93.02C71.59 93.77 75.99 91.74 77.7 91.49" fill="none" stroke="#EE8AA2" stroke-width="7.5" stroke-linecap="round" stroke-linejoin="round"></path></g><g transform="translate(0 1)"><path d="M73.81 91.55A4.8 4.5 0 1 0 83.41 91.55A4.8 4.5 0 1 0 73.81 91.55Z" fill="#2B2B3A" stroke="#2B2B3A" stroke-width="7" stroke-linejoin="round"></path><path d="M73.81 91.55A4.8 4.5 0 1 0 83.41 91.55A4.8 4.5 0 1 0 73.81 91.55Z" fill="#C45C76"></path></g><g transform="translate(0 1)"><path d="M43.5 93A19.5 16 0 1 0 82.5 93A19.5 16 0 1 0 43.5 93Z" fill="#2B2B3A" stroke="#2B2B3A" stroke-width="7" stroke-linejoin="round"></path><path d="M43.5 93A19.5 16 0 1 0 82.5 93A19.5 16 0 1 0 43.5 93Z" fill="#F5C95B"></path><g clip-path="url(#c257)"><path d="M43.5 93A19.5 16 0 1 0 82.5 93A19.5 16 0 1 0 43.5 93Z" fill="#D9A33C"></path><g transform="translate(-2.24 -3.2)"><path d="M43.5 93A19.5 16 0 1 0 82.5 93A19.5 16 0 1 0 43.5 93Z" fill="#F5C95B"></path></g><path d="M46.54 90A4 2.4 -30 1 0 53.46 86A4 2.4 -30 1 0 46.54 90Z" fill="#FFE7A3"></path></g></g><path d="M69 101L77.3 107" fill="none" stroke="#2B2B3A" stroke-width="16" stroke-linecap="round" stroke-linejoin="round"></path><path d="M69 101L77.3 107" fill="none" stroke="#F5C95B" stroke-width="9" stroke-linecap="round" stroke-linejoin="round"></path><path d="M76 111.5A7.5 4.5 0 1 0 91 111.5A7.5 4.5 0 1 0 76 111.5Z" fill="#2B2B3A" stroke="#2B2B3A" stroke-width="7" stroke-linejoin="round"></path><path d="M76 111.5A7.5 4.5 0 1 0 91 111.5A7.5 4.5 0 1 0 76 111.5Z" fill="#E77A93"></path><g transform="translate(0 1)"><path d="M67 81H74Q79 81 79 86V90Q79 95 74 95H67Q62 95 62 90V86Q62 81 67 81Z" fill="#2B2B3A" stroke="#2B2B3A" stroke-width="5" stroke-linejoin="round"></path><path d="M67 81H74Q79 81 79 86V90Q79 95 74 95H67Q62 95 62 90V86Q62 81 67 81Z" fill="#F5C95B"></path></g><g transform="translate(0 1)"><path d="M63.4 84.5A2.1 2.1 0 1 0 67.6 84.5A2.1 2.1 0 1 0 63.4 84.5Z" fill="#2B2B3A" stroke="#2B2B3A" stroke-width="2.4" stroke-linejoin="round"></path><path d="M63.4 84.5A2.1 2.1 0 1 0 67.6 84.5A2.1 2.1 0 1 0 63.4 84.5Z" fill="#8D5A3B"></path></g><g transform="translate(0 1)"><path d="M73.4 84A2.1 2.1 0 1 0 77.6 84A2.1 2.1 0 1 0 73.4 84Z" fill="#2B2B3A" stroke="#2B2B3A" stroke-width="2.4" stroke-linejoin="round"></path><path d="M73.4 84A2.1 2.1 0 1 0 77.6 84A2.1 2.1 0 1 0 73.4 84Z" fill="#8D5A3B"></path></g><g transform="translate(0 1) rotate(0 62 80)"><path d="M29 55A31 25 0 1 0 91 55A31 25 0 1 0 29 55Z" fill="#2B2B3A" stroke="#2B2B3A" stroke-width="7" stroke-linejoin="round"></path><path d="M29 55A31 25 0 1 0 91 55A31 25 0 1 0 29 55Z" fill="#FFB0C0"></path><g clip-path="url(#c258)"><path d="M29 55A31 25 0 1 0 91 55A31 25 0 1 0 29 55Z" fill="#EE8AA2"></path><g transform="translate(-3.5 -5)"><path d="M29 55A31 25 0 1 0 91 55A31 25 0 1 0 29 55Z" fill="#FFB0C0"></path></g><path d="M38.8 43A6 3 -30 1 0 49.2 37A6 3 -30 1 0 38.8 43Z" fill="#FFD8E0"></path></g></g><g transform="translate(0 1) rotate(0 62 80) translate(0 -4) rotate(-6 42 32)"><path d="M38.49 36.04Q35 38 34.22 34.08L31.78 21.92Q31 18 34.5 19.93L47.5 27.07Q51 29 47.51 30.96Z" fill="#2B2B3A" stroke="#2B2B3A" stroke-width="7" stroke-linejoin="round"></path><path d="M38.49 36.04Q35 38 34.22 34.08L31.78 21.92Q31 18 34.5 19.93L47.5 27.07Q51 29 47.51 30.96Z" fill="#FFB0C0"></path><g clip-path="url(#c259)"><path d="M39.31 33.15Q37.5 34 37.01 32.06L35.49 25.94Q35 24 36.76 24.96L44.24 29.04Q46 30 44.19 30.85Z" fill="#E77A93"></path></g></g><g transform="translate(0 1) rotate(0 62 80) translate(0 -4) rotate(-6 76 30)"><path d="M70.81 32.2Q67 31 69.54 27.91L78.46 17.09Q81 14 81.85 17.91L85.15 33.09Q86 37 82.19 35.8Z" fill="#2B2B3A" stroke="#2B2B3A" stroke-width="7" stroke-linejoin="round"></path><path d="M70.81 32.2Q67 31 69.54 27.91L78.46 17.09Q81 14 81.85 17.91L85.15 33.09Q86 37 82.19 35.8Z" fill="#FFB0C0"></path><g clip-path="url(#c260)"><path d="M72.94 31.49Q71 31 72.3 29.48L78.7 22.02Q80 20.5 80.43 22.45L82.57 32.05Q83 34 81.06 33.51Z" fill="#E77A93"></path></g></g><g transform="translate(0 1) rotate(0 62 80)"><path d="M43.82 55.5A5.68 6.6 0 1 0 55.18 55.5A5.68 6.6 0 1 0 43.82 55.5Z" fill="#fff"></path><path d="M46.33 56.16A4.09 5.15 0 1 0 54.52 56.16A4.09 5.15 0 1 0 46.33 56.16Z" fill="#2B2B3A"></path><path d="M47.48 54.31A1.72 1.72 0 1 0 50.92 54.31A1.72 1.72 0 1 0 47.48 54.31Z" fill="#fff"></path><path d="M51.41 58.43A0.74 0.74 0 1 0 52.88 58.43A0.74 0.74 0 1 0 51.41 58.43Z" fill="#fff"></path><path d="M65.64 54.5A6.36 7.4 0 1 0 78.36 54.5A6.36 7.4 0 1 0 65.64 54.5Z" fill="#fff"></path><path d="M68.45 55.24A4.59 5.77 0 1 0 77.62 55.24A4.59 5.77 0 1 0 68.45 55.24Z" fill="#2B2B3A"></path><path d="M69.73 53.16A1.93 1.93 0 1 0 73.59 53.16A1.93 1.93 0 1 0 69.73 53.16Z" fill="#fff"></path><path d="M74.14 57.78A0.83 0.83 0 1 0 75.79 57.78A0.83 0.83 0 1 0 74.14 57.78Z" fill="#fff"></path></g><g transform="translate(0 1) rotate(0 62 80)"><path d="M85.5 62A8.5 9 0 1 0 102.5 62A8.5 9 0 1 0 85.5 62Z" fill="#2B2B3A" stroke="#2B2B3A" stroke-width="7" stroke-linejoin="round"></path><path d="M85.5 62A8.5 9 0 1 0 102.5 62A8.5 9 0 1 0 85.5 62Z" fill="#F7A1B5"></path><g clip-path="url(#c261)"><path d="M85.5 62A8.5 9 0 1 0 102.5 62A8.5 9 0 1 0 85.5 62Z" fill="#E27D96"></path><g transform="translate(-1.26 -1.8)"><path d="M85.5 62A8.5 9 0 1 0 102.5 62A8.5 9 0 1 0 85.5 62Z" fill="#F7A1B5"></path></g><path d="M90.5 62.5A1.5 2.6 0 1 0 93.5 62.5A1.5 2.6 0 1 0 90.5 62.5Z" fill="#B9506A"></path><path d="M96.2 62A1.3 2.4 0 1 0 98.8 62A1.3 2.4 0 1 0 96.2 62Z" fill="#B9506A"></path><path d="M88.56 57.89A2.6 1.6 -20 1 0 93.44 56.11A2.6 1.6 -20 1 0 88.56 57.89Z" fill="#FFCFDA"></path></g></g><g transform="translate(0 1) rotate(0 62 80)"><path d="M82 73Q87 81 92 72.5Z" fill="#C9475A" stroke="#2B2B3A" stroke-width="2" stroke-linecap="round" stroke-linejoin="round"></path></g><g transform="translate(0 1)"><path d="M73 86C75.41 85 83.09 81.08 87.47 79.98C91.85 78.87 97.32 79.45 99.29 79.35" fill="none" stroke="#2B2B3A" stroke-width="15" stroke-linecap="round" stroke-linejoin="round"></path><path d="M73 86C75.41 85 83.09 81.08 87.47 79.98C91.85 78.87 97.32 79.45 99.29 79.35" fill="none" stroke="#FFB0C0" stroke-width="8" stroke-linecap="round" stroke-linejoin="round"></path></g><g transform="translate(0 1)"><path d="M96.17 79.07A5 4.7 0 1 0 106.17 79.07A5 4.7 0 1 0 96.17 79.07Z" fill="#2B2B3A" stroke="#2B2B3A" stroke-width="7" stroke-linejoin="round"></path><path d="M96.17 79.07A5 4.7 0 1 0 106.17 79.07A5 4.7 0 1 0 96.17 79.07Z" fill="#E77A93"></path></g></g></svg><svg x="128" y="0" width="128" height="128" viewBox="0 0 128 128"><defs><clipPath id="c262"><path d="M43.5 93A19.5 16 0 1 0 82.5 93A19.5 16 0 1 0 43.5 93Z"></path></clipPath><clipPath id="c263"><path d="M29 55A31 25 0 1 0 91 55A31 25 0 1 0 29 55Z"></path></clipPath><clipPath id="c264"><path d="M38.49 36.04Q35 38 34.22 34.08L31.78 21.92Q31 18 34.5 19.93L47.5 27.07Q51 29 47.51 30.96Z"></path></clipPath><clipPath id="c265"><path d="M70.81 32.2Q67 31 69.54 27.91L78.46 17.09Q81 14 81.85 17.91L85.15 33.09Q86 37 82.19 35.8Z"></path></clipPath><clipPath id="c266"><path d="M85.5 62A8.5 9 0 1 0 102.5 62A8.5 9 0 1 0 85.5 62Z"></path></clipPath></defs><g transform="translate(0 0) rotate(9 64 116)"><g transform="translate(0 2.5) rotate(-2 47 96)"><path d="M46 94C39 96 34 91 36.5 86.5C39 82.5 44.5 85 42.5 88.5" fill="none" stroke="#2B2B3A" stroke-width="10.6" stroke-linecap="round" stroke-linejoin="round"></path><path d="M46 94C39 96 34 91 36.5 86.5C39 82.5 44.5 85 42.5 88.5" fill="none" stroke="#E77A93" stroke-width="3.6" stroke-linecap="round" stroke-linejoin="round"></path></g><path d="M56 102.5L48.4 107" fill="none" stroke="#2B2B3A" stroke-width="16" stroke-linecap="round" stroke-linejoin="round"></path><path d="M56 102.5L48.4 107" fill="none" stroke="#D9A33C" stroke-width="9" stroke-linecap="round" stroke-linejoin="round"></path><path d="M35.5 111.5A7 4.3 0 1 0 49.5 111.5A7 4.3 0 1 0 35.5 111.5Z" fill="#2B2B3A" stroke="#2B2B3A" stroke-width="7" stroke-linejoin="round"></path><path d="M35.5 111.5A7 4.3 0 1 0 49.5 111.5A7 4.3 0 1 0 35.5 111.5Z" fill="#C45C76"></path><g transform="translate(0 2.5)"><path d="M53 87C55.12 88.25 61.96 93.27 65.7 94.51C69.44 95.75 73.81 94.43 75.43 94.42" fill="none" stroke="#2B2B3A" stroke-width="14.5" stroke-linecap="round" stroke-linejoin="round"></path><path d="M53 87C55.12 88.25 61.96 93.27 65.7 94.51C69.44 95.75 73.81 94.43 75.43 94.42" fill="none" stroke="#EE8AA2" stroke-width="7.5" stroke-linecap="round" stroke-linejoin="round"></path></g><g transform="translate(0 2.5)"><path d="M71.47 94.59A4.8 4.5 0 1 0 81.07 94.59A4.8 4.5 0 1 0 71.47 94.59Z" fill="#2B2B3A" stroke="#2B2B3A" stroke-width="7" stroke-linejoin="round"></path><path d="M71.47 94.59A4.8 4.5 0 1 0 81.07 94.59A4.8 4.5 0 1 0 71.47 94.59Z" fill="#C45C76"></path></g><g transform="translate(0 2.5)"><path d="M43.5 93A19.5 16 0 1 0 82.5 93A19.5 16 0 1 0 43.5 93Z" fill="#2B2B3A" stroke="#2B2B3A" stroke-width="7" stroke-linejoin="round"></path><path d="M43.5 93A19.5 16 0 1 0 82.5 93A19.5 16 0 1 0 43.5 93Z" fill="#F5C95B"></path><g clip-path="url(#c262)"><path d="M43.5 93A19.5 16 0 1 0 82.5 93A19.5 16 0 1 0 43.5 93Z" fill="#D9A33C"></path><g transform="translate(-2.24 -3.2)"><path d="M43.5 93A19.5 16 0 1 0 82.5 93A19.5 16 0 1 0 43.5 93Z" fill="#F5C95B"></path></g><path d="M46.54 90A4 2.4 -30 1 0 53.46 86A4 2.4 -30 1 0 46.54 90Z" fill="#FFE7A3"></path></g></g><path d="M69 102.5L76.6 107" fill="none" stroke="#2B2B3A" stroke-width="16" stroke-linecap="round" stroke-linejoin="round"></path><path d="M69 102.5L76.6 107" fill="none" stroke="#F5C95B" stroke-width="9" stroke-linecap="round" stroke-linejoin="round"></path><path d="M75 111.5A7.5 4.5 0 1 0 90 111.5A7.5 4.5 0 1 0 75 111.5Z" fill="#2B2B3A" stroke="#2B2B3A" stroke-width="7" stroke-linejoin="round"></path><path d="M75 111.5A7.5 4.5 0 1 0 90 111.5A7.5 4.5 0 1 0 75 111.5Z" fill="#E77A93"></path><g transform="translate(0 2.5)"><path d="M67 81H74Q79 81 79 86V90Q79 95 74 95H67Q62 95 62 90V86Q62 81 67 81Z" fill="#2B2B3A" stroke="#2B2B3A" stroke-width="5" stroke-linejoin="round"></path><path d="M67 81H74Q79 81 79 86V90Q79 95 74 95H67Q62 95 62 90V86Q62 81 67 81Z" fill="#F5C95B"></path></g><g transform="translate(0 2.5)"><path d="M63.4 84.5A2.1 2.1 0 1 0 67.6 84.5A2.1 2.1 0 1 0 63.4 84.5Z" fill="#2B2B3A" stroke="#2B2B3A" stroke-width="2.4" stroke-linejoin="round"></path><path d="M63.4 84.5A2.1 2.1 0 1 0 67.6 84.5A2.1 2.1 0 1 0 63.4 84.5Z" fill="#8D5A3B"></path></g><g transform="translate(0 2.5)"><path d="M73.4 84A2.1 2.1 0 1 0 77.6 84A2.1 2.1 0 1 0 73.4 84Z" fill="#2B2B3A" stroke="#2B2B3A" stroke-width="2.4" stroke-linejoin="round"></path><path d="M73.4 84A2.1 2.1 0 1 0 77.6 84A2.1 2.1 0 1 0 73.4 84Z" fill="#8D5A3B"></path></g><g transform="translate(0 3.5) rotate(0 62 80)"><path d="M29 55A31 25 0 1 0 91 55A31 25 0 1 0 29 55Z" fill="#2B2B3A" stroke="#2B2B3A" stroke-width="7" stroke-linejoin="round"></path><path d="M29 55A31 25 0 1 0 91 55A31 25 0 1 0 29 55Z" fill="#FFB0C0"></path><g clip-path="url(#c263)"><path d="M29 55A31 25 0 1 0 91 55A31 25 0 1 0 29 55Z" fill="#EE8AA2"></path><g transform="translate(-3.5 -5)"><path d="M29 55A31 25 0 1 0 91 55A31 25 0 1 0 29 55Z" fill="#FFB0C0"></path></g><path d="M38.8 43A6 3 -30 1 0 49.2 37A6 3 -30 1 0 38.8 43Z" fill="#FFD8E0"></path></g></g><g transform="translate(0 3.5) rotate(0 62 80) translate(0 1) rotate(3 42 32)"><path d="M38.49 36.04Q35 38 34.22 34.08L31.78 21.92Q31 18 34.5 19.93L47.5 27.07Q51 29 47.51 30.96Z" fill="#2B2B3A" stroke="#2B2B3A" stroke-width="7" stroke-linejoin="round"></path><path d="M38.49 36.04Q35 38 34.22 34.08L31.78 21.92Q31 18 34.5 19.93L47.5 27.07Q51 29 47.51 30.96Z" fill="#FFB0C0"></path><g clip-path="url(#c264)"><path d="M39.31 33.15Q37.5 34 37.01 32.06L35.49 25.94Q35 24 36.76 24.96L44.24 29.04Q46 30 44.19 30.85Z" fill="#E77A93"></path></g></g><g transform="translate(0 3.5) rotate(0 62 80) translate(0 1) rotate(3 76 30)"><path d="M70.81 32.2Q67 31 69.54 27.91L78.46 17.09Q81 14 81.85 17.91L85.15 33.09Q86 37 82.19 35.8Z" fill="#2B2B3A" stroke="#2B2B3A" stroke-width="7" stroke-linejoin="round"></path><path d="M70.81 32.2Q67 31 69.54 27.91L78.46 17.09Q81 14 81.85 17.91L85.15 33.09Q86 37 82.19 35.8Z" fill="#FFB0C0"></path><g clip-path="url(#c265)"><path d="M72.94 31.49Q71 31 72.3 29.48L78.7 22.02Q80 20.5 80.43 22.45L82.57 32.05Q83 34 81.06 33.51Z" fill="#E77A93"></path></g></g><g transform="translate(0 3.5) rotate(0 62 80)"><path d="M45.87 51.54L52.8 55.5L45.87 59.46" fill="none" stroke="#2B2B3A" stroke-width="2.4" stroke-linecap="round" stroke-linejoin="round"></path><path d="M76.07 50.06L68.3 54.5L76.07 58.94" fill="none" stroke="#2B2B3A" stroke-width="2.4" stroke-linecap="round" stroke-linejoin="round"></path></g><g transform="translate(0 3.5) rotate(0 62 80)"><path d="M85.5 62A8.5 9 0 1 0 102.5 62A8.5 9 0 1 0 85.5 62Z" fill="#2B2B3A" stroke="#2B2B3A" stroke-width="7" stroke-linejoin="round"></path><path d="M85.5 62A8.5 9 0 1 0 102.5 62A8.5 9 0 1 0 85.5 62Z" fill="#F7A1B5"></path><g clip-path="url(#c266)"><path d="M85.5 62A8.5 9 0 1 0 102.5 62A8.5 9 0 1 0 85.5 62Z" fill="#E27D96"></path><g transform="translate(-1.26 -1.8)"><path d="M85.5 62A8.5 9 0 1 0 102.5 62A8.5 9 0 1 0 85.5 62Z" fill="#F7A1B5"></path></g><path d="M90.5 62.5A1.5 2.6 0 1 0 93.5 62.5A1.5 2.6 0 1 0 90.5 62.5Z" fill="#B9506A"></path><path d="M96.2 62A1.3 2.4 0 1 0 98.8 62A1.3 2.4 0 1 0 96.2 62Z" fill="#B9506A"></path><path d="M88.56 57.89A2.6 1.6 -20 1 0 93.44 56.11A2.6 1.6 -20 1 0 88.56 57.89Z" fill="#FFCFDA"></path></g></g><g transform="translate(0 3.5) rotate(0 62 80)"><path d="M82 75q1.7 -2 3.3 0t3.3 0t3.3 0" fill="none" stroke="#2B2B3A" stroke-width="2" stroke-linecap="round" stroke-linejoin="round"></path></g><g transform="translate(0 2.5)"><path d="M73 86C75.38 85.38 83.05 82.74 87.27 82.28C91.5 81.82 96.53 83.08 98.38 83.25" fill="none" stroke="#2B2B3A" stroke-width="15" stroke-linecap="round" stroke-linejoin="round"></path><path d="M73 86C75.38 85.38 83.05 82.74 87.27 82.28C91.5 81.82 96.53 83.08 98.38 83.25" fill="none" stroke="#FFB0C0" stroke-width="8" stroke-linecap="round" stroke-linejoin="round"></path></g><g transform="translate(0 2.5)"><path d="M95.16 83.23A5 4.7 0 1 0 105.16 83.23A5 4.7 0 1 0 95.16 83.23Z" fill="#2B2B3A" stroke="#2B2B3A" stroke-width="7" stroke-linejoin="round"></path><path d="M95.16 83.23A5 4.7 0 1 0 105.16 83.23A5 4.7 0 1 0 95.16 83.23Z" fill="#E77A93"></path></g></g></svg><svg x="256" y="0" width="128" height="128" viewBox="0 0 128 128"><defs><clipPath id="c267"><path d="M43.5 93A19.5 16 0 1 0 82.5 93A19.5 16 0 1 0 43.5 93Z"></path></clipPath><clipPath id="c268"><path d="M29 55A31 25 0 1 0 91 55A31 25 0 1 0 29 55Z"></path></clipPath><clipPath id="c269"><path d="M38.49 36.04Q35 38 34.22 34.08L31.78 21.92Q31 18 34.5 19.93L47.5 27.07Q51 29 47.51 30.96Z"></path></clipPath><clipPath id="c270"><path d="M70.81 32.2Q67 31 69.54 27.91L78.46 17.09Q81 14 81.85 17.91L85.15 33.09Q86 37 82.19 35.8Z"></path></clipPath><clipPath id="c271"><path d="M85.5 62A8.5 9 0 1 0 102.5 62A8.5 9 0 1 0 85.5 62Z"></path></clipPath></defs><g transform="translate(0 0) rotate(2 64 116)"><g transform="translate(0 1) rotate(-8 47 96)"><path d="M46 94C39 96 34 91 36.5 86.5C39 82.5 44.5 85 42.5 88.5" fill="none" stroke="#2B2B3A" stroke-width="10.6" stroke-linecap="round" stroke-linejoin="round"></path><path d="M46 94C39 96 34 91 36.5 86.5C39 82.5 44.5 85 42.5 88.5" fill="none" stroke="#E77A93" stroke-width="3.6" stroke-linecap="round" stroke-linejoin="round"></path></g><path d="M56 101L47.7 107" fill="none" stroke="#2B2B3A" stroke-width="16" stroke-linecap="round" stroke-linejoin="round"></path><path d="M56 101L47.7 107" fill="none" stroke="#D9A33C" stroke-width="9" stroke-linecap="round" stroke-linejoin="round"></path><path d="M34.5 111.5A7 4.3 0 1 0 48.5 111.5A7 4.3 0 1 0 34.5 111.5Z" fill="#2B2B3A" stroke="#2B2B3A" stroke-width="7" stroke-linejoin="round"></path><path d="M34.5 111.5A7 4.3 0 1 0 48.5 111.5A7 4.3 0 1 0 34.5 111.5Z" fill="#C45C76"></path><g transform="translate(0 1)"><path d="M53 87C55.65 87.79 64.49 91.41 68.9 91.74C73.32 92.07 77.74 89.45 79.5 88.99" fill="none" stroke="#2B2B3A" stroke-width="14.5" stroke-linecap="round" stroke-linejoin="round"></path><path d="M53 87C55.65 87.79 64.49 91.41 68.9 91.74C73.32 92.07 77.74 89.45 79.5 88.99" fill="none" stroke="#EE8AA2" stroke-width="7.5" stroke-linecap="round" stroke-linejoin="round"></path></g><g transform="translate(0 1)"><path d="M75.67 88.96A4.8 4.5 0 1 0 85.27 88.96A4.8 4.5 0 1 0 75.67 88.96Z" fill="#2B2B3A" stroke="#2B2B3A" stroke-width="7" stroke-linejoin="round"></path><path d="M75.67 88.96A4.8 4.5 0 1 0 85.27 88.96A4.8 4.5 0 1 0 75.67 88.96Z" fill="#C45C76"></path></g><g transform="translate(0 1)"><path d="M43.5 93A19.5 16 0 1 0 82.5 93A19.5 16 0 1 0 43.5 93Z" fill="#2B2B3A" stroke="#2B2B3A" stroke-width="7" stroke-linejoin="round"></path><path d="M43.5 93A19.5 16 0 1 0 82.5 93A19.5 16 0 1 0 43.5 93Z" fill="#F5C95B"></path><g clip-path="url(#c267)"><path d="M43.5 93A19.5 16 0 1 0 82.5 93A19.5 16 0 1 0 43.5 93Z" fill="#D9A33C"></path><g transform="translate(-2.24 -3.2)"><path d="M43.5 93A19.5 16 0 1 0 82.5 93A19.5 16 0 1 0 43.5 93Z" fill="#F5C95B"></path></g><path d="M46.54 90A4 2.4 -30 1 0 53.46 86A4 2.4 -30 1 0 46.54 90Z" fill="#FFE7A3"></path></g></g><path d="M69 101L77.3 107" fill="none" stroke="#2B2B3A" stroke-width="16" stroke-linecap="round" stroke-linejoin="round"></path><path d="M69 101L77.3 107" fill="none" stroke="#F5C95B" stroke-width="9" stroke-linecap="round" stroke-linejoin="round"></path><path d="M76 111.5A7.5 4.5 0 1 0 91 111.5A7.5 4.5 0 1 0 76 111.5Z" fill="#2B2B3A" stroke="#2B2B3A" stroke-width="7" stroke-linejoin="round"></path><path d="M76 111.5A7.5 4.5 0 1 0 91 111.5A7.5 4.5 0 1 0 76 111.5Z" fill="#E77A93"></path><g transform="translate(0 1)"><path d="M67 81H74Q79 81 79 86V90Q79 95 74 95H67Q62 95 62 90V86Q62 81 67 81Z" fill="#2B2B3A" stroke="#2B2B3A" stroke-width="5" stroke-linejoin="round"></path><path d="M67 81H74Q79 81 79 86V90Q79 95 74 95H67Q62 95 62 90V86Q62 81 67 81Z" fill="#F5C95B"></path></g><g transform="translate(0 1)"><path d="M63.4 84.5A2.1 2.1 0 1 0 67.6 84.5A2.1 2.1 0 1 0 63.4 84.5Z" fill="#2B2B3A" stroke="#2B2B3A" stroke-width="2.4" stroke-linejoin="round"></path><path d="M63.4 84.5A2.1 2.1 0 1 0 67.6 84.5A2.1 2.1 0 1 0 63.4 84.5Z" fill="#8D5A3B"></path></g><g transform="translate(0 1)"><path d="M73.4 84A2.1 2.1 0 1 0 77.6 84A2.1 2.1 0 1 0 73.4 84Z" fill="#2B2B3A" stroke="#2B2B3A" stroke-width="2.4" stroke-linejoin="round"></path><path d="M73.4 84A2.1 2.1 0 1 0 77.6 84A2.1 2.1 0 1 0 73.4 84Z" fill="#8D5A3B"></path></g><g transform="translate(0 1) rotate(0 62 80)"><path d="M29 55A31 25 0 1 0 91 55A31 25 0 1 0 29 55Z" fill="#2B2B3A" stroke="#2B2B3A" stroke-width="7" stroke-linejoin="round"></path><path d="M29 55A31 25 0 1 0 91 55A31 25 0 1 0 29 55Z" fill="#FFB0C0"></path><g clip-path="url(#c268)"><path d="M29 55A31 25 0 1 0 91 55A31 25 0 1 0 29 55Z" fill="#EE8AA2"></path><g transform="translate(-3.5 -5)"><path d="M29 55A31 25 0 1 0 91 55A31 25 0 1 0 29 55Z" fill="#FFB0C0"></path></g><path d="M38.8 43A6 3 -30 1 0 49.2 37A6 3 -30 1 0 38.8 43Z" fill="#FFD8E0"></path></g></g><g transform="translate(0 1) rotate(0 62 80) translate(0 -6) rotate(-8 42 32)"><path d="M38.49 36.04Q35 38 34.22 34.08L31.78 21.92Q31 18 34.5 19.93L47.5 27.07Q51 29 47.51 30.96Z" fill="#2B2B3A" stroke="#2B2B3A" stroke-width="7" stroke-linejoin="round"></path><path d="M38.49 36.04Q35 38 34.22 34.08L31.78 21.92Q31 18 34.5 19.93L47.5 27.07Q51 29 47.51 30.96Z" fill="#FFB0C0"></path><g clip-path="url(#c269)"><path d="M39.31 33.15Q37.5 34 37.01 32.06L35.49 25.94Q35 24 36.76 24.96L44.24 29.04Q46 30 44.19 30.85Z" fill="#E77A93"></path></g></g><g transform="translate(0 1) rotate(0 62 80) translate(0 -6) rotate(-8 76 30)"><path d="M70.81 32.2Q67 31 69.54 27.91L78.46 17.09Q81 14 81.85 17.91L85.15 33.09Q86 37 82.19 35.8Z" fill="#2B2B3A" stroke="#2B2B3A" stroke-width="7" stroke-linejoin="round"></path><path d="M70.81 32.2Q67 31 69.54 27.91L78.46 17.09Q81 14 81.85 17.91L85.15 33.09Q86 37 82.19 35.8Z" fill="#FFB0C0"></path><g clip-path="url(#c270)"><path d="M72.94 31.49Q71 31 72.3 29.48L78.7 22.02Q80 20.5 80.43 22.45L82.57 32.05Q83 34 81.06 33.51Z" fill="#E77A93"></path></g></g><g transform="translate(0 1) rotate(0 62 80)"><path d="M43.82 55.5A5.68 6.6 0 1 0 55.18 55.5A5.68 6.6 0 1 0 43.82 55.5Z" fill="#fff"></path><path d="M46.33 56.16A4.09 5.15 0 1 0 54.52 56.16A4.09 5.15 0 1 0 46.33 56.16Z" fill="#2B2B3A"></path><path d="M47.48 54.31A1.72 1.72 0 1 0 50.92 54.31A1.72 1.72 0 1 0 47.48 54.31Z" fill="#fff"></path><path d="M51.41 58.43A0.74 0.74 0 1 0 52.88 58.43A0.74 0.74 0 1 0 51.41 58.43Z" fill="#fff"></path><path d="M65.64 54.5A6.36 7.4 0 1 0 78.36 54.5A6.36 7.4 0 1 0 65.64 54.5Z" fill="#fff"></path><path d="M68.45 55.24A4.59 5.77 0 1 0 77.62 55.24A4.59 5.77 0 1 0 68.45 55.24Z" fill="#2B2B3A"></path><path d="M69.73 53.16A1.93 1.93 0 1 0 73.59 53.16A1.93 1.93 0 1 0 69.73 53.16Z" fill="#fff"></path><path d="M74.14 57.78A0.83 0.83 0 1 0 75.79 57.78A0.83 0.83 0 1 0 74.14 57.78Z" fill="#fff"></path></g><g transform="translate(0 1) rotate(0 62 80)"><path d="M85.5 62A8.5 9 0 1 0 102.5 62A8.5 9 0 1 0 85.5 62Z" fill="#2B2B3A" stroke="#2B2B3A" stroke-width="7" stroke-linejoin="round"></path><path d="M85.5 62A8.5 9 0 1 0 102.5 62A8.5 9 0 1 0 85.5 62Z" fill="#F7A1B5"></path><g clip-path="url(#c271)"><path d="M85.5 62A8.5 9 0 1 0 102.5 62A8.5 9 0 1 0 85.5 62Z" fill="#E27D96"></path><g transform="translate(-1.26 -1.8)"><path d="M85.5 62A8.5 9 0 1 0 102.5 62A8.5 9 0 1 0 85.5 62Z" fill="#F7A1B5"></path></g><path d="M90.5 62.5A1.5 2.6 0 1 0 93.5 62.5A1.5 2.6 0 1 0 90.5 62.5Z" fill="#B9506A"></path><path d="M96.2 62A1.3 2.4 0 1 0 98.8 62A1.3 2.4 0 1 0 96.2 62Z" fill="#B9506A"></path><path d="M88.56 57.89A2.6 1.6 -20 1 0 93.44 56.11A2.6 1.6 -20 1 0 88.56 57.89Z" fill="#FFCFDA"></path></g></g><g transform="translate(0 1) rotate(0 62 80)"><path d="M82 73Q87 81 92 72.5Z" fill="#C9475A" stroke="#2B2B3A" stroke-width="2" stroke-linecap="round" stroke-linejoin="round"></path></g><g transform="translate(0 1)"><path d="M73 86C75.38 84.59 82.85 79.36 87.28 77.55C91.72 75.74 97.54 75.55 99.59 75.15" fill="none" stroke="#2B2B3A" stroke-width="15" stroke-linecap="round" stroke-linejoin="round"></path><path d="M73 86C75.38 84.59 82.85 79.36 87.28 77.55C91.72 75.74 97.54 75.55 99.59 75.15" fill="none" stroke="#FFB0C0" stroke-width="8" stroke-linecap="round" stroke-linejoin="round"></path></g><g transform="translate(0 1)"><path d="M96.52 74.58A5 4.7 0 1 0 106.52 74.58A5 4.7 0 1 0 96.52 74.58Z" fill="#2B2B3A" stroke="#2B2B3A" stroke-width="7" stroke-linejoin="round"></path><path d="M96.52 74.58A5 4.7 0 1 0 106.52 74.58A5 4.7 0 1 0 96.52 74.58Z" fill="#E77A93"></path></g></g></svg><svg x="384" y="0" width="128" height="128" viewBox="0 0 128 128"><defs><clipPath id="c272"><path d="M43.5 93A19.5 16 0 1 0 82.5 93A19.5 16 0 1 0 43.5 93Z"></path></clipPath><clipPath id="c273"><path d="M29 55A31 25 0 1 0 91 55A31 25 0 1 0 29 55Z"></path></clipPath><clipPath id="c274"><path d="M38.49 36.04Q35 38 34.22 34.08L31.78 21.92Q31 18 34.5 19.93L47.5 27.07Q51 29 47.51 30.96Z"></path></clipPath><clipPath id="c275"><path d="M70.81 32.2Q67 31 69.54 27.91L78.46 17.09Q81 14 81.85 17.91L85.15 33.09Q86 37 82.19 35.8Z"></path></clipPath><clipPath id="c276"><path d="M85.5 62A8.5 9 0 1 0 102.5 62A8.5 9 0 1 0 85.5 62Z"></path></clipPath></defs><g transform="translate(0 0) rotate(10 64 116)"><g transform="translate(0 2.5) rotate(2 47 96)"><path d="M46 94C39 96 34 91 36.5 86.5C39 82.5 44.5 85 42.5 88.5" fill="none" stroke="#2B2B3A" stroke-width="10.6" stroke-linecap="round" stroke-linejoin="round"></path><path d="M46 94C39 96 34 91 36.5 86.5C39 82.5 44.5 85 42.5 88.5" fill="none" stroke="#E77A93" stroke-width="3.6" stroke-linecap="round" stroke-linejoin="round"></path></g><path d="M56 102.5L48.4 107" fill="none" stroke="#2B2B3A" stroke-width="16" stroke-linecap="round" stroke-linejoin="round"></path><path d="M56 102.5L48.4 107" fill="none" stroke="#D9A33C" stroke-width="9" stroke-linecap="round" stroke-linejoin="round"></path><path d="M35.5 111.5A7 4.3 0 1 0 49.5 111.5A7 4.3 0 1 0 35.5 111.5Z" fill="#2B2B3A" stroke="#2B2B3A" stroke-width="7" stroke-linejoin="round"></path><path d="M35.5 111.5A7 4.3 0 1 0 49.5 111.5A7 4.3 0 1 0 35.5 111.5Z" fill="#C45C76"></path><g transform="translate(0 2.5)"><path d="M53 87C55.16 88.18 62.17 92.96 65.95 94.06C69.73 95.17 74.05 93.7 75.67 93.63" fill="none" stroke="#2B2B3A" stroke-width="14.5" stroke-linecap="round" stroke-linejoin="round"></path><path d="M53 87C55.16 88.18 62.17 92.96 65.95 94.06C69.73 95.17 74.05 93.7 75.67 93.63" fill="none" stroke="#EE8AA2" stroke-width="7.5" stroke-linecap="round" stroke-linejoin="round"></path></g><g transform="translate(0 2.5)"><path d="M71.72 93.78A4.8 4.5 0 1 0 81.32 93.78A4.8 4.5 0 1 0 71.72 93.78Z" fill="#2B2B3A" stroke="#2B2B3A" stroke-width="7" stroke-linejoin="round"></path><path d="M71.72 93.78A4.8 4.5 0 1 0 81.32 93.78A4.8 4.5 0 1 0 71.72 93.78Z" fill="#C45C76"></path></g><g transform="translate(0 2.5)"><path d="M43.5 93A19.5 16 0 1 0 82.5 93A19.5 16 0 1 0 43.5 93Z" fill="#2B2B3A" stroke="#2B2B3A" stroke-width="7" stroke-linejoin="round"></path><path d="M43.5 93A19.5 16 0 1 0 82.5 93A19.5 16 0 1 0 43.5 93Z" fill="#F5C95B"></path><g clip-path="url(#c272)"><path d="M43.5 93A19.5 16 0 1 0 82.5 93A19.5 16 0 1 0 43.5 93Z" fill="#D9A33C"></path><g transform="translate(-2.24 -3.2)"><path d="M43.5 93A19.5 16 0 1 0 82.5 93A19.5 16 0 1 0 43.5 93Z" fill="#F5C95B"></path></g><path d="M46.54 90A4 2.4 -30 1 0 53.46 86A4 2.4 -30 1 0 46.54 90Z" fill="#FFE7A3"></path></g></g><path d="M69 102.5L76.6 107" fill="none" stroke="#2B2B3A" stroke-width="16" stroke-linecap="round" stroke-linejoin="round"></path><path d="M69 102.5L76.6 107" fill="none" stroke="#F5C95B" stroke-width="9" stroke-linecap="round" stroke-linejoin="round"></path><path d="M75 111.5A7.5 4.5 0 1 0 90 111.5A7.5 4.5 0 1 0 75 111.5Z" fill="#2B2B3A" stroke="#2B2B3A" stroke-width="7" stroke-linejoin="round"></path><path d="M75 111.5A7.5 4.5 0 1 0 90 111.5A7.5 4.5 0 1 0 75 111.5Z" fill="#E77A93"></path><g transform="translate(0 2.5)"><path d="M67 81H74Q79 81 79 86V90Q79 95 74 95H67Q62 95 62 90V86Q62 81 67 81Z" fill="#2B2B3A" stroke="#2B2B3A" stroke-width="5" stroke-linejoin="round"></path><path d="M67 81H74Q79 81 79 86V90Q79 95 74 95H67Q62 95 62 90V86Q62 81 67 81Z" fill="#F5C95B"></path></g><g transform="translate(0 2.5)"><path d="M63.4 84.5A2.1 2.1 0 1 0 67.6 84.5A2.1 2.1 0 1 0 63.4 84.5Z" fill="#2B2B3A" stroke="#2B2B3A" stroke-width="2.4" stroke-linejoin="round"></path><path d="M63.4 84.5A2.1 2.1 0 1 0 67.6 84.5A2.1 2.1 0 1 0 63.4 84.5Z" fill="#8D5A3B"></path></g><g transform="translate(0 2.5)"><path d="M73.4 84A2.1 2.1 0 1 0 77.6 84A2.1 2.1 0 1 0 73.4 84Z" fill="#2B2B3A" stroke="#2B2B3A" stroke-width="2.4" stroke-linejoin="round"></path><path d="M73.4 84A2.1 2.1 0 1 0 77.6 84A2.1 2.1 0 1 0 73.4 84Z" fill="#8D5A3B"></path></g><g transform="translate(0 3.5) rotate(0 62 80)"><path d="M29 55A31 25 0 1 0 91 55A31 25 0 1 0 29 55Z" fill="#2B2B3A" stroke="#2B2B3A" stroke-width="7" stroke-linejoin="round"></path><path d="M29 55A31 25 0 1 0 91 55A31 25 0 1 0 29 55Z" fill="#FFB0C0"></path><g clip-path="url(#c273)"><path d="M29 55A31 25 0 1 0 91 55A31 25 0 1 0 29 55Z" fill="#EE8AA2"></path><g transform="translate(-3.5 -5)"><path d="M29 55A31 25 0 1 0 91 55A31 25 0 1 0 29 55Z" fill="#FFB0C0"></path></g><path d="M38.8 43A6 3 -30 1 0 49.2 37A6 3 -30 1 0 38.8 43Z" fill="#FFD8E0"></path></g></g><g transform="translate(0 3.5) rotate(0 62 80) translate(0 1) rotate(4 42 32)"><path d="M38.49 36.04Q35 38 34.22 34.08L31.78 21.92Q31 18 34.5 19.93L47.5 27.07Q51 29 47.51 30.96Z" fill="#2B2B3A" stroke="#2B2B3A" stroke-width="7" stroke-linejoin="round"></path><path d="M38.49 36.04Q35 38 34.22 34.08L31.78 21.92Q31 18 34.5 19.93L47.5 27.07Q51 29 47.51 30.96Z" fill="#FFB0C0"></path><g clip-path="url(#c274)"><path d="M39.31 33.15Q37.5 34 37.01 32.06L35.49 25.94Q35 24 36.76 24.96L44.24 29.04Q46 30 44.19 30.85Z" fill="#E77A93"></path></g></g><g transform="translate(0 3.5) rotate(0 62 80) translate(0 1) rotate(4 76 30)"><path d="M70.81 32.2Q67 31 69.54 27.91L78.46 17.09Q81 14 81.85 17.91L85.15 33.09Q86 37 82.19 35.8Z" fill="#2B2B3A" stroke="#2B2B3A" stroke-width="7" stroke-linejoin="round"></path><path d="M70.81 32.2Q67 31 69.54 27.91L78.46 17.09Q81 14 81.85 17.91L85.15 33.09Q86 37 82.19 35.8Z" fill="#FFB0C0"></path><g clip-path="url(#c275)"><path d="M72.94 31.49Q71 31 72.3 29.48L78.7 22.02Q80 20.5 80.43 22.45L82.57 32.05Q83 34 81.06 33.51Z" fill="#E77A93"></path></g></g><g transform="translate(0 3.5) rotate(0 62 80)"><path d="M45.87 51.54L52.8 55.5L45.87 59.46" fill="none" stroke="#2B2B3A" stroke-width="2.4" stroke-linecap="round" stroke-linejoin="round"></path><path d="M76.07 50.06L68.3 54.5L76.07 58.94" fill="none" stroke="#2B2B3A" stroke-width="2.4" stroke-linecap="round" stroke-linejoin="round"></path></g><g transform="translate(0 3.5) rotate(0 62 80)"><path d="M85.5 62A8.5 9 0 1 0 102.5 62A8.5 9 0 1 0 85.5 62Z" fill="#2B2B3A" stroke="#2B2B3A" stroke-width="7" stroke-linejoin="round"></path><path d="M85.5 62A8.5 9 0 1 0 102.5 62A8.5 9 0 1 0 85.5 62Z" fill="#F7A1B5"></path><g clip-path="url(#c276)"><path d="M85.5 62A8.5 9 0 1 0 102.5 62A8.5 9 0 1 0 85.5 62Z" fill="#E27D96"></path><g transform="translate(-1.26 -1.8)"><path d="M85.5 62A8.5 9 0 1 0 102.5 62A8.5 9 0 1 0 85.5 62Z" fill="#F7A1B5"></path></g><path d="M90.5 62.5A1.5 2.6 0 1 0 93.5 62.5A1.5 2.6 0 1 0 90.5 62.5Z" fill="#B9506A"></path><path d="M96.2 62A1.3 2.4 0 1 0 98.8 62A1.3 2.4 0 1 0 96.2 62Z" fill="#B9506A"></path><path d="M88.56 57.89A2.6 1.6 -20 1 0 93.44 56.11A2.6 1.6 -20 1 0 88.56 57.89Z" fill="#FFCFDA"></path></g></g><g transform="translate(0 3.5) rotate(0 62 80)"><path d="M82 75q1.7 -2 3.3 0t3.3 0t3.3 0" fill="none" stroke="#2B2B3A" stroke-width="2" stroke-linecap="round" stroke-linejoin="round"></path></g><g transform="translate(0 2.5)"><path d="M73 86C75.36 85.3 82.93 82.39 87.14 81.79C91.35 81.18 96.41 82.27 98.26 82.36" fill="none" stroke="#2B2B3A" stroke-width="15" stroke-linecap="round" stroke-linejoin="round"></path><path d="M73 86C75.36 85.3 82.93 82.39 87.14 81.79C91.35 81.18 96.41 82.27 98.26 82.36" fill="none" stroke="#FFB0C0" stroke-width="8" stroke-linecap="round" stroke-linejoin="round"></path></g><g transform="translate(0 2.5)"><path d="M95.05 82.28A5 4.7 0 1 0 105.05 82.28A5 4.7 0 1 0 95.05 82.28Z" fill="#2B2B3A" stroke="#2B2B3A" stroke-width="7" stroke-linejoin="round"></path><path d="M95.05 82.28A5 4.7 0 1 0 105.05 82.28A5 4.7 0 1 0 95.05 82.28Z" fill="#E77A93"></path></g></g></svg></svg>