<svg xmlns="http://www.w3.org/2000/svg" width="768" height="128" viewBox="0 0 768 128" xmlns:c2pa="http://c2pa.org/manifest"><metadata><c2pa:manifest>AAAWgmp1bWIAAAAeanVtZGMycGEAEQAQgAAAqgA4m3EDYzJwYQAAABZcanVtYgAAAEdqdW1kYzJtYQARABCAAACqADibcQN1cm46YzJwYTplM2E5MGY4NC1mZmIzLTQxNzMtOGFiZC03M2UxNDNkM2Q0OGYAAAADl2p1bWIAAAApanVtZGMyYXMAEQAQgAAAqgA4m3EDYzJwYS5hc3NlcnRpb25zAAAAALxqdW1iAAAARGp1bWRjYm9yABEAEIAAAKoAOJtxE2MycGEuaW5ncmVkaWVudC52MwAAAAAYYzJzaPsk5HVNypNvBmKLy1d0+ooAAABwY2JvcqNpZGM6Zm9ybWF0bWltYWdlL3N2Zyt4bWxqaW5zdGFuY2VJRHgseG1wOmlpZDo0YWMxNTM3OS04NjU3LTRmN2QtYmFiNC05OWQ5YjVkZGEzMjFscmVsYXRpb25zaGlwaHBhcmVudE9mAAAB4mp1bWIAAABBanVtZGNib3IAEQAQgAAAqgA4m3ETYzJwYS5hY3Rpb25zLnYyAAAAABhjMnNor8Rk9LIIyAAE5qvQYQHjTwAAAZljYm9yomdhY3Rpb25zgqJmYWN0aW9ua2MycGEub3BlbmVkanBhcmFtZXRlcnOha2luZ3JlZGllbnRzgaJjdXJseC1zZWxmI2p1bWJmPWMycGEuYXNzZXJ0aW9ucy9jMnBhLmluZ3JlZGllbnQudjNkaGFzaFggiU/ktNXGpit4O6e11ii5/5bppm3tme12whQdJ5Eav5OkZmFjdGlvbngdY29tLmFudGhyb3BpYy5jbGF1ZGUucHJvdmlkZWRqcGFyYW1ldGVyc6F4H2NvbS5hbnRocm9waWMub3JpZ2luLWNvbmZpZGVuY2VndW5rbm93bmtkZXNjcmlwdGlvbnhmQ2xhdWRlIHByb3ZpZGVkIHRoaXMgZmlsZSBhdCB0aGUgcmVxdWVzdCBvZiBhIHVzZXIgYW5kIG1heSBoYXZlIGNyZWF0ZWQgb3IgbW9kaWZpZWQgdGhlIGZpbGUgY29udGVudHMubXNvZnR3YXJlQWdlbnShZG5hbWVmQ2xhdWRlcmFsbEFjdGlvbnNJbmNsdWRlZPUAAADIanVtYgAAAEBqdW1kY2JvcgARABCAAACqADibcRNjMnBhLmhhc2guZGF0YQAAAAAYYzJzaMglY9g6/+bYvBnVK01ZqJ8AAACAY2JvcqVjYWxnZnNoYTI1NmNwYWRNAAAAAAAAAAAAAAAAAGRoYXNoWCCEqV6F2oeVG3mWv31KDNuY6DSA7GA9kHJUqqIBx9WI+2RuYW1lbmp1bWJmIG1hbmlmZXN0amV4Y2x1c2lvbnOBomVzdGFydBiWZmxlbmd0aBkeBAAAAj5qdW1iAAAAJ2p1bWRjMmNsABEAEIAAAKoAOJtxA2MycGEuY2xhaW0udjIAAAACD2Nib3KlY2FsZ2ZzaGEyNTZpc2lnbmF0dXJleE1zZWxmI2p1bWJmPS9jMnBhL3VybjpjMnBhOmUzYTkwZjg0LWZmYjMtNDE3My04YWJkLTczZTE0M2QzZDQ4Zi9jMnBhLnNpZ25hdHVyZWppbnN0YW5jZUlEeCx4bXA6aWlkOmZmNTM2MDVkLWM1ZTAtNDQ5YS04OGYyLTFjNTBjYzIyOTRhY3JjcmVhdGVkX2Fzc2VydGlvbnODomN1cmx4LXNlbGYjanVtYmY9YzJwYS5hc3NlcnRpb25zL2MycGEuaW5ncmVkaWVudC52M2RoYXNoWCCJT+S01camK3g7p7XWKLn/lummbe2Z7XbCFB0nkRq/k6JjdXJseCpzZWxmI2p1bWJmPWMycGEuYXNzZXJ0aW9ucy9jMnBhLmFjdGlvbnMudjJkaGFzaFgg5KKDkOantZdUtMpVA2emVG2A9KkBtumopynNxkU5nCuiY3VybHgpc2VsZiNqdW1iZj1jMnBhLmFzc2VydGlvbnMvYzJwYS5oYXNoLmRhdGFkaGFzaFggfBygkFyER0ChBhVtceekhPi3mTkT3zFc94KenbnpGNN0Y2xhaW1fZ2VuZXJhdG9yX2luZm+jZG5hbWVvQW50aHJvcGljIEZpbGVzZ3ZlcnNpb25lMS4wLjBrc3BlY1ZlcnNpb25lMi40LjAAABA4anVtYgAAAChqdW1kYzJjcwARABCAAACqADibcQNjMnBhLnNpZ25hdHVyZQAAABAIY2JvctKEWQISogEmGCFZAgowggIGMIIBjaADAgECAhRA5aAK7sI50L64g/oGQgU9Z1UTADAKBggqhkjOPQQDAzBJMRcwFQYDVQQKEw5BbnRocm9waWMsIFBCQzEuMCwGA1UEAxMlQW50aHJvcGljIENvbnRlbnQgQ3JlZGVudGlhbHMgUm9vdCBDQTAeFw0yNjA4MDcxODQzNTZaFw0yODA4MDYxOTQzNTZaMEQxFzAVBgNVBAoTDkFudGhyb3BpYywgUEJDMSkwJwYDVQQDEyBBbnRocm9waWMgQ2xhdWRlIENvbnRlbnQgU2lnbmluZzBZMBMGByqGSM49AgEGCCqGSM49AwEHA0IABJh6CmvLUBgFFNU0vUKlOVtE6djd17L5SuwX0LemFisBM3dkd/3cyjxFA3Qo5S46fX0/ihY0VZ7mfb9KF703t5OjWDBWMA4GA1UdDwEB/wQEAwIHgDAVBgNVHSUEDjAMBgorBgEEAYPoXgIBMAwGA1UdEwEB/wQCMAAwHwYDVR0jBBgwFoAUzlHiBIFOZFsj+OPEz5o+nMHXXMIwCgYIKoZIzj0EAwMDZwAwZAIwMXMdFJ4BetLLVY7ORuE9noqbbAZOZn/aArXyTwFAZfKrPzxF2vPoJNf1+UCdg1XGAjBwX1zd9WGqYkqmL5SFqw1QySjr1zJfpJM9+1rdDwSPLMOPOjKuiXjoU/pUUeG9RwmhY3BhZFkNngAAAAAAAAAAAAAAAAAAAAAAAAAAAAAAAAAAAAAAAAAAAAAAAAAAAAAAAAAAAAAAAAAAAAAAAAAAAAAAAAAAAAAAAAAAAAAAAAAAAAAAAAAAAAAAAAAAAAAAAAAAAAAAAAAAAAAAAAAAAAAAAAAAAAAAAAAAAAAAAAAAAAAAAAAAAAAAAAAAAAAAAAAAAAAAAAAAAAAAAAAAAAAAAAAAAAAAAAAAAAAAAAAAAAAAAAAAAAAAAAAAAAAAAAAAAAAAAAAAAAAAAAAAAAAAAAAAAAAAAAAAAAAAAAAAAAAAAAAAAAAAAAAAAAAAAAAAAAAAAAAAAAAAAAAAAAAAAAAAAAAAAAAAAAAAAAAAAAAAAAAAAAAAAAAAAAAAAAAAAAAAAAAAAAAAAAAAAAAAAAAAAAAAAAAAAAAAAAAAAAAAAAAAAAAAAAAAAAAAAAAAAAAAAAAAAAAAAAAAAAAAAAAAAAAAAAAAAAAAAAAAAAAAAAAAAAAAAAAAAAAAAAAAAAAAAAAAAAAAAAAAAAAAAAAAAAAAAAAAAAAAAAAAAAAAAAAAAAAAAAAAAAAAAAAAAAAAAAAAAAAAAAAAAAAAAAAAAAAAAAAAAAAAAAAAAAAAAAAAAAAAAAAAAAAAAAAAAAAAAAAAAAAAAAAAAAAAAAAAAAAAAAAAAAAAAAAAAAAAAAAAAAAAAAAAAAAAAAAAAAAAAAAAAAAAAAAAAAAAAAAAAAAAAAAAAAAAAAAAAAAAAAAAAAAAAAAAAAAAAAAAAAAAAAAAAAAAAAAAAAAAAAAAAAAAAAAAAAAAAAAAAAAAAAAAAAAAAAAAAAAAAAAAAAAAAAAAAAAAAAAAAAAAAAAAAAAAAAAAAAAAAAAAAAAAAAAAAAAAAAAAAAAAAAAAAAAAAAAAAAAAAAAAAAAAAAAAAAAAAAAAAAAAAAAAAAAAAAAAAAAAAAAAAAAAAAAAAAAAAAAAAAAAAAAAAAAAAAAAAAAAAAAAAAAAAAAAAAAAAAAAAAAAAAAAAAAAAAAAAAAAAAAAAAAAAAAAAAAAAAAAAAAAAAAAAAAAAAAAAAAAAAAAAAAAAAAAAAAAAAAAAAAAAAAAAAAAAAAAAAAAAAAAAAAAAAAAAAAAAAAAAAAAAAAAAAAAAAAAAAAAAAAAAAAAAAAAAAAAAAAAAAAAAAAAAAAAAAAAAAAAAAAAAAAAAAAAAAAAAAAAAAAAAAAAAAAAAAAAAAAAAAAAAAAAAAAAAAAAAAAAAAAAAAAAAAAAAAAAAAAAAAAAAAAAAAAAAAAAAAAAAAAAAAAAAAAAAAAAAAAAAAAAAAAAAAAAAAAAAAAAAAAAAAAAAAAAAAAAAAAAAAAAAAAAAAAAAAAAAAAAAAAAAAAAAAAAAAAAAAAAAAAAAAAAAAAAAAAAAAAAAAAAAAAAAAAAAAAAAAAAAAAAAAAAAAAAAAAAAAAAAAAAAAAAAAAAAAAAAAAAAAAAAAAAAAAAAAAAAAAAAAAAAAAAAAAAAAAAAAAAAAAAAAAAAAAAAAAAAAAAAAAAAAAAAAAAAAAAAAAAAAAAAAAAAAAAAAAAAAAAAAAAAAAAAAAAAAAAAAAAAAAAAAAAAAAAAAAAAAAAAAAAAAAAAAAAAAAAAAAAAAAAAAAAAAAAAAAAAAAAAAAAAAAAAAAAAAAAAAAAAAAAAAAAAAAAAAAAAAAAAAAAAAAAAAAAAAAAAAAAAAAAAAAAAAAAAAAAAAAAAAAAAAAAAAAAAAAAAAAAAAAAAAAAAAAAAAAAAAAAAAAAAAAAAAAAAAAAAAAAAAAAAAAAAAAAAAAAAAAAAAAAAAAAAAAAAAAAAAAAAAAAAAAAAAAAAAAAAAAAAAAAAAAAAAAAAAAAAAAAAAAAAAAAAAAAAAAAAAAAAAAAAAAAAAAAAAAAAAAAAAAAAAAAAAAAAAAAAAAAAAAAAAAAAAAAAAAAAAAAAAAAAAAAAAAAAAAAAAAAAAAAAAAAAAAAAAAAAAAAAAAAAAAAAAAAAAAAAAAAAAAAAAAAAAAAAAAAAAAAAAAAAAAAAAAAAAAAAAAAAAAAAAAAAAAAAAAAAAAAAAAAAAAAAAAAAAAAAAAAAAAAAAAAAAAAAAAAAAAAAAAAAAAAAAAAAAAAAAAAAAAAAAAAAAAAAAAAAAAAAAAAAAAAAAAAAAAAAAAAAAAAAAAAAAAAAAAAAAAAAAAAAAAAAAAAAAAAAAAAAAAAAAAAAAAAAAAAAAAAAAAAAAAAAAAAAAAAAAAAAAAAAAAAAAAAAAAAAAAAAAAAAAAAAAAAAAAAAAAAAAAAAAAAAAAAAAAAAAAAAAAAAAAAAAAAAAAAAAAAAAAAAAAAAAAAAAAAAAAAAAAAAAAAAAAAAAAAAAAAAAAAAAAAAAAAAAAAAAAAAAAAAAAAAAAAAAAAAAAAAAAAAAAAAAAAAAAAAAAAAAAAAAAAAAAAAAAAAAAAAAAAAAAAAAAAAAAAAAAAAAAAAAAAAAAAAAAAAAAAAAAAAAAAAAAAAAAAAAAAAAAAAAAAAAAAAAAAAAAAAAAAAAAAAAAAAAAAAAAAAAAAAAAAAAAAAAAAAAAAAAAAAAAAAAAAAAAAAAAAAAAAAAAAAAAAAAAAAAAAAAAAAAAAAAAAAAAAAAAAAAAAAAAAAAAAAAAAAAAAAAAAAAAAAAAAAAAAAAAAAAAAAAAAAAAAAAAAAAAAAAAAAAAAAAAAAAAAAAAAAAAAAAAAAAAAAAAAAAAAAAAAAAAAAAAAAAAAAAAAAAAAAAAAAAAAAAAAAAAAAAAAAAAAAAAAAAAAAAAAAAAAAAAAAAAAAAAAAAAAAAAAAAAAAAAAAAAAAAAAAAAAAAAAAAAAAAAAAAAAAAAAAAAAAAAAAAAAAAAAAAAAAAAAAAAAAAAAAAAAAAAAAAAAAAAAAAAAAAAAAAAAAAAAAAAAAAAAAAAAAAAAAAAAAAAAAAAAAAAAAAAAAAAAAAAAAAAAAAAAAAAAAAAAAAAAAAAAAAAAAAAAAAAAAAAAAAAAAAAAAAAAAAAAAAAAAAAAAAAAAAAAAAAAAAAAAAAAAAAAAAAAAAAAAAAAAAAAAAAAAAAAAAAAAAAAAAAAAAAAAAAAAAAAAAAAAAAAAAAAAAAAAAAAAAAAAAAAAAAAAAAAAAAAAAAAAAAAAAAAAAAAAAAAAAAAAAAAAAAAAAAAAAAAAAAAAAAAAAAAAAAAAAAAAAAAAAAAAAAAAAAAAAAAAAAAAAAAAAAAAAAAAAAAAAAAAAAAAAAAAAAAAAAAAAAAAAAAAAAAAAAAAAAAAAAAAAAAAAAAAAAAAAAAAAAAAAAAAAAAAAAAAAAAAAAAAAAAAAAAAAAAAAAAAAAAAAAAAAAAAAAAAAAAAAAAAAAAAAAAAAAAAAAAAAAAAAAAAAAAAAAAAAAAAAAAAAAAAAAAAAAAAAAAAAAAAAAAAAAAAAAAAAAAAAAAAAAAAAAAAAAAAAAAAAAAAAAAAAAAAAAAAAAAAAAAAAAAAAAAAAAAAAAAAAAAAAAAAAAAAAAAAAAAAAAAAAAAAAAAAAAAAAAAAAAAAAAAAAAAAAAAAAAAAAAAAAAAAAAAAAAAAAAAAAAAAAAAAAAAAAAAAAAAAAAAAAAAAAAAAAAAAAAAAAAAAAAAAAAAAAAAAAAAAAAAAAAAAAAAAAAAAAAAAAAAAAAAAAAAAAAAAAAAAAAAAAAAAAAAAAAAAAAAAAAAAAAAAAAAAAAAAAAAAAAAAAAAAAAAAAAAAAAAAAAAAAAAAAAAAAAAAAAAAAAAAAAAAAAAAAAAAAAAAAAAAAAAAAAAAAAAAAAAAAAAAAAAAAAAAAAAAAAAAAAAAAAAAAAAAAAAAAAAAAAAAAAAAAAAAAAAAAAAAAAAAAAAAAAAAAAAAAAAAAAAAAAAAAAAAAAAAAAAAAAAAAAAAAAAAAAAAAAAAAAAAAAAAAAAAAAAAAAAAAAAAAAAAAAAAAAAAAAAAAAAAAAAAAAAAAAAAAAAAAAAAAAAAAAAAAAAAAAAAAAAAAAAAAAAAAAAAAAAAAAAAAAAAAAAAAAAAAAAAAAAAAAAAAAAAAAAAAAAAAAAAAAAAAAAAAAAAAAAAAAAAAAAAAAAAAAAAAAAAAAAAAAAAAAAAAAAAAAAAAAAAAAAAAAAAAAAAAAAAAAAAAAAAAAAAAAAAAAAAAAAAAAAAAAAAAAAAAAAAAAAAAAAAAAAAAAAAAAAAAAAAAAAAAAAAAAAAAAAAAAAAAAAAAAAAAAAAAAAAAAAAAAAAAAAAAAAAAAAAAAAAAAAAAAAAAAAAAAAAAAAAAAAAAAAAAAAAAAAAAAAAAAAAAAAAAAAAAAAAAAAAAAAAAAAAAAAAAAAAAAAAAAAAAAAAAAAAAAAAAAAAAAAAAAAAAAAAAAAAAAAAAAAAAAAAAAAAAAAAAAAAAAAAAAAAAAAAAAAAAAAAAAAAAAAAAAAAAAAAAAAAAAAAAAAAAAAAAAAAAAAAAAAAAAAAAAAAAAAAAAAAAAAAAAAAAAAAAAAAAAAAAAAAAAAAAAAAAAAAAAAAAAAAAAAAAAAAAAAAAAAAAAAAAAAAAAAAAAAAAAAAAAAAAAAAAAAAAAAAAAAAAAAAAAAAAAAAAAAAAAAAAAAAAAAAAAAAAAAAAAAAAAAAAAAAAAAAAAAAAAAAAAAAAAAAAAAAPZYQFiqHu9pJupa+LVlg+TbT2qRAw8iCg4NvkSk+tP/pn5Q+p9RnXiNRdDdtfGT6bQ4J/Fc831TF8fg/y1xS/4ayR8=</c2pa:manifest></metadata><svg x="0" y="0" width="128" height="128" viewBox="0 0 128 128"><defs><clipPath id="c542"><path d="M36.5 93.75A7.5 6.5 -30 1 0 49.5 86.25A7.5 6.5 -30 1 0 36.5 93.75Z"></path></clipPath><clipPath id="c543"><path d="M43.5 93A19.5 16 0 1 0 82.5 93A19.5 16 0 1 0 43.5 93Z"></path></clipPath><clipPath id="c544"><path d="M29 54A31 25 0 1 0 91 54A31 25 0 1 0 29 54Z"></path><path d="M36.03 61.21Q34 59 32.34 61.5L25.66 71.5Q24 74 26.97 73.58L42.03 71.42Q45 71 42.97 68.79Z"></path></clipPath><clipPath id="c545"><path d="M77 66A13 10 0 1 0 103 66A13 10 0 1 0 77 66Z"></path></clipPath><clipPath id="c546"><path d="M95.8 61.5A5.2 4 0 1 0 106.2 61.5A5.2 4 0 1 0 95.8 61.5Z"></path></clipPath><clipPath id="c547"><path d="M33 40C32 22 45 13 60 13C75 13 87 21 87 38Q60 45 33 40Z"></path></clipPath><clipPath id="c548"><path d="M80 37C83 35.58 94.83 35 100 35.5C105.17 36 110.83 38.42 111 40C111.17 41.58 105.83 44.33 101 45C96.17 45.67 85.5 45.33 82 44C78.5 42.67 77 38.42 80 37Z"></path></clipPath><clipPath id="c549"><path d="M37.09 31.35Q34 33 33.26 29.58L29.74 13.42Q29 10 31.8 12.1L46.2 22.9Q49 25 45.91 26.65Z"></path></clipPath><clipPath id="c550"><path d="M71.27 26.25Q68 25 70.44 22.49L81.56 11.01Q84 8.5 84.7 11.93L88.3 29.57Q89 33 85.73 31.75Z"></path></clipPath></defs><g transform="translate(0 0) rotate(0 64 116)"><g transform="translate(0 5) rotate(8 47 96)"><path d="M36.5 93.75A7.5 6.5 -30 1 0 49.5 86.25A7.5 6.5 -30 1 0 36.5 93.75Z" fill="#2B2B3A" stroke="#2B2B3A" stroke-width="7" stroke-linejoin="round"></path><path d="M36.5 93.75A7.5 6.5 -30 1 0 49.5 86.25A7.5 6.5 -30 1 0 36.5 93.75Z" fill="#F0A04B"></path><g clip-path="url(#c542)"><path d="M36.5 93.75A7.5 6.5 -30 1 0 49.5 86.25A7.5 6.5 -30 1 0 36.5 93.75Z" fill="#CC7B2E"></path><g transform="translate(-1.4 -2)"><path d="M36.5 93.75A7.5 6.5 -30 1 0 49.5 86.25A7.5 6.5 -30 1 0 36.5 93.75Z" fill="#F0A04B"></path></g><path d="M34 86A4 4 0 1 0 42 86A4 4 0 1 0 34 86Z" fill="#F7F1E6"></path></g></g><path d="M56 105L54 107" fill="none" stroke="#2B2B3A" stroke-width="16" stroke-linecap="round" stroke-linejoin="round"></path><path d="M56 105L54 107" fill="none" stroke="#CC7B2E" stroke-width="9" stroke-linecap="round" stroke-linejoin="round"></path><path d="M43.5 111.5A7 4.3 0 1 0 57.5 111.5A7 4.3 0 1 0 43.5 111.5Z" fill="#2B2B3A" stroke="#2B2B3A" stroke-width="7" stroke-linejoin="round"></path><path d="M43.5 111.5A7 4.3 0 1 0 57.5 111.5A7 4.3 0 1 0 43.5 111.5Z" fill="#DCD1BE"></path><g transform="translate(0 5)"><path d="M53 87C52.46 88.44 50.11 93.19 49.76 95.63C49.4 98.06 50.68 100.61 50.87 101.61" fill="none" stroke="#2B2B3A" stroke-width="14.5" stroke-linecap="round" stroke-linejoin="round"></path><path d="M53 87C52.46 88.44 50.11 93.19 49.76 95.63C49.4 98.06 50.68 100.61 50.87 101.61" fill="none" stroke="#CC7B2E" stroke-width="7.5" stroke-linecap="round" stroke-linejoin="round"></path></g><g transform="translate(0 5)"><path d="M46.05 102.15A4.8 4.5 0 1 0 55.65 102.15A4.8 4.5 0 1 0 46.05 102.15Z" fill="#2B2B3A" stroke="#2B2B3A" stroke-width="7" stroke-linejoin="round"></path><path d="M46.05 102.15A4.8 4.5 0 1 0 55.65 102.15A4.8 4.5 0 1 0 46.05 102.15Z" fill="#DCD1BE"></path></g><g transform="translate(0 5)"><path d="M43.5 93A19.5 16 0 1 0 82.5 93A19.5 16 0 1 0 43.5 93Z" fill="#2B2B3A" stroke="#2B2B3A" stroke-width="7" stroke-linejoin="round"></path><path d="M43.5 93A19.5 16 0 1 0 82.5 93A19.5 16 0 1 0 43.5 93Z" fill="#F0A04B"></path><g clip-path="url(#c543)"><path d="M43.5 93A19.5 16 0 1 0 82.5 93A19.5 16 0 1 0 43.5 93Z" fill="#CC7B2E"></path><g transform="translate(-2.24 -3.2)"><path d="M43.5 93A19.5 16 0 1 0 82.5 93A19.5 16 0 1 0 43.5 93Z" fill="#F0A04B"></path></g><path d="M58.5 99A11.5 10 0 1 0 81.5 99A11.5 10 0 1 0 58.5 99Z" fill="#F7F1E6"></path><path d="M46.54 90A4 2.4 -30 1 0 53.46 86A4 2.4 -30 1 0 46.54 90Z" fill="#FFCB8E"></path></g></g><path d="M69 105L71 107" fill="none" stroke="#2B2B3A" stroke-width="16" stroke-linecap="round" stroke-linejoin="round"></path><path d="M69 105L71 107" fill="none" stroke="#F0A04B" stroke-width="9" stroke-linecap="round" stroke-linejoin="round"></path><path d="M67 111.5A7.5 4.5 0 1 0 82 111.5A7.5 4.5 0 1 0 67 111.5Z" fill="#2B2B3A" stroke="#2B2B3A" stroke-width="7" stroke-linejoin="round"></path><path d="M67 111.5A7.5 4.5 0 1 0 82 111.5A7.5 4.5 0 1 0 67 111.5Z" fill="#F7F1E6"></path><g transform="translate(0 5)"><path d="M73 86C73.41 87.48 75.15 92.24 75.48 94.88C75.81 97.52 75.08 100.67 75 101.83" fill="none" stroke="#2B2B3A" stroke-width="15" stroke-linecap="round" stroke-linejoin="round"></path><path d="M73 86C73.41 87.48 75.15 92.24 75.48 94.88C75.81 97.52 75.08 100.67 75 101.83" fill="none" stroke="#F0A04B" stroke-width="8" stroke-linecap="round" stroke-linejoin="round"></path></g><g transform="translate(0 5)"><path d="M70.03 102.95A5 4.7 0 1 0 80.03 102.95A5 4.7 0 1 0 70.03 102.95Z" fill="#2B2B3A" stroke="#2B2B3A" stroke-width="7" stroke-linejoin="round"></path><path d="M70.03 102.95A5 4.7 0 1 0 80.03 102.95A5 4.7 0 1 0 70.03 102.95Z" fill="#F7F1E6"></path></g><g transform="translate(0 6) rotate(0 62 80)"><path d="M29 54A31 25 0 1 0 91 54A31 25 0 1 0 29 54Z" fill="#2B2B3A" stroke="#2B2B3A" stroke-width="7" stroke-linejoin="round"></path><path d="M36.03 61.21Q34 59 32.34 61.5L25.66 71.5Q24 74 26.97 73.58L42.03 71.42Q45 71 42.97 68.79Z" fill="#2B2B3A" stroke="#2B2B3A" stroke-width="7" stroke-linejoin="round"></path><path d="M29 54A31 25 0 1 0 91 54A31 25 0 1 0 29 54Z" fill="#F0A04B"></path><path d="M36.03 61.21Q34 59 32.34 61.5L25.66 71.5Q24 74 26.97 73.58L42.03 71.42Q45 71 42.97 68.79Z" fill="#F0A04B"></path><g clip-path="url(#c544)"><path d="M29 54A31 25 0 1 0 91 54A31 25 0 1 0 29 54Z" fill="#CC7B2E"></path><path d="M36.03 61.21Q34 59 32.34 61.5L25.66 71.5Q24 74 26.97 73.58L42.03 71.42Q45 71 42.97 68.79Z" fill="#CC7B2E"></path><g transform="translate(-3.5 -5)"><path d="M29 54A31 25 0 1 0 91 54A31 25 0 1 0 29 54Z" fill="#F0A04B"></path><path d="M36.03 61.21Q34 59 32.34 61.5L25.66 71.5Q24 74 26.97 73.58L42.03 71.42Q45 71 42.97 68.79Z" fill="#F0A04B"></path></g><path d="M44.16 80.14A30 12 -6 1 0 103.84 73.86A30 12 -6 1 0 44.16 80.14Z" fill="#F7F1E6"></path><path d="M81.92 51.44A3.4 8 -25 1 0 88.08 48.56A3.4 8 -25 1 0 81.92 51.44Z" fill="#F7F1E6"></path></g></g><g transform="translate(0 6) rotate(0 62 80)"><path d="M44.55 57.81Q49.5 50.55 54.45 57.81" fill="none" stroke="#2B2B3A" stroke-width="2.4" stroke-linecap="round" stroke-linejoin="round"></path><path d="M66.45 57.09Q72 48.95 77.55 57.09" fill="none" stroke="#2B2B3A" stroke-width="2.4" stroke-linecap="round" stroke-linejoin="round"></path></g><g transform="translate(0 6) rotate(0 62 80)"><path d="M77 66A13 10 0 1 0 103 66A13 10 0 1 0 77 66Z" fill="#2B2B3A" stroke="#2B2B3A" stroke-width="7" stroke-linejoin="round"></path><path d="M77 66A13 10 0 1 0 103 66A13 10 0 1 0 77 66Z" fill="#F7F1E6"></path><g clip-path="url(#c545)"><path d="M77 66A13 10 0 1 0 103 66A13 10 0 1 0 77 66Z" fill="#DCD1BE"></path><g transform="translate(-1.26 -1.8)"><path d="M77 66A13 10 0 1 0 103 66A13 10 0 1 0 77 66Z" fill="#F7F1E6"></path></g><path d="M81.14 61.54A4 2 -15 1 0 88.86 59.46A4 2 -15 1 0 81.14 61.54Z" fill="#FFFFFF"></path></g></g><g transform="translate(0 6) rotate(0 62 80)"><path d="M95.8 61.5A5.2 4 0 1 0 106.2 61.5A5.2 4 0 1 0 95.8 61.5Z" fill="#2B2B3A"></path><g clip-path="url(#c546)"><path d="M97.8 60.1A1.6 1 0 1 0 101 60.1A1.6 1 0 1 0 97.8 60.1Z" fill="#fff"></path></g></g><g transform="translate(0 6) rotate(0 62 80)"><path d="M87.5 70Q94 81.5 100.5 69.5Z" fill="#C9475A" stroke="#2B2B3A" stroke-width="2" stroke-linecap="round" stroke-linejoin="round"></path></g><g transform="translate(0 6) rotate(0 62 80) translate(0 0)"><path d="M33 40C32 22 45 13 60 13C75 13 87 21 87 38Q60 45 33 40Z" fill="#2B2B3A" stroke="#2B2B3A" stroke-width="7" stroke-linejoin="round"></path><path d="M33 40C32 22 45 13 60 13C75 13 87 21 87 38Q60 45 33 40Z" fill="#E0584B"></path><g clip-path="url(#c547)"><path d="M33 40C32 22 45 13 60 13C75 13 87 21 87 38Q60 45 33 40Z" fill="#B8433A"></path><g transform="translate(-1.68 -2.4)"><path d="M33 40C32 22 45 13 60 13C75 13 87 21 87 38Q60 45 33 40Z" fill="#E0584B"></path></g><path d="M42.56 23.54A6 3 -25 1 0 53.44 18.46A6 3 -25 1 0 42.56 23.54Z" fill="#F59287"></path></g></g><g transform="translate(0 6) rotate(0 62 80) translate(0 0)"><path d="M80 37C83 35.58 94.83 35 100 35.5C105.17 36 110.83 38.42 111 40C111.17 41.58 105.83 44.33 101 45C96.17 45.67 85.5 45.33 82 44C78.5 42.67 77 38.42 80 37Z" fill="#2B2B3A" stroke="#2B2B3A" stroke-width="7" stroke-linejoin="round"></path><path d="M80 37C83 35.58 94.83 35 100 35.5C105.17 36 110.83 38.42 111 40C111.17 41.58 105.83 44.33 101 45C96.17 45.67 85.5 45.33 82 44C78.5 42.67 77 38.42 80 37Z" fill="#E0584B"></path><g clip-path="url(#c548)"><path d="M80 37C83 35.58 94.83 35 100 35.5C105.17 36 110.83 38.42 111 40C111.17 41.58 105.83 44.33 101 45C96.17 45.67 85.5 45.33 82 44C78.5 42.67 77 38.42 80 37Z" fill="#B8433A"></path><g transform="translate(-1.05 -1.5)"><path d="M80 37C83 35.58 94.83 35 100 35.5C105.17 36 110.83 38.42 111 40C111.17 41.58 105.83 44.33 101 45C96.17 45.67 85.5 45.33 82 44C78.5 42.67 77 38.42 80 37Z" fill="#E0584B"></path></g></g></g><g transform="translate(0 6) rotate(0 62 80) translate(0 0)"><path d="M56.4 13.5A3.6 2.4 0 1 0 63.6 13.5A3.6 2.4 0 1 0 56.4 13.5Z" fill="#2B2B3A" stroke="#2B2B3A" stroke-width="7" stroke-linejoin="round"></path><path d="M56.4 13.5A3.6 2.4 0 1 0 63.6 13.5A3.6 2.4 0 1 0 56.4 13.5Z" fill="#E0584B"></path></g><g transform="translate(0 6) rotate(0 62 80) translate(0 0) rotate(4 40 30)"><path d="M37.09 31.35Q34 33 33.26 29.58L29.74 13.42Q29 10 31.8 12.1L46.2 22.9Q49 25 45.91 26.65Z" fill="#2B2B3A" stroke="#2B2B3A" stroke-width="7" stroke-linejoin="round"></path><path d="M37.09 31.35Q34 33 33.26 29.58L29.74 13.42Q29 10 31.8 12.1L46.2 22.9Q49 25 45.91 26.65Z" fill="#F0A04B"></path><g clip-path="url(#c549)"><path d="M38.33 28.7Q36.5 29.5 35.98 27.57L33.52 18.43Q33 16.5 34.54 17.77L42.96 24.73Q44.5 26 42.67 26.8Z" fill="#F7F1E6"></path></g></g><g transform="translate(0 6) rotate(0 62 80) translate(0 0) rotate(4 78 28)"><path d="M71.27 26.25Q68 25 70.44 22.49L81.56 11.01Q84 8.5 84.7 11.93L88.3 29.57Q89 33 85.73 31.75Z" fill="#2B2B3A" stroke="#2B2B3A" stroke-width="7" stroke-linejoin="round"></path><path d="M71.27 26.25Q68 25 70.44 22.49L81.56 11.01Q84 8.5 84.7 11.93L88.3 29.57Q89 33 85.73 31.75Z" fill="#F0A04B"></path><g clip-path="url(#c550)"><path d="M73.92 26.55Q72 26 73.41 24.59L81.59 16.41Q83 15 83.39 16.96L85.61 28.04Q86 30 84.08 29.45Z" fill="#F7F1E6"></path></g></g></g></svg><svg x="128" y="0" width="128" height="128" viewBox="0 0 128 128"><defs><clipPath id="c551"><path d="M36.5 93.75A7.5 6.5 -30 1 0 49.5 86.25A7.5 6.5 -30 1 0 36.5 93.75Z"></path></clipPath><clipPath id="c552"><path d="M43.5 93A19.5 16 0 1 0 82.5 93A19.5 16 0 1 0 43.5 93Z"></path></clipPath><clipPath id="c553"><path d="M29 54A31 25 0 1 0 91 54A31 25 0 1 0 29 54Z"></path><path d="M36.03 61.21Q34 59 32.34 61.5L25.66 71.5Q24 74 26.97 73.58L42.03 71.42Q45 71 42.97 68.79Z"></path></clipPath><clipPath id="c554"><path d="M77 66A13 10 0 1 0 103 66A13 10 0 1 0 77 66Z"></path></clipPath><clipPath id="c555"><path d="M95.8 61.5A5.2 4 0 1 0 106.2 61.5A5.2 4 0 1 0 95.8 61.5Z"></path></clipPath><clipPath id="c556"><path d="M33 40C32 22 45 13 60 13C75 13 87 21 87 38Q60 45 33 40Z"></path></clipPath><clipPath id="c557"><path d="M80 37C83 35.58 94.83 35 100 35.5C105.17 36 110.83 38.42 111 40C111.17 41.58 105.83 44.33 101 45C96.17 45.67 85.5 45.33 82 44C78.5 42.67 77 38.42 80 37Z"></path></clipPath><clipPath id="c558"><path d="M37.09 31.35Q34 33 33.26 29.58L29.74 13.42Q29 10 31.8 12.1L46.2 22.9Q49 25 45.91 26.65Z"></path></clipPath><clipPath id="c559"><path d="M71.27 26.25Q68 25 70.44 22.49L81.56 11.01Q84 8.5 84.7 11.93L88.3 29.57Q89 33 85.73 31.75Z"></path></clipPath></defs><g transform="translate(0 -4) rotate(0 64 116)"><g transform="translate(0 -1) rotate(-10 47 96)"><path d="M36.5 93.75A7.5 6.5 -30 1 0 49.5 86.25A7.5 6.5 -30 1 0 36.5 93.75Z" fill="#2B2B3A" stroke="#2B2B3A" stroke-width="7" stroke-linejoin="round"></path><path d="M36.5 93.75A7.5 6.5 -30 1 0 49.5 86.25A7.5 6.5 -30 1 0 36.5 93.75Z" fill="#F0A04B"></path><g clip-path="url(#c551)"><path d="M36.5 93.75A7.5 6.5 -30 1 0 49.5 86.25A7.5 6.5 -30 1 0 36.5 93.75Z" fill="#CC7B2E"></path><g transform="translate(-1.4 -2)"><path d="M36.5 93.75A7.5 6.5 -30 1 0 49.5 86.25A7.5 6.5 -30 1 0 36.5 93.75Z" fill="#F0A04B"></path></g><path d="M34 86A4 4 0 1 0 42 86A4 4 0 1 0 34 86Z" fill="#F7F1E6"></path></g></g><path d="M56 99L52.6 105" fill="none" stroke="#2B2B3A" stroke-width="16" stroke-linecap="round" stroke-linejoin="round"></path><path d="M56 99L52.6 105" fill="none" stroke="#CC7B2E" stroke-width="9" stroke-linecap="round" stroke-linejoin="round"></path><path d="M41.5 109.5A7 4.3 0 1 0 55.5 109.5A7 4.3 0 1 0 41.5 109.5Z" fill="#2B2B3A" stroke="#2B2B3A" stroke-width="7" stroke-linejoin="round"></path><path d="M41.5 109.5A7 4.3 0 1 0 55.5 109.5A7 4.3 0 1 0 41.5 109.5Z" fill="#DCD1BE"></path><g transform="translate(0 -1)"><path d="M53 87C52.02 85.81 49.08 81.4 47.15 79.88C45.22 78.35 42.37 78.19 41.41 77.85" fill="none" stroke="#2B2B3A" stroke-width="14.5" stroke-linecap="round" stroke-linejoin="round"></path><path d="M53 87C52.02 85.81 49.08 81.4 47.15 79.88C45.22 78.35 42.37 78.19 41.41 77.85" fill="none" stroke="#CC7B2E" stroke-width="7.5" stroke-linecap="round" stroke-linejoin="round"></path></g><g transform="translate(0 -1)"><path d="M36.16 77.57A4.8 4.5 0 1 0 45.76 77.57A4.8 4.5 0 1 0 36.16 77.57Z" fill="#2B2B3A" stroke="#2B2B3A" stroke-width="7" stroke-linejoin="round"></path><path d="M36.16 77.57A4.8 4.5 0 1 0 45.76 77.57A4.8 4.5 0 1 0 36.16 77.57Z" fill="#DCD1BE"></path></g><g transform="translate(0 -1)"><path d="M43.5 93A19.5 16 0 1 0 82.5 93A19.5 16 0 1 0 43.5 93Z" fill="#2B2B3A" stroke="#2B2B3A" stroke-width="7" stroke-linejoin="round"></path><path d="M43.5 93A19.5 16 0 1 0 82.5 93A19.5 16 0 1 0 43.5 93Z" fill="#F0A04B"></path><g clip-path="url(#c552)"><path d="M43.5 93A19.5 16 0 1 0 82.5 93A19.5 16 0 1 0 43.5 93Z" fill="#CC7B2E"></path><g transform="translate(-2.24 -3.2)"><path d="M43.5 93A19.5 16 0 1 0 82.5 93A19.5 16 0 1 0 43.5 93Z" fill="#F0A04B"></path></g><path d="M58.5 99A11.5 10 0 1 0 81.5 99A11.5 10 0 1 0 58.5 99Z" fill="#F7F1E6"></path><path d="M46.54 90A4 2.4 -30 1 0 53.46 86A4 2.4 -30 1 0 46.54 90Z" fill="#FFCB8E"></path></g></g><path d="M69 99L72.4 105" fill="none" stroke="#2B2B3A" stroke-width="16" stroke-linecap="round" stroke-linejoin="round"></path><path d="M69 99L72.4 105" fill="none" stroke="#F0A04B" stroke-width="9" stroke-linecap="round" stroke-linejoin="round"></path><path d="M69 109.5A7.5 4.5 0 1 0 84 109.5A7.5 4.5 0 1 0 69 109.5Z" fill="#2B2B3A" stroke="#2B2B3A" stroke-width="7" stroke-linejoin="round"></path><path d="M69 109.5A7.5 4.5 0 1 0 84 109.5A7.5 4.5 0 1 0 69 109.5Z" fill="#F7F1E6"></path><g transform="translate(0 -1) rotate(0 62 80)"><path d="M29 54A31 25 0 1 0 91 54A31 25 0 1 0 29 54Z" fill="#2B2B3A" stroke="#2B2B3A" stroke-width="7" stroke-linejoin="round"></path><path d="M36.03 61.21Q34 59 32.34 61.5L25.66 71.5Q24 74 26.97 73.58L42.03 71.42Q45 71 42.97 68.79Z" fill="#2B2B3A" stroke="#2B2B3A" stroke-width="7" stroke-linejoin="round"></path><path d="M29 54A31 25 0 1 0 91 54A31 25 0 1 0 29 54Z" fill="#F0A04B"></path><path d="M36.03 61.21Q34 59 32.34 61.5L25.66 71.5Q24 74 26.97 73.58L42.03 71.42Q45 71 42.97 68.79Z" fill="#F0A04B"></path><g clip-path="url(#c553)"><path d="M29 54A31 25 0 1 0 91 54A31 25 0 1 0 29 54Z" fill="#CC7B2E"></path><path d="M36.03 61.21Q34 59 32.34 61.5L25.66 71.5Q24 74 26.97 73.58L42.03 71.42Q45 71 42.97 68.79Z" fill="#CC7B2E"></path><g transform="translate(-3.5 -5)"><path d="M29 54A31 25 0 1 0 91 54A31 25 0 1 0 29 54Z" fill="#F0A04B"></path><path d="M36.03 61.21Q34 59 32.34 61.5L25.66 71.5Q24 74 26.97 73.58L42.03 71.42Q45 71 42.97 68.79Z" fill="#F0A04B"></path></g><path d="M44.16 80.14A30 12 -6 1 0 103.84 73.86A30 12 -6 1 0 44.16 80.14Z" fill="#F7F1E6"></path><path d="M81.92 51.44A3.4 8 -25 1 0 88.08 48.56A3.4 8 -25 1 0 81.92 51.44Z" fill="#F7F1E6"></path></g></g><g transform="translate(0 -1) rotate(0 62 80)"><path d="M44.55 57.81Q49.5 50.55 54.45 57.81" fill="none" stroke="#2B2B3A" stroke-width="2.4" stroke-linecap="round" stroke-linejoin="round"></path><path d="M66.45 57.09Q72 48.95 77.55 57.09" fill="none" stroke="#2B2B3A" stroke-width="2.4" stroke-linecap="round" stroke-linejoin="round"></path></g><g transform="translate(0 -1) rotate(0 62 80)"><path d="M77 66A13 10 0 1 0 103 66A13 10 0 1 0 77 66Z" fill="#2B2B3A" stroke="#2B2B3A" stroke-width="7" stroke-linejoin="round"></path><path d="M77 66A13 10 0 1 0 103 66A13 10 0 1 0 77 66Z" fill="#F7F1E6"></path><g clip-path="url(#c554)"><path d="M77 66A13 10 0 1 0 103 66A13 10 0 1 0 77 66Z" fill="#DCD1BE"></path><g transform="translate(-1.26 -1.8)"><path d="M77 66A13 10 0 1 0 103 66A13 10 0 1 0 77 66Z" fill="#F7F1E6"></path></g><path d="M81.14 61.54A4 2 -15 1 0 88.86 59.46A4 2 -15 1 0 81.14 61.54Z" fill="#FFFFFF"></path></g></g><g transform="translate(0 -1) rotate(0 62 80)"><path d="M95.8 61.5A5.2 4 0 1 0 106.2 61.5A5.2 4 0 1 0 95.8 61.5Z" fill="#2B2B3A"></path><g clip-path="url(#c555)"><path d="M97.8 60.1A1.6 1 0 1 0 101 60.1A1.6 1 0 1 0 97.8 60.1Z" fill="#fff"></path></g></g><g transform="translate(0 -1) rotate(0 62 80)"><path d="M87.5 70Q94 81.5 100.5 69.5Z" fill="#C9475A" stroke="#2B2B3A" stroke-width="2" stroke-linecap="round" stroke-linejoin="round"></path></g><g transform="translate(0 -1) rotate(0 62 80) translate(0 -0.5)"><path d="M33 40C32 22 45 13 60 13C75 13 87 21 87 38Q60 45 33 40Z" fill="#2B2B3A" stroke="#2B2B3A" stroke-width="7" stroke-linejoin="round"></path><path d="M33 40C32 22 45 13 60 13C75 13 87 21 87 38Q60 45 33 40Z" fill="#E0584B"></path><g clip-path="url(#c556)"><path d="M33 40C32 22 45 13 60 13C75 13 87 21 87 38Q60 45 33 40Z" fill="#B8433A"></path><g transform="translate(-1.68 -2.4)"><path d="M33 40C32 22 45 13 60 13C75 13 87 21 87 38Q60 45 33 40Z" fill="#E0584B"></path></g><path d="M42.56 23.54A6 3 -25 1 0 53.44 18.46A6 3 -25 1 0 42.56 23.54Z" fill="#F59287"></path></g></g><g transform="translate(0 -1) rotate(0 62 80) translate(0 -0.5)"><path d="M80 37C83 35.58 94.83 35 100 35.5C105.17 36 110.83 38.42 111 40C111.17 41.58 105.83 44.33 101 45C96.17 45.67 85.5 45.33 82 44C78.5 42.67 77 38.42 80 37Z" fill="#2B2B3A" stroke="#2B2B3A" stroke-width="7" stroke-linejoin="round"></path><path d="M80 37C83 35.58 94.83 35 100 35.5C105.17 36 110.83 38.42 111 40C111.17 41.58 105.83 44.33 101 45C96.17 45.67 85.5 45.33 82 44C78.5 42.67 77 38.42 80 37Z" fill="#E0584B"></path><g clip-path="url(#c557)"><path d="M80 37C83 35.58 94.83 35 100 35.5C105.17 36 110.83 38.42 111 40C111.17 41.58 105.83 44.33 101 45C96.17 45.67 85.5 45.33 82 44C78.5 42.67 77 38.42 80 37Z" fill="#B8433A"></path><g transform="translate(-1.05 -1.5)"><path d="M80 37C83 35.58 94.83 35 100 35.5C105.17 36 110.83 38.42 111 40C111.17 41.58 105.83 44.33 101 45C96.17 45.67 85.5 45.33 82 44C78.5 42.67 77 38.42 80 37Z" fill="#E0584B"></path></g></g></g><g transform="translate(0 -1) rotate(0 62 80) translate(0 -0.5)"><path d="M56.4 13.5A3.6 2.4 0 1 0 63.6 13.5A3.6 2.4 0 1 0 56.4 13.5Z" fill="#2B2B3A" stroke="#2B2B3A" stroke-width="7" stroke-linejoin="round"></path><path d="M56.4 13.5A3.6 2.4 0 1 0 63.6 13.5A3.6 2.4 0 1 0 56.4 13.5Z" fill="#E0584B"></path></g><g transform="translate(0 -1) rotate(0 62 80) translate(0 -0.5) rotate(-8 40 30)"><path d="M37.09 31.35Q34 33 33.26 29.58L29.74 13.42Q29 10 31.8 12.1L46.2 22.9Q49 25 45.91 26.65Z" fill="#2B2B3A" stroke="#2B2B3A" stroke-width="7" stroke-linejoin="round"></path><path d="M37.09 31.35Q34 33 33.26 29.58L29.74 13.42Q29 10 31.8 12.1L46.2 22.9Q49 25 45.91 26.65Z" fill="#F0A04B"></path><g clip-path="url(#c558)"><path d="M38.33 28.7Q36.5 29.5 35.98 27.57L33.52 18.43Q33 16.5 34.54 17.77L42.96 24.73Q44.5 26 42.67 26.8Z" fill="#F7F1E6"></path></g></g><g transform="translate(0 -1) rotate(0 62 80) translate(0 -0.5) rotate(-8 78 28)"><path d="M71.27 26.25Q68 25 70.44 22.49L81.56 11.01Q84 8.5 84.7 11.93L88.3 29.57Q89 33 85.73 31.75Z" fill="#2B2B3A" stroke="#2B2B3A" stroke-width="7" stroke-linejoin="round"></path><path d="M71.27 26.25Q68 25 70.44 22.49L81.56 11.01Q84 8.5 84.7 11.93L88.3 29.57Q89 33 85.73 31.75Z" fill="#F0A04B"></path><g clip-path="url(#c559)"><path d="M73.92 26.55Q72 26 73.41 24.59L81.59 16.41Q83 15 83.39 16.96L85.61 28.04Q86 30 84.08 29.45Z" fill="#F7F1E6"></path></g></g><g transform="translate(0 -1)"><path d="M73 86C74.32 85.22 78.47 82.31 80.94 81.31C83.4 80.3 86.63 80.2 87.77 79.97" fill="none" stroke="#2B2B3A" stroke-width="15" stroke-linecap="round" stroke-linejoin="round"></path><path d="M73 86C74.32 85.22 78.47 82.31 80.94 81.31C83.4 80.3 86.63 80.2 87.77 79.97" fill="none" stroke="#F0A04B" stroke-width="8" stroke-linecap="round" stroke-linejoin="round"></path></g><g transform="translate(0 -1)"><path d="M83.84 79.65A5 4.7 0 1 0 93.84 79.65A5 4.7 0 1 0 83.84 79.65Z" fill="#2B2B3A" stroke="#2B2B3A" stroke-width="7" stroke-linejoin="round"></path><path d="M83.84 79.65A5 4.7 0 1 0 93.84 79.65A5 4.7 0 1 0 83.84 79.65Z" fill="#F7F1E6"></path></g></g></svg><svg x="256" y="0" width="128" height="128" viewBox="0 0 128 128"><defs><clipPath id="c560"><path d="M36.5 93.75A7.5 6.5 -30 1 0 49.5 86.25A7.5 6.5 -30 1 0 36.5 93.75Z"></path></clipPath><clipPath id="c561"><path d="M43.5 93A19.5 16 0 1 0 82.5 93A19.5 16 0 1 0 43.5 93Z"></path></clipPath><clipPath id="c562"><path d="M29 54A31 25 0 1 0 91 54A31 25 0 1 0 29 54Z"></path><path d="M36.03 61.21Q34 59 32.34 61.5L25.66 71.5Q24 74 26.97 73.58L42.03 71.42Q45 71 42.97 68.79Z"></path></clipPath><clipPath id="c563"><path d="M77 66A13 10 0 1 0 103 66A13 10 0 1 0 77 66Z"></path></clipPath><clipPath id="c564"><path d="M95.8 61.5A5.2 4 0 1 0 106.2 61.5A5.2 4 0 1 0 95.8 61.5Z"></path></clipPath><clipPath id="c565"><path d="M33 40C32 22 45 13 60 13C75 13 87 21 87 38Q60 45 33 40Z"></path></clipPath><clipPath id="c566"><path d="M80 37C83 35.58 94.83 35 100 35.5C105.17 36 110.83 38.42 111 40C111.17 41.58 105.83 44.33 101 45C96.17 45.67 85.5 45.33 82 44C78.5 42.67 77 38.42 80 37Z"></path></clipPath><clipPath id="c567"><path d="M37.09 31.35Q34 33 33.26 29.58L29.74 13.42Q29 10 31.8 12.1L46.2 22.9Q49 25 45.91 26.65Z"></path></clipPath><clipPath id="c568"><path d="M71.27 26.25Q68 25 70.44 22.49L81.56 11.01Q84 8.5 84.7 11.93L88.3 29.57Q89 33 85.73 31.75Z"></path></clipPath></defs><g transform="translate(0 -6) rotate(0 64 116)"><g transform="translate(0 -1) rotate(-14 47 96)"><path d="M36.5 93.75A7.5 6.5 -30 1 0 49.5 86.25A7.5 6.5 -30 1 0 36.5 93.75Z" fill="#2B2B3A" stroke="#2B2B3A" stroke-width="7" stroke-linejoin="round"></path><path d="M36.5 93.75A7.5 6.5 -30 1 0 49.5 86.25A7.5 6.5 -30 1 0 36.5 93.75Z" fill="#F0A04B"></path><g clip-path="url(#c560)"><path d="M36.5 93.75A7.5 6.5 -30 1 0 49.5 86.25A7.5 6.5 -30 1 0 36.5 93.75Z" fill="#CC7B2E"></path><g transform="translate(-1.4 -2)"><path d="M36.5 93.75A7.5 6.5 -30 1 0 49.5 86.25A7.5 6.5 -30 1 0 36.5 93.75Z" fill="#F0A04B"></path></g><path d="M34 86A4 4 0 1 0 42 86A4 4 0 1 0 34 86Z" fill="#F7F1E6"></path></g></g><path d="M56 99L51.9 102" fill="none" stroke="#2B2B3A" stroke-width="16" stroke-linecap="round" stroke-linejoin="round"></path><path d="M56 99L51.9 102" fill="none" stroke="#CC7B2E" stroke-width="9" stroke-linecap="round" stroke-linejoin="round"></path><path d="M40.5 106.5A7 4.3 0 1 0 54.5 106.5A7 4.3 0 1 0 40.5 106.5Z" fill="#2B2B3A" stroke="#2B2B3A" stroke-width="7" stroke-linejoin="round"></path><path d="M40.5 106.5A7 4.3 0 1 0 54.5 106.5A7 4.3 0 1 0 40.5 106.5Z" fill="#DCD1BE"></path><g transform="translate(0 -1)"><path d="M53 87C52.37 85.6 50.66 80.58 49.19 78.6C47.72 76.63 45.01 75.74 44.18 75.16" fill="none" stroke="#2B2B3A" stroke-width="14.5" stroke-linecap="round" stroke-linejoin="round"></path><path d="M53 87C52.37 85.6 50.66 80.58 49.19 78.6C47.72 76.63 45.01 75.74 44.18 75.16" fill="none" stroke="#CC7B2E" stroke-width="7.5" stroke-linecap="round" stroke-linejoin="round"></path></g><g transform="translate(0 -1)"><path d="M39.01 74.77A4.8 4.5 0 1 0 48.61 74.77A4.8 4.5 0 1 0 39.01 74.77Z" fill="#2B2B3A" stroke="#2B2B3A" stroke-width="7" stroke-linejoin="round"></path><path d="M39.01 74.77A4.8 4.5 0 1 0 48.61 74.77A4.8 4.5 0 1 0 39.01 74.77Z" fill="#DCD1BE"></path></g><g transform="translate(0 -1)"><path d="M43.5 93A19.5 16 0 1 0 82.5 93A19.5 16 0 1 0 43.5 93Z" fill="#2B2B3A" stroke="#2B2B3A" stroke-width="7" stroke-linejoin="round"></path><path d="M43.5 93A19.5 16 0 1 0 82.5 93A19.5 16 0 1 0 43.5 93Z" fill="#F0A04B"></path><g clip-path="url(#c561)"><path d="M43.5 93A19.5 16 0 1 0 82.5 93A19.5 16 0 1 0 43.5 93Z" fill="#CC7B2E"></path><g transform="translate(-2.24 -3.2)"><path d="M43.5 93A19.5 16 0 1 0 82.5 93A19.5 16 0 1 0 43.5 93Z" fill="#F0A04B"></path></g><path d="M58.5 99A11.5 10 0 1 0 81.5 99A11.5 10 0 1 0 58.5 99Z" fill="#F7F1E6"></path><path d="M46.54 90A4 2.4 -30 1 0 53.46 86A4 2.4 -30 1 0 46.54 90Z" fill="#FFCB8E"></path></g></g><path d="M69 99L73.1 102" fill="none" stroke="#2B2B3A" stroke-width="16" stroke-linecap="round" stroke-linejoin="round"></path><path d="M69 99L73.1 102" fill="none" stroke="#F0A04B" stroke-width="9" stroke-linecap="round" stroke-linejoin="round"></path><path d="M70 106.5A7.5 4.5 0 1 0 85 106.5A7.5 4.5 0 1 0 70 106.5Z" fill="#2B2B3A" stroke="#2B2B3A" stroke-width="7" stroke-linejoin="round"></path><path d="M70 106.5A7.5 4.5 0 1 0 85 106.5A7.5 4.5 0 1 0 70 106.5Z" fill="#F7F1E6"></path><g transform="translate(0 -1) rotate(0 62 80)"><path d="M29 54A31 25 0 1 0 91 54A31 25 0 1 0 29 54Z" fill="#2B2B3A" stroke="#2B2B3A" stroke-width="7" stroke-linejoin="round"></path><path d="M36.03 61.21Q34 59 32.34 61.5L25.66 71.5Q24 74 26.97 73.58L42.03 71.42Q45 71 42.97 68.79Z" fill="#2B2B3A" stroke="#2B2B3A" stroke-width="7" stroke-linejoin="round"></path><path d="M29 54A31 25 0 1 0 91 54A31 25 0 1 0 29 54Z" fill="#F0A04B"></path><path d="M36.03 61.21Q34 59 32.34 61.5L25.66 71.5Q24 74 26.97 73.58L42.03 71.42Q45 71 42.97 68.79Z" fill="#F0A04B"></path><g clip-path="url(#c562)"><path d="M29 54A31 25 0 1 0 91 54A31 25 0 1 0 29 54Z" fill="#CC7B2E"></path><path d="M36.03 61.21Q34 59 32.34 61.5L25.66 71.5Q24 74 26.97 73.58L42.03 71.42Q45 71 42.97 68.79Z" fill="#CC7B2E"></path><g transform="translate(-3.5 -5)"><path d="M29 54A31 25 0 1 0 91 54A31 25 0 1 0 29 54Z" fill="#F0A04B"></path><path d="M36.03 61.21Q34 59 32.34 61.5L25.66 71.5Q24 74 26.97 73.58L42.03 71.42Q45 71 42.97 68.79Z" fill="#F0A04B"></path></g><path d="M44.16 80.14A30 12 -6 1 0 103.84 73.86A30 12 -6 1 0 44.16 80.14Z" fill="#F7F1E6"></path><path d="M81.92 51.44A3.4 8 -25 1 0 88.08 48.56A3.4 8 -25 1 0 81.92 51.44Z" fill="#F7F1E6"></path></g></g><g transform="translate(0 -1) rotate(0 62 80)"><path d="M44.55 57.81Q49.5 50.55 54.45 57.81" fill="none" stroke="#2B2B3A" stroke-width="2.4" stroke-linecap="round" stroke-linejoin="round"></path><path d="M66.45 57.09Q72 48.95 77.55 57.09" fill="none" stroke="#2B2B3A" stroke-width="2.4" stroke-linecap="round" stroke-linejoin="round"></path></g><g transform="translate(0 -1) rotate(0 62 80)"><path d="M77 66A13 10 0 1 0 103 66A13 10 0 1 0 77 66Z" fill="#2B2B3A" stroke="#2B2B3A" stroke-width="7" stroke-linejoin="round"></path><path d="M77 66A13 10 0 1 0 103 66A13 10 0 1 0 77 66Z" fill="#F7F1E6"></path><g clip-path="url(#c563)"><path d="M77 66A13 10 0 1 0 103 66A13 10 0 1 0 77 66Z" fill="#DCD1BE"></path><g transform="translate(-1.26 -1.8)"><path d="M77 66A13 10 0 1 0 103 66A13 10 0 1 0 77 66Z" fill="#F7F1E6"></path></g><path d="M81.14 61.54A4 2 -15 1 0 88.86 59.46A4 2 -15 1 0 81.14 61.54Z" fill="#FFFFFF"></path></g></g><g transform="translate(0 -1) rotate(0 62 80)"><path d="M95.8 61.5A5.2 4 0 1 0 106.2 61.5A5.2 4 0 1 0 95.8 61.5Z" fill="#2B2B3A"></path><g clip-path="url(#c564)"><path d="M97.8 60.1A1.6 1 0 1 0 101 60.1A1.6 1 0 1 0 97.8 60.1Z" fill="#fff"></path></g></g><g transform="translate(0 -1) rotate(0 62 80)"><path d="M87.5 70Q94 81.5 100.5 69.5Z" fill="#C9475A" stroke="#2B2B3A" stroke-width="2" stroke-linecap="round" stroke-linejoin="round"></path></g><g transform="translate(0 -1) rotate(0 62 80) translate(0 -1)"><path d="M33 40C32 22 45 13 60 13C75 13 87 21 87 38Q60 45 33 40Z" fill="#2B2B3A" stroke="#2B2B3A" stroke-width="7" stroke-linejoin="round"></path><path d="M33 40C32 22 45 13 60 13C75 13 87 21 87 38Q60 45 33 40Z" fill="#E0584B"></path><g clip-path="url(#c565)"><path d="M33 40C32 22 45 13 60 13C75 13 87 21 87 38Q60 45 33 40Z" fill="#B8433A"></path><g transform="translate(-1.68 -2.4)"><path d="M33 40C32 22 45 13 60 13C75 13 87 21 87 38Q60 45 33 40Z" fill="#E0584B"></path></g><path d="M42.56 23.54A6 3 -25 1 0 53.44 18.46A6 3 -25 1 0 42.56 23.54Z" fill="#F59287"></path></g></g><g transform="translate(0 -1) rotate(0 62 80) translate(0 -1)"><path d="M80 37C83 35.58 94.83 35 100 35.5C105.17 36 110.83 38.42 111 40C111.17 41.58 105.83 44.33 101 45C96.17 45.67 85.5 45.33 82 44C78.5 42.67 77 38.42 80 37Z" fill="#2B2B3A" stroke="#2B2B3A" stroke-width="7" stroke-linejoin="round"></path><path d="M80 37C83 35.58 94.83 35 100 35.5C105.17 36 110.83 38.42 111 40C111.17 41.58 105.83 44.33 101 45C96.17 45.67 85.5 45.33 82 44C78.5 42.67 77 38.42 80 37Z" fill="#E0584B"></path><g clip-path="url(#c566)"><path d="M80 37C83 35.58 94.83 35 100 35.5C105.17 36 110.83 38.42 111 40C111.17 41.58 105.83 44.33 101 45C96.17 45.67 85.5 45.33 82 44C78.5 42.67 77 38.42 80 37Z" fill="#B8433A"></path><g transform="translate(-1.05 -1.5)"><path d="M80 37C83 35.58 94.83 35 100 35.5C105.17 36 110.83 38.42 111 40C111.17 41.58 105.83 44.33 101 45C96.17 45.67 85.5 45.33 82 44C78.5 42.67 77 38.42 80 37Z" fill="#E0584B"></path></g></g></g><g transform="translate(0 -1) rotate(0 62 80) translate(0 -1)"><path d="M56.4 13.5A3.6 2.4 0 1 0 63.6 13.5A3.6 2.4 0 1 0 56.4 13.5Z" fill="#2B2B3A" stroke="#2B2B3A" stroke-width="7" stroke-linejoin="round"></path><path d="M56.4 13.5A3.6 2.4 0 1 0 63.6 13.5A3.6 2.4 0 1 0 56.4 13.5Z" fill="#E0584B"></path></g><g transform="translate(0 -1) rotate(0 62 80) translate(0 -1) rotate(-12 40 30)"><path d="M37.09 31.35Q34 33 33.26 29.58L29.74 13.42Q29 10 31.8 12.1L46.2 22.9Q49 25 45.91 26.65Z" fill="#2B2B3A" stroke="#2B2B3A" stroke-width="7" stroke-linejoin="round"></path><path d="M37.09 31.35Q34 33 33.26 29.58L29.74 13.42Q29 10 31.8 12.1L46.2 22.9Q49 25 45.91 26.65Z" fill="#F0A04B"></path><g clip-path="url(#c567)"><path d="M38.33 28.7Q36.5 29.5 35.98 27.57L33.52 18.43Q33 16.5 34.54 17.77L42.96 24.73Q44.5 26 42.67 26.8Z" fill="#F7F1E6"></path></g></g><g transform="translate(0 -1) rotate(0 62 80) translate(0 -1) rotate(-12 78 28)"><path d="M71.27 26.25Q68 25 70.44 22.49L81.56 11.01Q84 8.5 84.7 11.93L88.3 29.57Q89 33 85.73 31.75Z" fill="#2B2B3A" stroke="#2B2B3A" stroke-width="7" stroke-linejoin="round"></path><path d="M71.27 26.25Q68 25 70.44 22.49L81.56 11.01Q84 8.5 84.7 11.93L88.3 29.57Q89 33 85.73 31.75Z" fill="#F0A04B"></path><g clip-path="url(#c568)"><path d="M73.92 26.55Q72 26 73.41 24.59L81.59 16.41Q83 15 83.39 16.96L85.61 28.04Q86 30 84.08 29.45Z" fill="#F7F1E6"></path></g></g><g transform="translate(0 -1)"><path d="M73 86C74.08 84.9 77.33 81.02 79.45 79.41C81.57 77.81 84.66 76.87 85.71 76.36" fill="none" stroke="#2B2B3A" stroke-width="15" stroke-linecap="round" stroke-linejoin="round"></path><path d="M73 86C74.08 84.9 77.33 81.02 79.45 79.41C81.57 77.81 84.66 76.87 85.71 76.36" fill="none" stroke="#F0A04B" stroke-width="8" stroke-linecap="round" stroke-linejoin="round"></path></g><g transform="translate(0 -1)"><path d="M81.66 75.77A5 4.7 0 1 0 91.66 75.77A5 4.7 0 1 0 81.66 75.77Z" fill="#2B2B3A" stroke="#2B2B3A" stroke-width="7" stroke-linejoin="round"></path><path d="M81.66 75.77A5 4.7 0 1 0 91.66 75.77A5 4.7 0 1 0 81.66 75.77Z" fill="#F7F1E6"></path></g></g></svg><svg x="384" y="0" width="128" height="128" viewBox="0 0 128 128"><defs><clipPath id="c569"><path d="M36.5 93.75A7.5 6.5 -30 1 0 49.5 86.25A7.5 6.5 -30 1 0 36.5 93.75Z"></path></clipPath><clipPath id="c570"><path d="M43.5 93A19.5 16 0 1 0 82.5 93A19.5 16 0 1 0 43.5 93Z"></path></clipPath><clipPath id="c571"><path d="M29 54A31 25 0 1 0 91 54A31 25 0 1 0 29 54Z"></path><path d="M36.03 61.21Q34 59 32.34 61.5L25.66 71.5Q24 74 26.97 73.58L42.03 71.42Q45 71 42.97 68.79Z"></path></clipPath><clipPath id="c572"><path d="M77 66A13 10 0 1 0 103 66A13 10 0 1 0 77 66Z"></path></clipPath><clipPath id="c573"><path d="M95.8 61.5A5.2 4 0 1 0 106.2 61.5A5.2 4 0 1 0 95.8 61.5Z"></path></clipPath><clipPath id="c574"><path d="M33 40C32 22 45 13 60 13C75 13 87 21 87 38Q60 45 33 40Z"></path></clipPath><clipPath id="c575"><path d="M80 37C83 35.58 94.83 35 100 35.5C105.17 36 110.83 38.42 111 40C111.17 41.58 105.83 44.33 101 45C96.17 45.67 85.5 45.33 82 44C78.5 42.67 77 38.42 80 37Z"></path></clipPath><clipPath id="c576"><path d="M37.09 31.35Q34 33 33.26 29.58L29.74 13.42Q29 10 31.8 12.1L46.2 22.9Q49 25 45.91 26.65Z"></path></clipPath><clipPath id="c577"><path d="M71.27 26.25Q68 25 70.44 22.49L81.56 11.01Q84 8.5 84.7 11.93L88.3 29.57Q89 33 85.73 31.75Z"></path></clipPath></defs><g transform="translate(0 -4) rotate(0 64 116)"><g transform="translate(0 0) rotate(-6 47 96)"><path d="M36.5 93.75A7.5 6.5 -30 1 0 49.5 86.25A7.5 6.5 -30 1 0 36.5 93.75Z" fill="#2B2B3A" stroke="#2B2B3A" stroke-width="7" stroke-linejoin="round"></path><path d="M36.5 93.75A7.5 6.5 -30 1 0 49.5 86.25A7.5 6.5 -30 1 0 36.5 93.75Z" fill="#F0A04B"></path><g clip-path="url(#c569)"><path d="M36.5 93.75A7.5 6.5 -30 1 0 49.5 86.25A7.5 6.5 -30 1 0 36.5 93.75Z" fill="#CC7B2E"></path><g transform="translate(-1.4 -2)"><path d="M36.5 93.75A7.5 6.5 -30 1 0 49.5 86.25A7.5 6.5 -30 1 0 36.5 93.75Z" fill="#F0A04B"></path></g><path d="M34 86A4 4 0 1 0 42 86A4 4 0 1 0 34 86Z" fill="#F7F1E6"></path></g></g><path d="M56 100L53.3 105" fill="none" stroke="#2B2B3A" stroke-width="16" stroke-linecap="round" stroke-linejoin="round"></path><path d="M56 100L53.3 105" fill="none" stroke="#CC7B2E" stroke-width="9" stroke-linecap="round" stroke-linejoin="round"></path><path d="M42.5 109.5A7 4.3 0 1 0 56.5 109.5A7 4.3 0 1 0 42.5 109.5Z" fill="#2B2B3A" stroke="#2B2B3A" stroke-width="7" stroke-linejoin="round"></path><path d="M42.5 109.5A7 4.3 0 1 0 56.5 109.5A7 4.3 0 1 0 42.5 109.5Z" fill="#DCD1BE"></path><g transform="translate(0 0)"><path d="M53 87C51.92 85.9 48.61 81.76 46.55 80.41C44.49 79.06 41.64 79.15 40.66 78.89" fill="none" stroke="#2B2B3A" stroke-width="14.5" stroke-linecap="round" stroke-linejoin="round"></path><path d="M53 87C51.92 85.9 48.61 81.76 46.55 80.41C44.49 79.06 41.64 79.15 40.66 78.89" fill="none" stroke="#CC7B2E" stroke-width="7.5" stroke-linecap="round" stroke-linejoin="round"></path></g><g transform="translate(0 0)"><path d="M35.38 78.65A4.8 4.5 0 1 0 44.98 78.65A4.8 4.5 0 1 0 35.38 78.65Z" fill="#2B2B3A" stroke="#2B2B3A" stroke-width="7" stroke-linejoin="round"></path><path d="M35.38 78.65A4.8 4.5 0 1 0 44.98 78.65A4.8 4.5 0 1 0 35.38 78.65Z" fill="#DCD1BE"></path></g><g transform="translate(0 0)"><path d="M43.5 93A19.5 16 0 1 0 82.5 93A19.5 16 0 1 0 43.5 93Z" fill="#2B2B3A" stroke="#2B2B3A" stroke-width="7" stroke-linejoin="round"></path><path d="M43.5 93A19.5 16 0 1 0 82.5 93A19.5 16 0 1 0 43.5 93Z" fill="#F0A04B"></path><g clip-path="url(#c570)"><path d="M43.5 93A19.5 16 0 1 0 82.5 93A19.5 16 0 1 0 43.5 93Z" fill="#CC7B2E"></path><g transform="translate(-2.24 -3.2)"><path d="M43.5 93A19.5 16 0 1 0 82.5 93A19.5 16 0 1 0 43.5 93Z" fill="#F0A04B"></path></g><path d="M58.5 99A11.5 10 0 1 0 81.5 99A11.5 10 0 1 0 58.5 99Z" fill="#F7F1E6"></path><path d="M46.54 90A4 2.4 -30 1 0 53.46 86A4 2.4 -30 1 0 46.54 90Z" fill="#FFCB8E"></path></g></g><path d="M69 100L71.7 105" fill="none" stroke="#2B2B3A" stroke-width="16" stroke-linecap="round" stroke-linejoin="round"></path><path d="M69 100L71.7 105" fill="none" stroke="#F0A04B" stroke-width="9" stroke-linecap="round" stroke-linejoin="round"></path><path d="M68 109.5A7.5 4.5 0 1 0 83 109.5A7.5 4.5 0 1 0 68 109.5Z" fill="#2B2B3A" stroke="#2B2B3A" stroke-width="7" stroke-linejoin="round"></path><path d="M68 109.5A7.5 4.5 0 1 0 83 109.5A7.5 4.5 0 1 0 68 109.5Z" fill="#F7F1E6"></path><g transform="translate(0 0) rotate(0 62 80)"><path d="M29 54A31 25 0 1 0 91 54A31 25 0 1 0 29 54Z" fill="#2B2B3A" stroke="#2B2B3A" stroke-width="7" stroke-linejoin="round"></path><path d="M36.03 61.21Q34 59 32.34 61.5L25.66 71.5Q24 74 26.97 73.58L42.03 71.42Q45 71 42.97 68.79Z" fill="#2B2B3A" stroke="#2B2B3A" stroke-width="7" stroke-linejoin="round"></path><path d="M29 54A31 25 0 1 0 91 54A31 25 0 1 0 29 54Z" fill="#F0A04B"></path><path d="M36.03 61.21Q34 59 32.34 61.5L25.66 71.5Q24 74 26.97 73.58L42.03 71.42Q45 71 42.97 68.79Z" fill="#F0A04B"></path><g clip-path="url(#c571)"><path d="M29 54A31 25 0 1 0 91 54A31 25 0 1 0 29 54Z" fill="#CC7B2E"></path><path d="M36.03 61.21Q34 59 32.34 61.5L25.66 71.5Q24 74 26.97 73.58L42.03 71.42Q45 71 42.97 68.79Z" fill="#CC7B2E"></path><g transform="translate(-3.5 -5)"><path d="M29 54A31 25 0 1 0 91 54A31 25 0 1 0 29 54Z" fill="#F0A04B"></path><path d="M36.03 61.21Q34 59 32.34 61.5L25.66 71.5Q24 74 26.97 73.58L42.03 71.42Q45 71 42.97 68.79Z" fill="#F0A04B"></path></g><path d="M44.16 80.14A30 12 -6 1 0 103.84 73.86A30 12 -6 1 0 44.16 80.14Z" fill="#F7F1E6"></path><path d="M81.92 51.44A3.4 8 -25 1 0 88.08 48.56A3.4 8 -25 1 0 81.92 51.44Z" fill="#F7F1E6"></path></g></g><g transform="translate(0 0) rotate(0 62 80)"><path d="M44.55 57.81Q49.5 50.55 54.45 57.81" fill="none" stroke="#2B2B3A" stroke-width="2.4" stroke-linecap="round" stroke-linejoin="round"></path><path d="M66.45 57.09Q72 48.95 77.55 57.09" fill="none" stroke="#2B2B3A" stroke-width="2.4" stroke-linecap="round" stroke-linejoin="round"></path></g><g transform="translate(0 0) rotate(0 62 80)"><path d="M77 66A13 10 0 1 0 103 66A13 10 0 1 0 77 66Z" fill="#2B2B3A" stroke="#2B2B3A" stroke-width="7" stroke-linejoin="round"></path><path d="M77 66A13 10 0 1 0 103 66A13 10 0 1 0 77 66Z" fill="#F7F1E6"></path><g clip-path="url(#c572)"><path d="M77 66A13 10 0 1 0 103 66A13 10 0 1 0 77 66Z" fill="#DCD1BE"></path><g transform="translate(-1.26 -1.8)"><path d="M77 66A13 10 0 1 0 103 66A13 10 0 1 0 77 66Z" fill="#F7F1E6"></path></g><path d="M81.14 61.54A4 2 -15 1 0 88.86 59.46A4 2 -15 1 0 81.14 61.54Z" fill="#FFFFFF"></path></g></g><g transform="translate(0 0) rotate(0 62 80)"><path d="M95.8 61.5A5.2 4 0 1 0 106.2 61.5A5.2 4 0 1 0 95.8 61.5Z" fill="#2B2B3A"></path><g clip-path="url(#c573)"><path d="M97.8 60.1A1.6 1 0 1 0 101 60.1A1.6 1 0 1 0 97.8 60.1Z" fill="#fff"></path></g></g><g transform="translate(0 0) rotate(0 62 80)"><path d="M87.5 70Q94 81.5 100.5 69.5Z" fill="#C9475A" stroke="#2B2B3A" stroke-width="2" stroke-linecap="round" stroke-linejoin="round"></path></g><g transform="translate(0 0) rotate(0 62 80) translate(0 -0.5)"><path d="M33 40C32 22 45 13 60 13C75 13 87 21 87 38Q60 45 33 40Z" fill="#2B2B3A" stroke="#2B2B3A" stroke-width="7" stroke-linejoin="round"></path><path d="M33 40C32 22 45 13 60 13C75 13 87 21 87 38Q60 45 33 40Z" fill="#E0584B"></path><g clip-path="url(#c574)"><path d="M33 40C32 22 45 13 60 13C75 13 87 21 87 38Q60 45 33 40Z" fill="#B8433A"></path><g transform="translate(-1.68 -2.4)"><path d="M33 40C32 22 45 13 60 13C75 13 87 21 87 38Q60 45 33 40Z" fill="#E0584B"></path></g><path d="M42.56 23.54A6 3 -25 1 0 53.44 18.46A6 3 -25 1 0 42.56 23.54Z" fill="#F59287"></path></g></g><g transform="translate(0 0) rotate(0 62 80) translate(0 -0.5)"><path d="M80 37C83 35.58 94.83 35 100 35.5C105.17 36 110.83 38.42 111 40C111.17 41.58 105.83 44.33 101 45C96.17 45.67 85.5 45.33 82 44C78.5 42.67 77 38.42 80 37Z" fill="#2B2B3A" stroke="#2B2B3A" stroke-width="7" stroke-linejoin="round"></path><path d="M80 37C83 35.58 94.83 35 100 35.5C105.17 36 110.83 38.42 111 40C111.17 41.58 105.83 44.33 101 45C96.17 45.67 85.5 45.33 82 44C78.5 42.67 77 38.42 80 37Z" fill="#E0584B"></path><g clip-path="url(#c575)"><path d="M80 37C83 35.58 94.83 35 100 35.5C105.17 36 110.83 38.42 111 40C111.17 41.58 105.83 44.33 101 45C96.17 45.67 85.5 45.33 82 44C78.5 42.67 77 38.42 80 37Z" fill="#B8433A"></path><g transform="translate(-1.05 -1.5)"><path d="M80 37C83 35.58 94.83 35 100 35.5C105.17 36 110.83 38.42 111 40C111.17 41.58 105.83 44.33 101 45C96.17 45.67 85.5 45.33 82 44C78.5 42.67 77 38.42 80 37Z" fill="#E0584B"></path></g></g></g><g transform="translate(0 0) rotate(0 62 80) translate(0 -0.5)"><path d="M56.4 13.5A3.6 2.4 0 1 0 63.6 13.5A3.6 2.4 0 1 0 56.4 13.5Z" fill="#2B2B3A" stroke="#2B2B3A" stroke-width="7" stroke-linejoin="round"></path><path d="M56.4 13.5A3.6 2.4 0 1 0 63.6 13.5A3.6 2.4 0 1 0 56.4 13.5Z" fill="#E0584B"></path></g><g transform="translate(0 0) rotate(0 62 80) translate(0 -0.5) rotate(-6 40 30)"><path d="M37.09 31.35Q34 33 33.26 29.58L29.74 13.42Q29 10 31.8 12.1L46.2 22.9Q49 25 45.91 26.65Z" fill="#2B2B3A" stroke="#2B2B3A" stroke-width="7" stroke-linejoin="round"></path><path d="M37.09 31.35Q34 33 33.26 29.58L29.74 13.42Q29 10 31.8 12.1L46.2 22.9Q49 25 45.91 26.65Z" fill="#F0A04B"></path><g clip-path="url(#c576)"><path d="M38.33 28.7Q36.5 29.5 35.98 27.57L33.52 18.43Q33 16.5 34.54 17.77L42.96 24.73Q44.5 26 42.67 26.8Z" fill="#F7F1E6"></path></g></g><g transform="translate(0 0) rotate(0 62 80) translate(0 -0.5) rotate(-6 78 28)"><path d="M71.27 26.25Q68 25 70.44 22.49L81.56 11.01Q84 8.5 84.7 11.93L88.3 29.57Q89 33 85.73 31.75Z" fill="#2B2B3A" stroke="#2B2B3A" stroke-width="7" stroke-linejoin="round"></path><path d="M71.27 26.25Q68 25 70.44 22.49L81.56 11.01Q84 8.5 84.7 11.93L88.3 29.57Q89 33 85.73 31.75Z" fill="#F0A04B"></path><g clip-path="url(#c577)"><path d="M73.92 26.55Q72 26 73.41 24.59L81.59 16.41Q83 15 83.39 16.96L85.61 28.04Q86 30 84.08 29.45Z" fill="#F7F1E6"></path></g></g><g transform="translate(0 0)"><path d="M73 86C74.39 85.34 78.77 82.8 81.31 82.02C83.85 81.23 87.09 81.41 88.24 81.28" fill="none" stroke="#2B2B3A" stroke-width="15" stroke-linecap="round" stroke-linejoin="round"></path><path d="M73 86C74.39 85.34 78.77 82.8 81.31 82.02C83.85 81.23 87.09 81.41 88.24 81.28" fill="none" stroke="#F0A04B" stroke-width="8" stroke-linecap="round" stroke-linejoin="round"></path></g><g transform="translate(0 0)"><path d="M84.34 81.06A5 4.7 0 1 0 94.34 81.06A5 4.7 0 1 0 84.34 81.06Z" fill="#2B2B3A" stroke="#2B2B3A" stroke-width="7" stroke-linejoin="round"></path><path d="M84.34 81.06A5 4.7 0 1 0 94.34 81.06A5 4.7 0 1 0 84.34 81.06Z" fill="#F7F1E6"></path></g></g></svg><svg x="512" y="0" width="128" height="128" viewBox="0 0 128 128"><defs><clipPath id="c578"><path d="M36.5 93.75A7.5 6.5 -30 1 0 49.5 86.25A7.5 6.5 -30 1 0 36.5 93.75Z"></path></clipPath><clipPath id="c579"><path d="M43.5 93A19.5 16 0 1 0 82.5 93A19.5 16 0 1 0 43.5 93Z"></path></clipPath><clipPath id="c580"><path d="M29 54A31 25 0 1 0 91 54A31 25 0 1 0 29 54Z"></path><path d="M36.03 61.21Q34 59 32.34 61.5L25.66 71.5Q24 74 26.97 73.58L42.03 71.42Q45 71 42.97 68.79Z"></path></clipPath><clipPath id="c581"><path d="M77 66A13 10 0 1 0 103 66A13 10 0 1 0 77 66Z"></path></clipPath><clipPath id="c582"><path d="M95.8 61.5A5.2 4 0 1 0 106.2 61.5A5.2 4 0 1 0 95.8 61.5Z"></path></clipPath><clipPath id="c583"><path d="M33 40C32 22 45 13 60 13C75 13 87 21 87 38Q60 45 33 40Z"></path></clipPath><clipPath id="c584"><path d="M80 37C83 35.58 94.83 35 100 35.5C105.17 36 110.83 38.42 111 40C111.17 41.58 105.83 44.33 101 45C96.17 45.67 85.5 45.33 82 44C78.5 42.67 77 38.42 80 37Z"></path></clipPath><clipPath id="c585"><path d="M37.09 31.35Q34 33 33.26 29.58L29.74 13.42Q29 10 31.8 12.1L46.2 22.9Q49 25 45.91 26.65Z"></path></clipPath><clipPath id="c586"><path d="M71.27 26.25Q68 25 70.44 22.49L81.56 11.01Q84 8.5 84.7 11.93L88.3 29.57Q89 33 85.73 31.75Z"></path></clipPath></defs><g transform="translate(0 0) rotate(0 64 116)"><g transform="translate(0 4) rotate(10 47 96)"><path d="M36.5 93.75A7.5 6.5 -30 1 0 49.5 86.25A7.5 6.5 -30 1 0 36.5 93.75Z" fill="#2B2B3A" stroke="#2B2B3A" stroke-width="7" stroke-linejoin="round"></path><path d="M36.5 93.75A7.5 6.5 -30 1 0 49.5 86.25A7.5 6.5 -30 1 0 36.5 93.75Z" fill="#F0A04B"></path><g clip-path="url(#c578)"><path d="M36.5 93.75A7.5 6.5 -30 1 0 49.5 86.25A7.5 6.5 -30 1 0 36.5 93.75Z" fill="#CC7B2E"></path><g transform="translate(-1.4 -2)"><path d="M36.5 93.75A7.5 6.5 -30 1 0 49.5 86.25A7.5 6.5 -30 1 0 36.5 93.75Z" fill="#F0A04B"></path></g><path d="M34 86A4 4 0 1 0 42 86A4 4 0 1 0 34 86Z" fill="#F7F1E6"></path></g></g><path d="M56 104L54 107" fill="none" stroke="#2B2B3A" stroke-width="16" stroke-linecap="round" stroke-linejoin="round"></path><path d="M56 104L54 107" fill="none" stroke="#CC7B2E" stroke-width="9" stroke-linecap="round" stroke-linejoin="round"></path><path d="M43.5 111.5A7 4.3 0 1 0 57.5 111.5A7 4.3 0 1 0 43.5 111.5Z" fill="#2B2B3A" stroke="#2B2B3A" stroke-width="7" stroke-linejoin="round"></path><path d="M43.5 111.5A7 4.3 0 1 0 57.5 111.5A7 4.3 0 1 0 43.5 111.5Z" fill="#DCD1BE"></path><g transform="translate(0 4)"><path d="M53 87C52.22 88.32 49.08 92.6 48.31 94.94C47.53 97.27 48.35 100 48.36 101.02" fill="none" stroke="#2B2B3A" stroke-width="14.5" stroke-linecap="round" stroke-linejoin="round"></path><path d="M53 87C52.22 88.32 49.08 92.6 48.31 94.94C47.53 97.27 48.35 100 48.36 101.02" fill="none" stroke="#CC7B2E" stroke-width="7.5" stroke-linecap="round" stroke-linejoin="round"></path></g><g transform="translate(0 4)"><path d="M43.45 101.55A4.8 4.5 0 1 0 53.05 101.55A4.8 4.5 0 1 0 43.45 101.55Z" fill="#2B2B3A" stroke="#2B2B3A" stroke-width="7" stroke-linejoin="round"></path><path d="M43.45 101.55A4.8 4.5 0 1 0 53.05 101.55A4.8 4.5 0 1 0 43.45 101.55Z" fill="#DCD1BE"></path></g><g transform="translate(0 4)"><path d="M43.5 93A19.5 16 0 1 0 82.5 93A19.5 16 0 1 0 43.5 93Z" fill="#2B2B3A" stroke="#2B2B3A" stroke-width="7" stroke-linejoin="round"></path><path d="M43.5 93A19.5 16 0 1 0 82.5 93A19.5 16 0 1 0 43.5 93Z" fill="#F0A04B"></path><g clip-path="url(#c579)"><path d="M43.5 93A19.5 16 0 1 0 82.5 93A19.5 16 0 1 0 43.5 93Z" fill="#CC7B2E"></path><g transform="translate(-2.24 -3.2)"><path d="M43.5 93A19.5 16 0 1 0 82.5 93A19.5 16 0 1 0 43.5 93Z" fill="#F0A04B"></path></g><path d="M58.5 99A11.5 10 0 1 0 81.5 99A11.5 10 0 1 0 58.5 99Z" fill="#F7F1E6"></path><path d="M46.54 90A4 2.4 -30 1 0 53.46 86A4 2.4 -30 1 0 46.54 90Z" fill="#FFCB8E"></path></g></g><path d="M69 104L71 107" fill="none" stroke="#2B2B3A" stroke-width="16" stroke-linecap="round" stroke-linejoin="round"></path><path d="M69 104L71 107" fill="none" stroke="#F0A04B" stroke-width="9" stroke-linecap="round" stroke-linejoin="round"></path><path d="M67 111.5A7.5 4.5 0 1 0 82 111.5A7.5 4.5 0 1 0 67 111.5Z" fill="#2B2B3A" stroke="#2B2B3A" stroke-width="7" stroke-linejoin="round"></path><path d="M67 111.5A7.5 4.5 0 1 0 82 111.5A7.5 4.5 0 1 0 67 111.5Z" fill="#F7F1E6"></path><g transform="translate(0 4)"><path d="M73 86C73.78 87.32 76.69 91.47 77.69 93.94C78.7 96.4 78.8 99.63 79.03 100.77" fill="none" stroke="#2B2B3A" stroke-width="15" stroke-linecap="round" stroke-linejoin="round"></path><path d="M73 86C73.78 87.32 76.69 91.47 77.69 93.94C78.7 96.4 78.8 99.63 79.03 100.77" fill="none" stroke="#F0A04B" stroke-width="8" stroke-linecap="round" stroke-linejoin="round"></path></g><g transform="translate(0 4)"><path d="M74.35 101.84A5 4.7 0 1 0 84.35 101.84A5 4.7 0 1 0 74.35 101.84Z" fill="#2B2B3A" stroke="#2B2B3A" stroke-width="7" stroke-linejoin="round"></path><path d="M74.35 101.84A5 4.7 0 1 0 84.35 101.84A5 4.7 0 1 0 74.35 101.84Z" fill="#F7F1E6"></path></g><g transform="translate(0 5.5) rotate(0 62 80)"><path d="M29 54A31 25 0 1 0 91 54A31 25 0 1 0 29 54Z" fill="#2B2B3A" stroke="#2B2B3A" stroke-width="7" stroke-linejoin="round"></path><path d="M36.03 61.21Q34 59 32.34 61.5L25.66 71.5Q24 74 26.97 73.58L42.03 71.42Q45 71 42.97 68.79Z" fill="#2B2B3A" stroke="#2B2B3A" stroke-width="7" stroke-linejoin="round"></path><path d="M29 54A31 25 0 1 0 91 54A31 25 0 1 0 29 54Z" fill="#F0A04B"></path><path d="M36.03 61.21Q34 59 32.34 61.5L25.66 71.5Q24 74 26.97 73.58L42.03 71.42Q45 71 42.97 68.79Z" fill="#F0A04B"></path><g clip-path="url(#c580)"><path d="M29 54A31 25 0 1 0 91 54A31 25 0 1 0 29 54Z" fill="#CC7B2E"></path><path d="M36.03 61.21Q34 59 32.34 61.5L25.66 71.5Q24 74 26.97 73.58L42.03 71.42Q45 71 42.97 68.79Z" fill="#CC7B2E"></path><g transform="translate(-3.5 -5)"><path d="M29 54A31 25 0 1 0 91 54A31 25 0 1 0 29 54Z" fill="#F0A04B"></path><path d="M36.03 61.21Q34 59 32.34 61.5L25.66 71.5Q24 74 26.97 73.58L42.03 71.42Q45 71 42.97 68.79Z" fill="#F0A04B"></path></g><path d="M44.16 80.14A30 12 -6 1 0 103.84 73.86A30 12 -6 1 0 44.16 80.14Z" fill="#F7F1E6"></path><path d="M81.92 51.44A3.4 8 -25 1 0 88.08 48.56A3.4 8 -25 1 0 81.92 51.44Z" fill="#F7F1E6"></path></g></g><g transform="translate(0 5.5) rotate(0 62 80)"><path d="M44.55 57.81Q49.5 50.55 54.45 57.81" fill="none" stroke="#2B2B3A" stroke-width="2.4" stroke-linecap="round" stroke-linejoin="round"></path><path d="M66.45 57.09Q72 48.95 77.55 57.09" fill="none" stroke="#2B2B3A" stroke-width="2.4" stroke-linecap="round" stroke-linejoin="round"></path></g><g transform="translate(0 5.5) rotate(0 62 80)"><path d="M77 66A13 10 0 1 0 103 66A13 10 0 1 0 77 66Z" fill="#2B2B3A" stroke="#2B2B3A" stroke-width="7" stroke-linejoin="round"></path><path d="M77 66A13 10 0 1 0 103 66A13 10 0 1 0 77 66Z" fill="#F7F1E6"></path><g clip-path="url(#c581)"><path d="M77 66A13 10 0 1 0 103 66A13 10 0 1 0 77 66Z" fill="#DCD1BE"></path><g transform="translate(-1.26 -1.8)"><path d="M77 66A13 10 0 1 0 103 66A13 10 0 1 0 77 66Z" fill="#F7F1E6"></path></g><path d="M81.14 61.54A4 2 -15 1 0 88.86 59.46A4 2 -15 1 0 81.14 61.54Z" fill="#FFFFFF"></path></g></g><g transform="translate(0 5.5) rotate(0 62 80)"><path d="M95.8 61.5A5.2 4 0 1 0 106.2 61.5A5.2 4 0 1 0 95.8 61.5Z" fill="#2B2B3A"></path><g clip-path="url(#c582)"><path d="M97.8 60.1A1.6 1 0 1 0 101 60.1A1.6 1 0 1 0 97.8 60.1Z" fill="#fff"></path></g></g><g transform="translate(0 5.5) rotate(0 62 80)"><path d="M87.5 70Q94 81.5 100.5 69.5Z" fill="#C9475A" stroke="#2B2B3A" stroke-width="2" stroke-linecap="round" stroke-linejoin="round"></path></g><g transform="translate(0 5.5) rotate(0 62 80) translate(0 1)"><path d="M33 40C32 22 45 13 60 13C75 13 87 21 87 38Q60 45 33 40Z" fill="#2B2B3A" stroke="#2B2B3A" stroke-width="7" stroke-linejoin="round"></path><path d="M33 40C32 22 45 13 60 13C75 13 87 21 87 38Q60 45 33 40Z" fill="#E0584B"></path><g clip-path="url(#c583)"><path d="M33 40C32 22 45 13 60 13C75 13 87 21 87 38Q60 45 33 40Z" fill="#B8433A"></path><g transform="translate(-1.68 -2.4)"><path d="M33 40C32 22 45 13 60 13C75 13 87 21 87 38Q60 45 33 40Z" fill="#E0584B"></path></g><path d="M42.56 23.54A6 3 -25 1 0 53.44 18.46A6 3 -25 1 0 42.56 23.54Z" fill="#F59287"></path></g></g><g transform="translate(0 5.5) rotate(0 62 80) translate(0 1)"><path d="M80 37C83 35.58 94.83 35 100 35.5C105.17 36 110.83 38.42 111 40C111.17 41.58 105.83 44.33 101 45C96.17 45.67 85.5 45.33 82 44C78.5 42.67 77 38.42 80 37Z" fill="#2B2B3A" stroke="#2B2B3A" stroke-width="7" stroke-linejoin="round"></path><path d="M80 37C83 35.58 94.83 35 100 35.5C105.17 36 110.83 38.42 111 40C111.17 41.58 105.83 44.33 101 45C96.17 45.67 85.5 45.33 82 44C78.5 42.67 77 38.42 80 37Z" fill="#E0584B"></path><g clip-path="url(#c584)"><path d="M80 37C83 35.58 94.83 35 100 35.5C105.17 36 110.83 38.42 111 40C111.17 41.58 105.83 44.33 101 45C96.17 45.67 85.5 45.33 82 44C78.5 42.67 77 38.42 80 37Z" fill="#B8433A"></path><g transform="translate(-1.05 -1.5)"><path d="M80 37C83 35.58 94.83 35 100 35.5C105.17 36 110.83 38.42 111 40C111.17 41.58 105.83 44.33 101 45C96.17 45.67 85.5 45.33 82 44C78.5 42.67 77 38.42 80 37Z" fill="#E0584B"></path></g></g></g><g transform="translate(0 5.5) rotate(0 62 80) translate(0 1)"><path d="M56.4 13.5A3.6 2.4 0 1 0 63.6 13.5A3.6 2.4 0 1 0 56.4 13.5Z" fill="#2B2B3A" stroke="#2B2B3A" stroke-width="7" stroke-linejoin="round"></path><path d="M56.4 13.5A3.6 2.4 0 1 0 63.6 13.5A3.6 2.4 0 1 0 56.4 13.5Z" fill="#E0584B"></path></g><g transform="translate(0 5.5) rotate(0 62 80) translate(0 1) rotate(6 40 30)"><path d="M37.09 31.35Q34 33 33.26 29.58L29.74 13.42Q29 10 31.8 12.1L46.2 22.9Q49 25 45.91 26.65Z" fill="#2B2B3A" stroke="#2B2B3A" stroke-width="7" stroke-linejoin="round"></path><path d="M37.09 31.35Q34 33 33.26 29.58L29.74 13.42Q29 10 31.8 12.1L46.2 22.9Q49 25 45.91 26.65Z" fill="#F0A04B"></path><g clip-path="url(#c585)"><path d="M38.33 28.7Q36.5 29.5 35.98 27.57L33.52 18.43Q33 16.5 34.54 17.77L42.96 24.73Q44.5 26 42.67 26.8Z" fill="#F7F1E6"></path></g></g><g transform="translate(0 5.5) rotate(0 62 80) translate(0 1) rotate(6 78 28)"><path d="M71.27 26.25Q68 25 70.44 22.49L81.56 11.01Q84 8.5 84.7 11.93L88.3 29.57Q89 33 85.73 31.75Z" fill="#2B2B3A" stroke="#2B2B3A" stroke-width="7" stroke-linejoin="round"></path><path d="M71.27 26.25Q68 25 70.44 22.49L81.56 11.01Q84 8.5 84.7 11.93L88.3 29.57Q89 33 85.73 31.75Z" fill="#F0A04B"></path><g clip-path="url(#c586)"><path d="M73.92 26.55Q72 26 73.41 24.59L81.59 16.41Q83 15 83.39 16.96L85.61 28.04Q86 30 84.08 29.45Z" fill="#F7F1E6"></path></g></g></g></svg><svg x="640" y="0" width="128" height="128" viewBox="0 0 128 128"><defs><clipPath id="c587"><path d="M36.5 93.75A7.5 6.5 -30 1 0 49.5 86.25A7.5 6.5 -30 1 0 36.5 93.75Z"></path></clipPath><clipPath id="c588"><path d="M43.5 93A19.5 16 0 1 0 82.5 93A19.5 16 0 1 0 43.5 93Z"></path></clipPath><clipPath id="c589"><path d="M29 54A31 25 0 1 0 91 54A31 25 0 1 0 29 54Z"></path><path d="M36.03 61.21Q34 59 32.34 61.5L25.66 71.5Q24 74 26.97 73.58L42.03 71.42Q45 71 42.97 68.79Z"></path></clipPath><clipPath id="c590"><path d="M77 66A13 10 0 1 0 103 66A13 10 0 1 0 77 66Z"></path></clipPath><clipPath id="c591"><path d="M95.8 61.5A5.2 4 0 1 0 106.2 61.5A5.2 4 0 1 0 95.8 61.5Z"></path></clipPath><clipPath id="c592"><path d="M33 40C32 22 45 13 60 13C75 13 87 21 87 38Q60 45 33 40Z"></path></clipPath><clipPath id="c593"><path d="M80 37C83 35.58 94.83 35 100 35.5C105.17 36 110.83 38.42 111 40C111.17 41.58 105.83 44.33 101 45C96.17 45.67 85.5 45.33 82 44C78.5 42.67 77 38.42 80 37Z"></path></clipPath><clipPath id="c594"><path d="M37.09 31.35Q34 33 33.26 29.58L29.74 13.42Q29 10 31.8 12.1L46.2 22.9Q49 25 45.91 26.65Z"></path></clipPath><clipPath id="c595"><path d="M71.27 26.25Q68 25 70.44 22.49L81.56 11.01Q84 8.5 84.7 11.93L88.3 29.57Q89 33 85.73 31.75Z"></path></clipPath></defs><g transform="translate(0 0) rotate(0 64 116)"><g transform="translate(0 1) rotate(2 47 96)"><path d="M36.5 93.75A7.5 6.5 -30 1 0 49.5 86.25A7.5 6.5 -30 1 0 36.5 93.75Z" fill="#2B2B3A" stroke="#2B2B3A" stroke-width="7" stroke-linejoin="round"></path><path d="M36.5 93.75A7.5 6.5 -30 1 0 49.5 86.25A7.5 6.5 -30 1 0 36.5 93.75Z" fill="#F0A04B"></path><g clip-path="url(#c587)"><path d="M36.5 93.75A7.5 6.5 -30 1 0 49.5 86.25A7.5 6.5 -30 1 0 36.5 93.75Z" fill="#CC7B2E"></path><g transform="translate(-1.4 -2)"><path d="M36.5 93.75A7.5 6.5 -30 1 0 49.5 86.25A7.5 6.5 -30 1 0 36.5 93.75Z" fill="#F0A04B"></path></g><path d="M34 86A4 4 0 1 0 42 86A4 4 0 1 0 34 86Z" fill="#F7F1E6"></path></g></g><path d="M56 101L54 107" fill="none" stroke="#2B2B3A" stroke-width="16" stroke-linecap="round" stroke-linejoin="round"></path><path d="M56 101L54 107" fill="none" stroke="#CC7B2E" stroke-width="9" stroke-linecap="round" stroke-linejoin="round"></path><path d="M43.5 111.5A7 4.3 0 1 0 57.5 111.5A7 4.3 0 1 0 43.5 111.5Z" fill="#2B2B3A" stroke="#2B2B3A" stroke-width="7" stroke-linejoin="round"></path><path d="M43.5 111.5A7 4.3 0 1 0 57.5 111.5A7 4.3 0 1 0 43.5 111.5Z" fill="#DCD1BE"></path><g transform="translate(0 1)"><path d="M53 87C51.55 87.51 46.4 88.77 44.3 90.06C42.21 91.36 41.08 93.98 40.44 94.76" fill="none" stroke="#2B2B3A" stroke-width="14.5" stroke-linecap="round" stroke-linejoin="round"></path><path d="M53 87C51.55 87.51 46.4 88.77 44.3 90.06C42.21 91.36 41.08 93.98 40.44 94.76" fill="none" stroke="#CC7B2E" stroke-width="7.5" stroke-linecap="round" stroke-linejoin="round"></path></g><g transform="translate(0 1)"><path d="M35.21 95.09A4.8 4.5 0 1 0 44.81 95.09A4.8 4.5 0 1 0 35.21 95.09Z" fill="#2B2B3A" stroke="#2B2B3A" stroke-width="7" stroke-linejoin="round"></path><path d="M35.21 95.09A4.8 4.5 0 1 0 44.81 95.09A4.8 4.5 0 1 0 35.21 95.09Z" fill="#DCD1BE"></path></g><g transform="translate(0 1)"><path d="M43.5 93A19.5 16 0 1 0 82.5 93A19.5 16 0 1 0 43.5 93Z" fill="#2B2B3A" stroke="#2B2B3A" stroke-width="7" stroke-linejoin="round"></path><path d="M43.5 93A19.5 16 0 1 0 82.5 93A19.5 16 0 1 0 43.5 93Z" fill="#F0A04B"></path><g clip-path="url(#c588)"><path d="M43.5 93A19.5 16 0 1 0 82.5 93A19.5 16 0 1 0 43.5 93Z" fill="#CC7B2E"></path><g transform="translate(-2.24 -3.2)"><path d="M43.5 93A19.5 16 0 1 0 82.5 93A19.5 16 0 1 0 43.5 93Z" fill="#F0A04B"></path></g><path d="M58.5 99A11.5 10 0 1 0 81.5 99A11.5 10 0 1 0 58.5 99Z" fill="#F7F1E6"></path><path d="M46.54 90A4 2.4 -30 1 0 53.46 86A4 2.4 -30 1 0 46.54 90Z" fill="#FFCB8E"></path></g></g><path d="M69 101L71 107" fill="none" stroke="#2B2B3A" stroke-width="16" stroke-linecap="round" stroke-linejoin="round"></path><path d="M69 101L71 107" fill="none" stroke="#F0A04B" stroke-width="9" stroke-linecap="round" stroke-linejoin="round"></path><path d="M67 111.5A7.5 4.5 0 1 0 82 111.5A7.5 4.5 0 1 0 67 111.5Z" fill="#2B2B3A" stroke="#2B2B3A" stroke-width="7" stroke-linejoin="round"></path><path d="M67 111.5A7.5 4.5 0 1 0 82 111.5A7.5 4.5 0 1 0 67 111.5Z" fill="#F7F1E6"></path><g transform="translate(0 1) rotate(0 62 80)"><path d="M29 54A31 25 0 1 0 91 54A31 25 0 1 0 29 54Z" fill="#2B2B3A" stroke="#2B2B3A" stroke-width="7" stroke-linejoin="round"></path><path d="M36.03 61.21Q34 59 32.34 61.5L25.66 71.5Q24 74 26.97 73.58L42.03 71.42Q45 71 42.97 68.79Z" fill="#2B2B3A" stroke="#2B2B3A" stroke-width="7" stroke-linejoin="round"></path><path d="M29 54A31 25 0 1 0 91 54A31 25 0 1 0 29 54Z" fill="#F0A04B"></path><path d="M36.03 61.21Q34 59 32.34 61.5L25.66 71.5Q24 74 26.97 73.58L42.03 71.42Q45 71 42.97 68.79Z" fill="#F0A04B"></path><g clip-path="url(#c589)"><path d="M29 54A31 25 0 1 0 91 54A31 25 0 1 0 29 54Z" fill="#CC7B2E"></path><path d="M36.03 61.21Q34 59 32.34 61.5L25.66 71.5Q24 74 26.97 73.58L42.03 71.42Q45 71 42.97 68.79Z" fill="#CC7B2E"></path><g transform="translate(-3.5 -5)"><path d="M29 54A31 25 0 1 0 91 54A31 25 0 1 0 29 54Z" fill="#F0A04B"></path><path d="M36.03 61.21Q34 59 32.34 61.5L25.66 71.5Q24 74 26.97 73.58L42.03 71.42Q45 71 42.97 68.79Z" fill="#F0A04B"></path></g><path d="M44.16 80.14A30 12 -6 1 0 103.84 73.86A30 12 -6 1 0 44.16 80.14Z" fill="#F7F1E6"></path><path d="M81.92 51.44A3.4 8 -25 1 0 88.08 48.56A3.4 8 -25 1 0 81.92 51.44Z" fill="#F7F1E6"></path></g></g><g transform="translate(0 1) rotate(0 62 80)"><path d="M44.55 57.81Q49.5 50.55 54.45 57.81" fill="none" stroke="#2B2B3A" stroke-width="2.4" stroke-linecap="round" stroke-linejoin="round"></path><path d="M66.45 57.09Q72 48.95 77.55 57.09" fill="none" stroke="#2B2B3A" stroke-width="2.4" stroke-linecap="round" stroke-linejoin="round"></path></g><g transform="translate(0 1) rotate(0 62 80)"><path d="M77 66A13 10 0 1 0 103 66A13 10 0 1 0 77 66Z" fill="#2B2B3A" stroke="#2B2B3A" stroke-width="7" stroke-linejoin="round"></path><path d="M77 66A13 10 0 1 0 103 66A13 10 0 1 0 77 66Z" fill="#F7F1E6"></path><g clip-path="url(#c590)"><path d="M77 66A13 10 0 1 0 103 66A13 10 0 1 0 77 66Z" fill="#DCD1BE"></path><g transform="translate(-1.26 -1.8)"><path d="M77 66A13 10 0 1 0 103 66A13 10 0 1 0 77 66Z" fill="#F7F1E6"></path></g><path d="M81.14 61.54A4 2 -15 1 0 88.86 59.46A4 2 -15 1 0 81.14 61.54Z" fill="#FFFFFF"></path></g></g><g transform="translate(0 1) rotate(0 62 80)"><path d="M95.8 61.5A5.2 4 0 1 0 106.2 61.5A5.2 4 0 1 0 95.8 61.5Z" fill="#2B2B3A"></path><g clip-path="url(#c591)"><path d="M97.8 60.1A1.6 1 0 1 0 101 60.1A1.6 1 0 1 0 97.8 60.1Z" fill="#fff"></path></g></g><g transform="translate(0 1) rotate(0 62 80)"><path d="M87.5 70Q94 81.5 100.5 69.5Z" fill="#C9475A" stroke="#2B2B3A" stroke-width="2" stroke-linecap="round" stroke-linejoin="round"></path></g><g transform="translate(0 1) rotate(0 62 80) translate(0 0)"><path d="M33 40C32 22 45 13 60 13C75 13 87 21 87 38Q60 45 33 40Z" fill="#2B2B3A" stroke="#2B2B3A" stroke-width="7" stroke-linejoin="round"></path><path d="M33 40C32 22 45 13 60 13C75 13 87 21 87 38Q60 45 33 40Z" fill="#E0584B"></path><g clip-path="url(#c592)"><path d="M33 40C32 22 45 13 60 13C75 13 87 21 87 38Q60 45 33 40Z" fill="#B8433A"></path><g transform="translate(-1.68 -2.4)"><path d="M33 40C32 22 45 13 60 13C75 13 87 21 87 38Q60 45 33 40Z" fill="#E0584B"></path></g><path d="M42.56 23.54A6 3 -25 1 0 53.44 18.46A6 3 -25 1 0 42.56 23.54Z" fill="#F59287"></path></g></g><g transform="translate(0 1) rotate(0 62 80) translate(0 0)"><path d="M80 37C83 35.58 94.83 35 100 35.5C105.17 36 110.83 38.42 111 40C111.17 41.58 105.83 44.33 101 45C96.17 45.67 85.5 45.33 82 44C78.5 42.67 77 38.42 80 37Z" fill="#2B2B3A" stroke="#2B2B3A" stroke-width="7" stroke-linejoin="round"></path><path d="M80 37C83 35.58 94.83 35 100 35.5C105.17 36 110.83 38.42 111 40C111.17 41.58 105.83 44.33 101 45C96.17 45.67 85.5 45.33 82 44C78.5 42.67 77 38.42 80 37Z" fill="#E0584B"></path><g clip-path="url(#c593)"><path d="M80 37C83 35.58 94.83 35 100 35.5C105.17 36 110.83 38.42 111 40C111.17 41.58 105.83 44.33 101 45C96.17 45.67 85.5 45.33 82 44C78.5 42.67 77 38.42 80 37Z" fill="#B8433A"></path><g transform="translate(-1.05 -1.5)"><path d="M80 37C83 35.58 94.83 35 100 35.5C105.17 36 110.83 38.42 111 40C111.17 41.58 105.83 44.33 101 45C96.17 45.67 85.5 45.33 82 44C78.5 42.67 77 38.42 80 37Z" fill="#E0584B"></path></g></g></g><g transform="translate(0 1) rotate(0 62 80) translate(0 0)"><path d="M56.4 13.5A3.6 2.4 0 1 0 63.6 13.5A3.6 2.4 0 1 0 56.4 13.5Z" fill="#2B2B3A" stroke="#2B2B3A" stroke-width="7" stroke-linejoin="round"></path><path d="M56.4 13.5A3.6 2.4 0 1 0 63.6 13.5A3.6 2.4 0 1 0 56.4 13.5Z" fill="#E0584B"></path></g><g transform="translate(0 1) rotate(0 62 80) translate(0 0) rotate(0 40 30)"><path d="M37.09 31.35Q34 33 33.26 29.58L29.74 13.42Q29 10 31.8 12.1L46.2 22.9Q49 25 45.91 26.65Z" fill="#2B2B3A" stroke="#2B2B3A" stroke-width="7" stroke-linejoin="round"></path><path d="M37.09 31.35Q34 33 33.26 29.58L29.74 13.42Q29 10 31.8 12.1L46.2 22.9Q49 25 45.91 26.65Z" fill="#F0A04B"></path><g clip-path="url(#c594)"><path d="M38.33 28.7Q36.5 29.5 35.98 27.57L33.52 18.43Q33 16.5 34.54 17.77L42.96 24.73Q44.5 26 42.67 26.8Z" fill="#F7F1E6"></path></g></g><g transform="translate(0 1) rotate(0 62 80) translate(0 0) rotate(0 78 28)"><path d="M71.27 26.25Q68 25 70.44 22.49L81.56 11.01Q84 8.5 84.7 11.93L88.3 29.57Q89 33 85.73 31.75Z" fill="#2B2B3A" stroke="#2B2B3A" stroke-width="7" stroke-linejoin="round"></path><path d="M71.27 26.25Q68 25 70.44 22.49L81.56 11.01Q84 8.5 84.7 11.93L88.3 29.57Q89 33 85.73 31.75Z" fill="#F0A04B"></path><g clip-path="url(#c595)"><path d="M73.92 26.55Q72 26 73.41 24.59L81.59 16.41Q83 15 83.39 16.96L85.61 28.04Q86 30 84.08 29.45Z" fill="#F7F1E6"></path></g></g><g transform="translate(0 1)"><path d="M73 86C74.45 86.51 79.34 87.82 81.7 89.06C84.05 90.3 86.21 92.71 87.11 93.44" fill="none" stroke="#2B2B3A" stroke-width="15" stroke-linecap="round" stroke-linejoin="round"></path><path d="M73 86C74.45 86.51 79.34 87.82 81.7 89.06C84.05 90.3 86.21 92.71 87.11 93.44" fill="none" stroke="#F0A04B" stroke-width="8" stroke-linecap="round" stroke-linejoin="round"></path></g><g transform="translate(0 1)"><path d="M83.04 94.06A5 4.7 0 1 0 93.04 94.06A5 4.7 0 1 0 83.04 94.06Z" fill="#2B2B3A" stroke="#2B2B3A" stroke-width="7" stroke-linejoin="round"></path><path d="M83.04 94.06A5 4.7 0 1 0 93.04 94.06A5 4.7 0 1 0 83.04 94.06Z" fill="#F7F1E6"></path></g></g></svg></svg>